SplineFontDB: 3.2
FontName: FunkySample
FullName: FunkySample
FamilyName: FunkySample
Weight: Regular
Copyright: Copyright (c) 2021 Mikhail Merkuryev\nYou just DO WHAT THE FUNK YOU WANT TO.
UComments: "2021-9-15: Created with FontForge (http://fontforge.org)"
Version: 001.000
ItalicAngle: 0
UnderlinePosition: -100
UnderlineWidth: 50
Ascent: 800
Descent: 200
InvalidEm: 0
LayerCount: 2
Layer: 0 1 "+BBcEMAQ0BD0EOAQ5 +BD8EOwQwBD0A" 1
Layer: 1 1 "+BB8ENQRABDUENAQ9BDgEOQAA +BD8EOwQwBD0A" 0
XUID: [1021 59 1751208496 15025]
FSType: 0
OS2Version: 0
OS2_WeightWidthSlopeOnly: 0
OS2_UseTypoMetrics: 1
CreationTime: 1631732133
ModificationTime: 1635201416
PfmFamily: 33
TTFWeight: 400
TTFWidth: 5
LineGap: 90
VLineGap: 0
OS2TypoAscent: 0
OS2TypoAOffset: 1
OS2TypoDescent: 0
OS2TypoDOffset: 1
OS2TypoLinegap: 90
OS2WinAscent: 0
OS2WinAOffset: 1
OS2WinDescent: 0
OS2WinDOffset: 1
HheadAscent: 0
HheadAOffset: 1
HheadDescent: 0
HheadDOffset: 1
OS2Vendor: 'PfEd'
OS2UnicodeRanges: 00002000.02002080.00000008.00000000
Lookup: 4 0 0 "Nand RLIG" { "Nand RLIG-1"  } ['rlig' ('DFLT' <'dflt' > 'arab' <'dflt' > 'nand' <'dflt' > ) ]
Lookup: 258 0 0 "'kern' Nand1" { "'kern' Nand1-1" [150,15,0] "'kern' Nand1-2" [150,15,0] "'kern' Nand1-3" [150,15,0] } ['kern' ('DFLT' <'dflt' > 'arab' <'dflt' > 'nand' <'dflt' > ) ]
Lookup: 260 0 0 "'blwm' Nand1" { "'blwm' Nand1-1"  } ['blwm' ('DFLT' <'dflt' > 'arab' <'dflt' > 'nand' <'dflt' > ) ]
Lookup: 257 1 0 "Single Positioning in 'Chrs' lookup 0" { "Chrs"  } ['Chrs' ('Chrs' <'dflt' > ) ]
MarkAttachClasses: 1
DEI: 91125
ShortTable: maxp 16
  0
  0
  0
  0
  0
  0
  0
  2
  1
  2
  22
  0
  256
  0
  0
  0
EndShort
TtTable: prep
PUSHW_1
 511
SCANCTRL
PUSHB_1
 1
SCANTYPE
SVTCA[y-axis]
MPPEM
PUSHB_1
 8
LT
IF
PUSHB_2
 1
 1
INSTCTRL
EIF
PUSHB_2
 70
 6
CALL
IF
POP
PUSHB_1
 16
EIF
MPPEM
PUSHB_1
 20
GT
IF
POP
PUSHB_1
 128
EIF
SCVTCI
PUSHB_1
 6
CALL
NOT
IF
EIF
PUSHB_1
 20
CALL
EndTTInstrs
TtTable: fpgm
PUSHB_1
 0
FDEF
PUSHB_1
 0
SZP0
MPPEM
PUSHB_1
 42
LT
IF
PUSHB_1
 74

StartChar: u10FB0
Encoding: 69552 69552 0
Width: 948
Flags: W
LayerCount: 2
Fore
SplineSet
776.728515625 453.470703125 m 128,-1,1
 797.178445214 456.743160609 797.178445214 456.743160609 813.952990412 444.596566682 c 128,-1,2
 830.727535609 432.449972755 830.727535609 432.449972755 834 412 c 0,3,4
 847.510152411 327.576922614 847.510152411 327.576922614 917.705078125 175.736328125 c 0,5,6
 929.631826882 150.880145825 929.631826882 150.880145825 914.978765704 127.527231144 c 128,-1,7
 900.325704526 104.174316463 900.325704526 104.174316463 872.755859375 104.099609375 c 2,8,-1
 80.755859375 102.099609375 l 2,9,10
 60.0452344582 102.046875174 60.0452344582 102.046875174 45.3634376287 116.654384811 c 128,-1,11
 30.6816407993 131.261894447 30.6816407993 131.261894447 30.62890625 151.97265625 c 128,-1,12
 30.576171621 172.683449374 30.576171621 172.683449374 45.1837655746 187.365528524 c 128,-1,13
 59.7913595281 202.047607673 59.7913595281 202.047607673 80.501953125 202.099609375 c 2,14,-1
 795.5078125 203.904296875 l 1,15,16
 747.79350511 317.855281425 747.79350511 317.855281425 735.2578125 396.19921875 c 0,17,18
 731.986079018 416.649933386 731.986079018 416.649933386 744.132337256 433.424090271 c 128,-1,0
 756.278595494 450.198247155 756.278595494 450.198247155 776.728515625 453.470703125 c 128,-1,1
EndSplineSet
Validated: 33
Position2: "Chrs" dx=0 dy=0 dh=0 dv=0
EndChar

StartChar: u10FB1
Encoding: 69553 69553 1
Width: 343
Flags: W
LayerCount: 2
Fore
SplineSet
190.767578125 334.66015625 m 128,-1,1
 211.222631255 334.447021744 211.222631255 334.447021744 225.663439562 319.958874932 c 128,-1,2
 240.104247868 305.47072812 240.104247868 305.47072812 240.25 285.015625 c 0,3,4
 240.25 237.155501597 240.25 237.155501597 249.892578125 213.1640625 c 0,5,6
 252.210616693 207.398428443 252.210616693 207.398428443 254.52734375 204.66015625 c 0,7,8
 254.916882332 204.730529426 254.916882332 204.730529426 255.10546875 204.75 c 0,9,10
 275.706452712 206.880631149 275.706452712 206.880631149 291.780114196 193.820731801 c 128,-1,11
 307.853775681 180.760832452 307.853775681 180.760832452 309.984375 160.16015625 c 128,-1,12
 312.115704052 139.559505994 312.115704052 139.559505994 299.055622606 123.486061128 c 128,-1,13
 285.995541161 107.412616262 285.995541161 107.412616262 265.39453125 105.28125 c 0,14,15
 225.033172105 101.105882918 225.033172105 101.105882918 194.56640625 124.2890625 c 0,16,17
 189.841242844 127.884239761 189.841242844 127.884239761 184.671875 132.984375 c 1,18,19
 145.977932128 102.643487383 145.977932128 102.643487383 81.5 101.03125 c 0,20,21
 60.7959250951 100.513428401 60.7959250951 100.513428401 45.7896865137 114.78746259 c 128,-1,22
 30.7834479324 129.06149678 30.7834479324 129.06149678 30.265625 149.765625 c 128,-1,23
 29.7478034011 170.469699905 29.7478034011 170.469699905 44.0218375904 185.475938486 c 128,-1,24
 58.2958717797 200.482177067 58.2958717797 200.482177067 79 201 c 0,25,26
 115.646076045 201.916234099 115.646076045 201.916234099 125.6796875 214.27734375 c 0,27,28
 139.111195205 230.824031473 139.111195205 230.824031473 140.26171875 286.056640625 c 0,29,30
 140.83447583 306.50450783 140.83447583 306.50450783 155.573910792 320.688898833 c 128,-1,0
 170.313345754 334.873289835 170.313345754 334.873289835 190.767578125 334.66015625 c 128,-1,1
EndSplineSet
Validated: 33
Position2: "Chrs" dx=0 dy=0 dh=0 dv=0
EndChar

StartChar: u10FB2
Encoding: 69554 69554 2
Width: 548
Flags: W
LayerCount: 2
Fore
SplineSet
381.103515625 477.306640625 m 0,0,1
 385.511900924 478.04296875 385.511900924 478.04296875 389.310546875 478.04296875 c 0,2,3
 417.033115768 478.04296875 417.033115768 478.04296875 431.751953125 454.474609375 c 0,4,5
 476.001719068 383.616708425 476.001719068 383.616708425 492.797706029 331.060267744 c 128,-1,6
 509.59369299 278.503827063 509.59369299 278.503827063 509.03125 217.53515625 c 0,7,8
 508.593165435 170.055642741 508.593165435 170.055642741 474.318359375 139.140625 c 0,9,10
 449.494400357 116.751233599 449.494400357 116.751233599 408.123046875 106.400390625 c 0,11,12
 366.550083885 96 366.550083885 96 279 96 c 0,13,14
 250.219394436 96 250.219394436 96 217.198675126 98.168047171 c 128,-1,15
 184.177955816 100.336094342 184.177955816 100.336094342 80.734375 102.005859375 c 0,16,17
 60.3022731871 102.336485399 60.3022731871 102.336485399 45.9221326873 116.924804948 c 128,-1,18
 31.5419921875 131.513124497 31.5419921875 131.513124497 31.5419921875 151.985351562 c 0,19,20
 31.5419921875 152.396972656 31.5419921875 152.396972656 31.548828125 152.806640625 c 0,21,22
 31.8787226119 173.238105845 31.8787226119 173.238105845 46.4669675534 187.618564641 c 128,-1,23
 61.0552124949 201.999023438 61.0552124949 201.999023438 81.52734375 201.999023438 c 0,24,25
 187.174039121 200.299922073 187.174039121 200.299922073 219.648325429 198.149961036 c 128,-1,26
 252.122611737 196 252.122611737 196 279 196 c 0,27,28
 354.223798352 196 354.223798352 196 383.853515625 203.412109375 c 0,29,30
 401.033138237 207.710526807 401.033138237 207.710526807 407.341796875 213.3984375 c 0,31,32
 409.00184977 214.895796572 409.00184977 214.895796572 409.03515625 218.458984375 c 0,33,34
 409.51845873 270.84672538 409.51845873 270.84672538 398.832675916 303.178671542 c 128,-1,35
 388.146893102 335.510617704 388.146893102 335.510617704 346.93359375 401.505859375 c 0,36,37
 339.290039062 413.744896791 339.290039062 413.744896791 339.290039062 427.958984375 c 0,38,39
 339.290039062 455.680820856 339.290039062 455.680820856 362.857421875 470.3984375 c 0,40,41
 371.291806666 475.667466893 371.291806666 475.667466893 381.103515625 477.306640625 c 0,0,1
EndSplineSet
Validated: 33
Position2: "Chrs" dx=0 dy=0 dh=0 dv=0
EndChar

StartChar: u10FB3
Encoding: 69555 69555 3
Width: 576
Flags: W
LayerCount: 2
Fore
SplineSet
86.3017578125 398.916015625 m 2,0,-1
 486.301757812 380.916015625 l 2,1,2
 506.255942318 380.015782683 506.255942318 380.015782683 520.154338347 365.547627008 c 128,-1,3
 534.052734375 351.079471333 534.052734375 351.079471333 534.052734375 331.005859375 c 0,4,5
 534.052734375 326.483310981 534.052734375 326.483310981 533.256835938 322.076171875 c 0,6,7
 518.493705959 240.378500306 518.493705959 240.378500306 495.407226562 144.734375 c 0,8,9
 448.160988346 -51.0003254155 448.160988346 -51.0003254155 403.129882812 -127.41796875 c 0,10,11
 388.641922367 -152 388.641922367 -152 360 -152 c 0,12,13
 346.361801161 -152 346.361801161 -152 334.668945312 -145.109375 c 0,14,15
 310.0859375 -130.621797739 310.0859375 -130.621797739 310.0859375 -101.979492188 c 0,16,17
 310.0859375 -88.3429504985 310.0859375 -88.3429504985 316.977539062 -76.6484375 c 0,18,19
 354.446492884 -13.0639367699 354.446492884 -13.0639367699 398.200195312 168.19921875 c 0,20,21
 411.393236518 222.854894813 411.393236518 222.854894813 423.825195312 283.626953125 c 1,22,-1
 81.8056640625 299.017578125 l 2,23,24
 61.8519870184 299.915552331 61.8519870184 299.915552331 47.9523606967 314.387523153 c 128,-1,25
 34.052734375 328.859493976 34.052734375 328.859493976 34.052734375 348.93359375 c 0,26,27
 34.052734375 350.080566407 34.052734375 350.080566407 34.1044921875 351.21484375 c 0,28,29
 35.0024630326 371.16844611 35.0024630326 371.16844611 49.4742759171 385.068109774 c 128,-1,30
 63.9460888017 398.967773438 63.9460888017 398.967773438 84.01953125 398.967773438 c 0,31,32
 85.1665039062 398.967773438 85.1665039062 398.967773438 86.3017578125 398.916015625 c 2,0,-1
EndSplineSet
Validated: 1
Position2: "Chrs" dx=0 dy=0 dh=0 dv=0
EndChar

StartChar: u10FB4
Encoding: 69556 69556 4
Width: 562
Flags: W
LayerCount: 2
Fore
SplineSet
24.009765625 427.997070312 m 128,-1,1
 24.009765625 448.71826167 24.009765625 448.71826167 38.64453125 463.3515625 c 128,-1,2
 53.2788085446 477.987304688 53.2788085446 477.987304688 73.9990234375 477.987304688 c 0,3,4
 79.0513044557 477.987304688 79.0513044557 477.987304688 83.9990234375 476.983398438 c 0,5,6
 130.178197887 467.613448205 130.178197887 467.613448205 409.255859375 424.244140625 c 1,7,8
 422.444783472 481.565175072 422.444783472 481.565175072 426.549804688 509.3515625 c 0,9,10
 428.959308112 525.667786986 428.959308112 525.667786986 440.644531252 537.3515625 c 0,11,12
 455.278808545 551.987304688 455.278808545 551.987304688 475.999023438 551.987304688 c 128,-1,13
 496.720214892 551.987304688 496.720214892 551.987304688 511.354492188 537.3515625 c 128,-1,14
 525.989257812 522.71826167 525.989257812 522.71826167 525.989257812 501.997070312 c 0,15,16
 525.989257812 498.294548718 525.989257812 498.294548718 525.44921875 494.641601568 c 0,17,18
 514.481011762 420.393524483 514.481011762 420.393524483 468.488493542 247.143853285 c 128,-1,19
 422.495975321 73.8941820864 422.495975321 73.8941820864 379.249023438 -51.373046875 c 0,20,21
 375.510799049 -62.2035305863 375.510799049 -62.2035305863 367.354492188 -70.3583984375 c 0,22,23
 352.721191356 -84.9931640625 352.721191356 -84.9931640625 331.999023438 -84.9931640625 c 128,-1,24
 311.27783208 -84.9931640625 311.27783208 -84.9931640625 296.64453125 -70.3583984375 c 128,-1,25
 282.009765625 -55.7250976081 282.009765625 -55.7250976081 282.009765625 -35.0029296875 c 0,26,27
 282.009765625 -26.5703631267 282.009765625 -26.5703631267 284.75 -18.6337890625 c 0,28,29
 332.651854058 120.116018188 332.651854058 120.116018188 385.45703125 326.751953125 c 1,30,31
 113.706420689 368.92404851 113.706420689 368.92404851 64 379.009765625 c 0,32,33
 49.2903304625 381.994358655 49.2903304625 381.994358655 38.64453125 392.641601564 c 0,34,0
 24.009765625 407.274902394 24.009765625 407.274902394 24.009765625 427.997070312 c 128,-1,1
EndSplineSet
Validated: 1
Position2: "Chrs" dx=0 dy=0 dh=0 dv=0
EndChar

StartChar: u10FB5
Encoding: 69557 69557 5
Width: 641
Flags: W
LayerCount: 2
Fore
SplineSet
26.294921875 607.544921875 m 128,-1,1
 26.294921875 628.267089795 26.294921875 628.267089795 40.9296875 642.900390622 c 128,-1,2
 55.5629883309 657.53515625 55.5629883309 657.53515625 76.28515625 657.53515625 c 0,3,4
 81.4886651413 657.53515625 81.4886651413 657.53515625 86.5693359375 656.473632812 c 0,5,6
 204.085898991 631.918180052 204.085898991 631.918180052 359.8828125 588 c 0,7,8
 484.046910573 552.998771278 484.046910573 552.998771278 529.848632812 533.567382812 c 0,9,10
 548.512823885 525.650262051 548.512823885 525.650262051 562.756835938 511.40625 c 0,11,12
 593.241210938 480.921874998 593.241210938 480.921874998 593.241210938 436.51953125 c 0,13,14
 593.241210938 409.632812501 593.241210938 409.632812501 581.009765625 385.169921875 c 0,15,16
 578.762633453 380.676916429 578.762633453 380.676916429 564.100585938 348.958984375 c 0,17,18
 398.276030268 -9.78568853721 398.276030268 -9.78568853721 315.360351562 -128.9765625 c 0,19,20
 312.81463314 -132.636032731 312.81463314 -132.636032731 309.639648438 -135.809570312 c 0,21,22
 295.005371142 -150.4453125 295.005371142 -150.4453125 274.28515625 -150.4453125 c 128,-1,23
 253.563964795 -150.4453125 253.563964795 -150.4453125 238.929687497 -135.809570312 c 128,-1,24
 224.294921875 -121.176269484 224.294921875 -121.176269484 224.294921875 -100.455078125 c 0,25,26
 224.294921875 -84.7451784834 224.294921875 -84.7451784834 233.208984375 -71.93359375 c 0,27,28
 311.145542661 40.1004614196 311.145542661 40.1004614196 473.333007812 390.96875 c 0,29,30
 488.629718609 424.060071465 488.629718609 424.060071465 491.560546875 429.920898438 c 0,31,32
 493.452148438 433.705391878 493.452148438 433.705391878 493.452148438 436.627929688 c 0,33,34
 493.452148438 440.363815362 493.452148438 440.363815362 490.720703125 441.522460938 c 0,35,36
 450.72287103 458.491823087 450.72287103 458.491823087 332.631835938 491.782226562 c 0,37,38
 180.160512456 534.76208741 180.160512456 534.76208741 66 558.6171875 c 0,39,40
 51.4650755456 561.65359824 51.4650755456 561.65359824 40.9296875 572.190429689 c 0,41,0
 26.294921875 586.823730517 26.294921875 586.823730517 26.294921875 607.544921875 c 128,-1,1
EndSplineSet
Validated: 1
Position2: "Chrs" dx=0 dy=0 dh=0 dv=0
EndChar

StartChar: u10FB6
Encoding: 69558 69558 6
Width: 262
Flags: W
LayerCount: 2
Fore
SplineSet
65.009804473 530 m 0,0,1
 65.009804473 550.720482592 65.009804473 550.720482592 79.6446609406 565.355339056 c 128,-1,2
 94.2795174084 579.990195528 94.2795174084 579.990195528 115 579.990195526 c 128,-1,3
 135.720482592 579.990195527 135.720482592 579.990195527 150.355339056 565.35533906 c 0,4,5
 161.857020997 553.853657121 161.857020997 553.853657121 164.379274059 537.819334095 c 0,6,7
 190.355077474 372.687440943 190.355077474 372.687440943 190.355077474 154.624610849 c 0,8,9
 190.355077474 11.9147824438 190.355077474 11.9147824438 175.902597958 -56.4060298129 c 0,10,11
 172.84351128 -70.8671668388 172.84351128 -70.8671668388 162.35533906 -81.3553390593 c 0,12,13
 147.720482592 -95.9901955271 147.720482592 -95.9901955271 127 -95.9901955269 c 128,-1,14
 106.279517408 -95.990195527 106.279517408 -95.990195527 91.6446609437 -81.3553390594 c 128,-1,15
 77.0098044729 -66.7204825917 77.0098044729 -66.7204825917 77.0098044731 -46 c 0,16,17
 77.009804473 -40.7353405114 77.009804473 -40.7353405114 78.0974020414 -35.5939701874 c 0,18,19
 90.3534905587 22.3439028026 90.3534905587 22.3439028026 90.3534905587 159.443208485 c 0,20,21
 90.3534905587 364.95094799 90.3534905587 364.95094799 65.6207259428 522.180665905 c 0,22,23
 65.0098044729 526.064380963 65.0098044729 526.064380963 65.009804473 530 c 0,0,1
EndSplineSet
Validated: 1
Position2: "Chrs" dx=0 dy=0 dh=0 dv=0
EndChar

StartChar: u10FB7
Encoding: 69559 69559 7
Width: 407
Flags: W
LayerCount: 2
Fore
SplineSet
61.009765625 166 m 128,-1,1
 61.009765625 186.720703124 61.009765625 186.720703124 75.64453125 201.35546875 c 128,-1,2
 90.2792968743 215.990234375 90.2792968743 215.990234375 111 215.990234375 c 0,3,4
 121.377441406 215.990234375 121.377441406 215.990234375 130.856445315 211.897460936 c 0,5,6
 137.996247809 208.812246021 137.996247809 208.812246021 152.556640625 206.719726562 c 0,7,8
 165.255141115 204.89453125 165.255141115 204.89453125 179.1171875 204.89453125 c 0,9,10
 189.539832992 204.89453125 189.539832992 204.89453125 199.072265625 205.974609375 c 0,11,12
 234.558200086 209.992770398 234.558200086 209.992770398 250.025390625 225.459960938 c 0,13,14
 259.979559036 235.414129349 259.979559036 235.414129349 261.111328125 253.198242188 c 0,15,16
 261.3203125 256.470879449 261.3203125 256.470879449 261.3203125 259.6484375 c 0,17,18
 261.3203125 291.102539063 261.3203125 291.102539063 240.393554688 312.029296875 c 0,19,20
 214.178710936 338.244140625 214.178710936 338.244140625 169.450195312 338.244140625 c 0,21,22
 139.205686607 338.244140625 139.205686607 338.244140625 108.59765625 324.4296875 c 0,23,24
 98.8026288515 320.009765625 98.8026288515 320.009765625 88 320.009765625 c 0,25,26
 67.2792968743 320.009765625 67.2792968743 320.009765625 52.64453125 334.64453125 c 128,-1,27
 38.009765625 349.279296876 38.009765625 349.279296876 38.009765625 370 c 128,-1,28
 38.009765625 390.720703124 38.009765625 390.720703124 52.64453125 405.35546875 c 0,29,30
 59.1219293199 411.83286682 59.1219293199 411.83286682 67.40234375 415.5703125 c 0,31,32
 117.635906554 438.2421875 117.635906554 438.2421875 170.009765625 438.2421875 c 0,33,34
 255.602539061 438.2421875 255.602539061 438.2421875 311.104492188 382.740234375 c 0,35,36
 361.279296875 332.565429688 361.279296875 332.565429688 361.279296875 259.043945312 c 0,37,38
 361.279296875 195.292968751 361.279296875 195.292968751 320.735351562 154.749023438 c 0,39,40
 280.566358496 114.580030369 280.566358496 114.580030369 210.404296875 106.633789062 c 0,41,42
 194.824122339 104.869140625 194.824122339 104.869140625 178.88671875 104.869140625 c 0,43,44
 158.364937533 104.869140625 158.364937533 104.869140625 138.234375 107.762695312 c 0,45,46
 110.481791887 111.752236067 110.481791887 111.752236067 91.1435546875 120.102539062 c 0,47,48
 82.4191796857 123.869882814 82.4191796857 123.869882814 75.64453125 130.64453125 c 0,49,0
 61.009765625 145.279296876 61.009765625 145.279296876 61.009765625 166 c 128,-1,1
EndSplineSet
Validated: 1
Position2: "Chrs" dx=0 dy=0 dh=0 dv=0
EndChar

StartChar: u10FB8
Encoding: 69560 69560 8
Width: 255
Flags: W
LayerCount: 2
Fore
SplineSet
95.3701171875 40.333984375 m 128,-1,1
 74.650879004 40.333984375 74.650879004 40.333984375 60.0146484375 54.96875 c 128,-1,2
 45.3798828125 69.603515625 45.3798828125 69.603515625 45.3798828125 90.32421875 c 0,3,4
 45.3798828125 95.443225828 45.3798828125 95.443225828 46.4072265625 100.439453125 c 0,5,6
 65.2698188182 192.293354414 65.2698188182 192.293354414 80.4921875 294.232421875 c 0,7,8
 92.4443359375 374.259580976 92.4443359375 374.259580976 92.4443359375 397.46875 c 0,9,10
 92.4443359375 438.588229194 92.4443359375 438.588229194 68.162109375 459.077148438 c 0,11,12
 50.3798828125 474.080116111 50.3798828125 474.080116111 50.3798828125 497.32421875 c 0,13,14
 50.3798828125 518.044921874 50.3798828125 518.044921874 65.0146484375 532.6796875 c 128,-1,15
 79.6494140618 547.314453125 79.6494140618 547.314453125 100.370117188 547.314453125 c 0,16,17
 118.660644532 547.314453125 118.660644532 547.314453125 132.578125 535.572265625 c 0,18,19
 138.013577753 530.986422247 138.013577753 530.986422247 143 526 c 0,20,21
 192.418945312 476.581054688 192.418945312 476.581054688 192.418945312 397.020507812 c 0,22,23
 192.418945312 366.743649055 192.418945312 366.743649055 179.369140625 279.366210938 c 0,24,25
 163.743192189 174.725928228 163.743192189 174.725928228 144.333007812 80.208984375 c 0,26,27
 141.328224669 65.5728324456 141.328224669 65.5728324456 130.725585938 54.96875 c 0,28,0
 116.089355371 40.333984375 116.089355371 40.333984375 95.3701171875 40.333984375 c 128,-1,1
EndSplineSet
Validated: 1
Position2: "Chrs" dx=0 dy=0 dh=0 dv=0
EndChar

StartChar: u10FB9
Encoding: 69561 69561 9
Width: 840
Flags: W
LayerCount: 2
Fore
SplineSet
184 1.009765625 m 128,-1,1
 163.279296876 1.009765625 163.279296876 1.009765625 148.64453125 15.64453125 c 128,-1,2
 134.009765625 30.2792968743 134.009765625 30.2792968743 134.009765625 51 c 0,3,4
 134.009765625 53.9326171875 134.009765625 53.9326171875 134.349609375 56.8447265625 c 0,5,6
 145.092773438 148.759851552 145.092773438 148.759851552 145.092773438 329.72265625 c 0,7,8
 145.092773438 438.019818729 145.092773438 438.019818729 141.001953125 519.009765625 c 1,9,-1
 106 519.009765625 l 2,10,11
 85.2792968743 519.009765625 85.2792968743 519.009765625 70.64453125 533.64453125 c 128,-1,12
 56.009765625 548.279296876 56.009765625 548.279296876 56.009765625 569 c 128,-1,13
 56.009765625 589.720703124 56.009765625 589.720703124 70.64453125 604.35546875 c 128,-1,14
 85.2792968743 618.990234375 85.2792968743 618.990234375 106 618.990234375 c 2,15,-1
 548.797851562 618.990234375 l 1,16,17
 631.318245374 622.990234375 631.318245374 622.990234375 636 622.990234375 c 0,18,19
 682.502929687 622.990234375 682.502929687 622.990234375 710.9765625 594.516601562 c 0,20,21
 730.559735882 574.932748963 730.559735882 574.932748963 737.274985129 548.825009694 c 128,-1,22
 743.990234375 522.717270424 743.990234375 522.717270424 743.990234375 483.884765625 c 2,23,-1
 743.990234375 481 l 2,24,25
 743.990234375 478.071982374 743.990234375 478.071982374 743.65234375 475.172851562 c 0,26,27
 731.104116357 285.950475371 731.104116357 285.950475371 703.676757812 41.388671875 c 0,28,29
 701.729199505 24.0182620047 701.729199505 24.0182620047 689.35546875 11.64453125 c 0,30,31
 674.720703124 -2.990234375 674.720703124 -2.990234375 654 -2.990234375 c 128,-1,32
 633.279296876 -2.990234375 633.279296876 -2.990234375 618.64453125 11.64453125 c 128,-1,33
 604.009765625 26.2792968743 604.009765625 26.2792968743 604.009765625 47 c 0,34,35
 604.009765625 49.8149414062 604.009765625 49.8149414062 604.323242186 52.611328125 c 0,36,37
 627.538829139 259.617729947 627.538829139 259.617729947 644.010742188 482.852539062 c 0,38,39
 644.022965659 512.77210696 644.022965659 512.77210696 640.408203125 522.747070312 c 0,40,41
 638.521573158 523.009765625 638.521573158 523.009765625 636 523.009765625 c 0,42,43
 624.241665985 523.009765625 624.241665985 523.009765625 610.105972152 522.342367359 c 128,-1,44
 595.970278319 521.674969093 595.970278319 521.674969093 578.638819514 520.580484203 c 128,-1,45
 561.307360709 519.485999313 561.307360709 519.485999313 552.3671875 519.065429688 c 0,46,47
 551.185058593 519.009765624 551.185058593 519.009765624 550 519.009765627 c 2,48,-1
 241.184570312 519.009765625 l 1,49,50
 245.478515625 434.043611849 245.478515625 434.043611849 245.478515625 327.658203125 c 0,51,52
 245.478515625 146.355909037 245.478515625 146.355909037 233.650390625 45.1552734375 c 0,53,54
 231.634926216 27.9239887153 231.634926216 27.9239887153 219.35546875 15.64453125 c 0,55,0
 204.720703124 1.009765625 204.720703124 1.009765625 184 1.009765625 c 128,-1,1
EndSplineSet
Validated: 33
Position2: "Chrs" dx=0 dy=0 dh=0 dv=0
EndChar

StartChar: u10FBA
Encoding: 69562 69562 10
Width: 364
Flags: W
LayerCount: 2
Fore
SplineSet
146.009765625 521 m 0,0,1
 146.009765625 541.720703125 146.009765625 541.720703125 160.64453125 556.35546875 c 128,-1,2
 175.279296875 570.990234375 175.279296875 570.990234375 196 570.990234375 c 128,-1,3
 216.720703125 570.990234375 216.720703125 570.990234375 231.35546875 556.35546875 c 0,4,5
 241.075761218 546.635176282 241.075761218 546.635176282 244.444335938 533.373046875 c 0,6,7
 261.416830247 466.575394569 261.416830247 466.575394569 270.864931088 397.157219553 c 128,-1,8
 280.313031928 327.739044538 280.313031928 327.739044538 282.148089746 291.259772634 c 128,-1,9
 283.983147564 254.780500731 283.983147564 254.780500731 285.108398438 198.584960938 c 0,10,11
 285.188122823 194.607056466 285.188122823 194.607056466 285.638006724 178.993942805 c 128,-1,12
 286.087890625 163.380829144 286.087890625 163.380829144 286.087890625 154.927734375 c 0,13,14
 286.087890625 39.8037109372 286.087890625 39.8037109372 175.625976562 -70.658203125 c 0,15,16
 158.453922109 -87.8302575789 158.453922109 -87.8302575789 138.579101562 -104.931640625 c 0,17,18
 124.564941406 -116.990234375 124.564941406 -116.990234375 106 -116.990234375 c 0,19,20
 85.2792968743 -116.990234375 85.2792968743 -116.990234375 70.64453125 -102.35546875 c 128,-1,21
 56.009765625 -87.720703125 56.009765625 -87.720703125 56.009765625 -67 c 0,22,23
 56.009765625 -44.049886731 56.009765625 -44.049886731 73.4208984375 -29.068359375 c 0,24,25
 90.439852657 -14.4234285933 90.439852657 -14.4234285933 104.915039062 0.0517578125 c 0,26,27
 186.104492188 81.2426039112 186.104492188 81.2426039112 186.104492188 155.107421875 c 0,28,29
 186.104492188 163.061221603 186.104492188 163.061221603 185.664033066 177.934596502 c 128,-1,30
 185.223573944 192.807971401 185.223573944 192.807971401 185.1484375 196.568359375 c 0,31,32
 184.045028543 251.67955009 184.045028543 251.67955009 182.3702791 285.483212779 c 128,-1,33
 180.695529657 319.286875468 180.695529657 319.286875468 172.02002038 382.885927847 c 128,-1,34
 163.344511103 446.484980225 163.344511103 446.484980225 147.555664062 508.626953125 c 0,35,36
 146.009765625 514.710906029 146.009765625 514.710906029 146.009765625 521 c 0,0,1
EndSplineSet
Validated: 1
Position2: "Chrs" dx=0 dy=0 dh=0 dv=0
EndChar

StartChar: u10FBB
Encoding: 69563 69563 11
Width: 902
Flags: W
LayerCount: 2
Fore
SplineSet
174 -101 m 1025,0,-1
700.565429688 558.041992188 m 1,1,2
 553.685163689 520.916992188 553.685163689 520.916992188 397.159179688 520.916992188 c 0,3,4
 216.346356605 520.916992188 216.346356605 520.916992188 94.810546875 577.702148438 c 0,5,6
 86.882555622 581.406506878 86.882555622 581.406506878 80.64453125 587.64453125 c 0,7,8
 66.009765625 602.279296876 66.009765625 602.279296876 66.009765625 623 c 128,-1,9
 66.009765625 643.720703124 66.009765625 643.720703124 80.64453125 658.35546875 c 128,-1,10
 95.2792968743 672.990234375 95.2792968743 672.990234375 116 672.990234375 c 0,11,12
 127.145439213 672.990234375 127.145439213 672.990234375 137.189453122 668.297851562 c 0,13,14
 238.418817168 621.001953125 238.418817168 621.001953125 400.4609375 621.001953125 c 0,15,16
 531.876672719 621.001953125 531.876672719 621.001953125 658.625 650.75 c 0,17,18
 722.417539778 665.72352867 722.417539778 665.72352867 745.64453125 678.677734375 c 0,19,20
 756.961324587 684.990234375 756.961324587 684.990234375 770 684.990234375 c 0,21,22
 790.720703125 684.990234375 790.720703125 684.990234375 805.35546875 670.35546875 c 128,-1,23
 819.990234375 655.720703125 819.990234375 655.720703125 819.990234375 635 c 0,24,25
 819.990234375 631.068847656 819.990234375 631.068847656 819.380859375 627.188476559 c 0,26,27
 797.883205079 490.380567907 797.883205079 490.380567907 715.188476562 347.194335938 c 0,28,29
 630.870982347 201.197154222 630.870982347 201.197154222 493.439453125 63.765625 c 0,30,31
 383.640216136 -46.0336119887 383.640216136 -46.0336119887 281.71484375 -112.20703125 c 0,32,33
 241.586409841 -138.258798759 241.586409841 -138.258798759 214.834960938 -148.466796875 c 0,34,35
 195.944072357 -155.67578125 195.944072357 -155.67578125 180.068359375 -155.67578125 c 0,36,37
 156.39453125 -155.67578125 156.39453125 -155.67578125 139.984375 -139.265625 c 0,38,39
 126.809712951 -126.090962951 126.809712951 -126.090962951 124.416992188 -107.390625 c 0,40,41
 124.009765624 -104.208984375 124.009765624 -104.208984375 124.009765627 -101 c 0,42,43
 124.009765625 -80.2792968743 124.009765625 -80.2792968743 138.64453125 -65.64453125 c 128,-1,44
 153.279296876 -51.009765625 153.279296876 -51.009765625 174 -51.009765625 c 0,45,46
 179.802950304 -51.009765625 179.802950304 -51.009765625 185.448242188 -52.3291015625 c 0,47,48
 215.685896218 -38.1539140286 215.685896218 -38.1539140286 263.654296875 -3.140625 c 0,49,50
 343.107726477 54.8561614614 343.107726477 54.8561614614 422.729492188 134.4765625 c 0,51,52
 550.804291715 262.551362027 550.804291715 262.551362027 628.5625 397.192382812 c 0,53,54
 675.805849104 478.995343951 675.805849104 478.995343951 700.565429688 558.041992188 c 1,1,2
EndSplineSet
Validated: 1
Position2: "Chrs" dx=0 dy=0 dh=0 dv=0
EndChar

StartChar: u10FBC
Encoding: 69564 69564 12
Width: 760
Flags: W
LayerCount: 2
Fore
SplineSet
82.009765625 689 m 0,0,1
 82.009765625 709.720703124 82.009765625 709.720703124 96.64453125 724.35546875 c 128,-1,2
 111.279296875 738.990234375 111.279296875 738.990234375 132 738.990234375 c 0,3,4
 148.998682954 738.990234375 148.998682954 738.990234375 162.407226562 728.697265625 c 0,5,6
 267.067115388 648.360544877 267.067115388 648.360544877 316.119384172 610.072457969 c 128,-1,7
 365.171652956 571.784371061 365.171652956 571.784371061 427.275798119 519.661917031 c 128,-1,8
 489.379943283 467.539463002 489.379943283 467.539463002 529.198242188 427.720703125 c 0,9,10
 593.218334574 363.700610739 593.218334574 363.700610739 628.243238796 303.707965134 c 128,-1,11
 663.268143018 243.715319529 663.268143018 243.715319529 669.748046875 177.936523438 c 0,12,13
 671.362304688 161.544695699 671.362304688 161.544695699 671.362304688 145.936523438 c 0,14,15
 671.362304688 110.206519694 671.362304688 110.206519694 662.926757812 78.900390625 c 0,16,17
 648.126873037 23.9798217665 648.126873037 23.9798217665 608.114257812 -16.03125 c 0,18,19
 548.724878958 -75.421872585 548.724878958 -75.421872585 434.190429688 -98.9990234375 c 0,20,21
 346.785438339 -116.990234375 346.785438339 -116.990234375 190 -116.990234375 c 0,22,23
 169.279296875 -116.990234375 169.279296875 -116.990234375 154.64453125 -102.35546875 c 128,-1,24
 140.009765625 -87.7207031257 140.009765625 -87.7207031257 140.009765625 -67 c 128,-1,25
 140.009765625 -46.2792968743 140.009765625 -46.2792968743 154.64453125 -31.64453125 c 128,-1,26
 169.279296876 -17.009765625 169.279296876 -17.009765625 190 -17.009765625 c 0,27,28
 336.530625386 -17.009765625 336.530625386 -17.009765625 413.9140625 -1.08203125 c 0,29,30
 499.196644676 16.4720353011 499.196644676 16.4720353011 537.404296875 54.6796875 c 0,31,32
 571.391601562 88.666992187 571.391601562 88.666992187 571.391601562 145.830078125 c 0,33,34
 571.391601562 156.500912772 571.391601562 156.500912772 570.251953125 168.063476562 c 0,35,36
 565.885531244 212.390761135 565.885531244 212.390761135 539.672191285 257.214978343 c 128,-1,37
 513.458851325 302.03919555 513.458851325 302.03919555 458.48828125 357.009765625 c 0,38,39
 406.586773663 408.911273212 406.586773663 408.911273212 327.757857595 472.559333598 c 128,-1,40
 248.928941527 536.207393984 248.928941527 536.207393984 101.592773438 649.302734375 c 0,41,42
 82.009765625 664.334829906 82.009765625 664.334829906 82.009765625 689 c 0,0,1
EndSplineSet
Validated: 1
Position2: "Chrs" dx=0 dy=0 dh=0 dv=0
EndChar

StartChar: u10FBD
Encoding: 69565 69565 13
Width: 782
Flags: W
LayerCount: 2
Fore
SplineSet
190.009765625 609 m 0,0,1
 190.009765625 629.720703125 190.009765625 629.720703125 204.64453125 644.35546875 c 128,-1,2
 219.279296875 658.990234375 219.279296875 658.990234375 240 658.990234375 c 128,-1,3
 260.720703125 658.990234375 260.720703125 658.990234375 275.35546875 644.35546875 c 0,4,5
 289.125704101 630.585233399 289.125704101 630.585233399 289.9453125 611.119140625 c 0,6,7
 291.377058077 577.130376897 291.377058077 577.130376897 292.157226562 529.803710938 c 1,8,9
 435.980012928 528.819977945 435.980012928 528.819977945 483.979492188 527.975585938 c 0,10,11
 546.635271512 526.873186459 546.635271512 526.873186459 563.662109375 524.076171875 c 0,12,13
 617.840135522 515.176466041 617.840135522 515.176466041 649.970703125 483.045898438 c 0,14,15
 696.8359375 436.180664061 696.8359375 436.180664061 696.8359375 347.278320312 c 0,16,17
 696.8359375 334.655750872 696.8359375 334.655750872 695.854492188 321.306640625 c 0,18,19
 688.378902316 219.644466984 688.378902316 219.644466984 662.033203125 164.24609375 c 0,20,21
 647.596187328 133.887424948 647.596187328 133.887424948 617.35546875 103.64453125 c 0,22,23
 603.848102806 90.1371653051 603.848102806 90.1371653051 577.817382812 79.8466796875 c 0,24,25
 532.861155651 62.0746471039 532.861155651 62.0746471039 459.32421875 50.9619140625 c 0,26,27
 433.181464876 47.009765625 433.181464876 47.009765625 420 47.009765625 c 0,28,29
 399.279296876 47.009765625 399.279296876 47.009765625 384.64453125 61.64453125 c 128,-1,30
 370.009765625 76.2792968743 370.009765625 76.2792968743 370.009765625 97 c 128,-1,31
 370.009765625 117.720703125 370.009765625 117.720703125 384.64453125 132.35546875 c 128,-1,32
 399.279296875 146.990234375 399.279296875 146.990234375 420 146.990234375 c 0,33,34
 429.205813419 147.641704963 429.205813419 147.641704963 440.018554688 149.185546875 c 0,35,36
 463.992985753 152.607319697 463.992985753 152.607319697 489.612304688 158.270507812 c 0,37,38
 532.350228116 167.717768774 532.350228116 167.717768774 548.171875 176.032226562 c 1,39,40
 564.712564373 192.489426708 564.712564373 192.489426708 571.725585938 207.236328125 c 0,41,42
 590.047555506 245.764812702 590.047555506 245.764812702 596.145507812 328.693359375 c 0,43,44
 596.926757812 339.328302536 596.926757812 339.328302536 596.926757812 348.8203125 c 0,45,46
 596.926757812 394.670646378 596.926757812 394.670646378 579.259765625 412.334960938 c 0,47,48
 569.935130266 421.659596297 569.935130266 421.659596297 545.728515625 425.694335938 c 0,49,50
 536.6750433 427.052356555 536.6750433 427.052356555 482.20703125 428.010742188 c 0,51,52
 429.452604331 428.938989481 429.452604331 428.938989481 293.032226562 429.87109375 c 1,53,54
 293.06640625 416.309188283 293.06640625 416.309188283 293.06640625 402.833007812 c 0,55,56
 293.06640625 256.161064593 293.06640625 256.161064593 289.830560061 88.6505479077 c 128,-1,57
 286.594713871 -78.8599687774 286.594713871 -78.8599687774 283.908203125 -125.873046875 c 0,58,59
 282.821555398 -144.889382102 282.821555398 -144.889382102 269.35546875 -158.35546875 c 0,60,61
 254.720703125 -172.990234375 254.720703125 -172.990234375 234 -172.990234375 c 128,-1,62
 213.279296875 -172.990234375 213.279296875 -172.990234375 198.64453125 -158.35546875 c 128,-1,63
 184.009765625 -143.720703125 184.009765625 -143.720703125 184.009765625 -123 c 0,64,65
 184.009765625 -121.562988282 184.009765625 -121.562988282 184.091796875 -120.126953125 c 0,66,67
 186.573222165 -76.7068076863 186.573222165 -76.7068076863 189.77000952 93.3365902001 c 128,-1,68
 192.966796875 263.379988086 192.966796875 263.379988086 192.966796875 408.731445312 c 0,69,70
 192.966796875 419.500911328 192.966796875 419.500911328 192.944335938 430.532226562 c 1,71,72
 152.084416186 430.802556834 152.084416186 430.802556834 125.603515625 431.011718756 c 0,73,74
 105.117713341 431.17281287 105.117713341 431.17281287 90.64453125 445.64453125 c 128,-1,75
 76.009765625 460.279296876 76.009765625 460.279296876 76.009765625 481 c 128,-1,76
 76.009765625 501.720703124 76.009765625 501.720703124 90.64453125 516.35546875 c 128,-1,77
 105.279296875 530.990234375 105.279296875 530.990234375 126 530.990234375 c 0,78,79
 154.840757161 530.990234375 154.840757161 530.990234375 192.110351562 530.670898438 c 1,80,81
 191.384965526 575.261609917 191.384965526 575.261609917 190.0546875 606.880859375 c 0,82,83
 190.009765625 607.928553409 190.009765625 607.928553409 190.009765625 609 c 0,0,1
EndSplineSet
Validated: 1
Position2: "Chrs" dx=0 dy=0 dh=0 dv=0
EndChar

StartChar: u10FBE
Encoding: 69566 69566 14
Width: 336
Flags: W
LayerCount: 2
Fore
SplineSet
120.009765625 746 m 0,0,1
 120.009765625 766.720703125 120.009765625 766.720703125 134.64453125 781.35546875 c 128,-1,2
 149.279296875 795.990234375 149.279296875 795.990234375 170 795.990234375 c 128,-1,3
 190.720703125 795.990234375 190.720703125 795.990234375 205.35546875 781.35546875 c 0,4,5
 217.672576571 769.038360929 217.672576571 769.038360929 219.66015625 751.75390625 c 0,6,7
 231.801757812 646.219368113 231.801757812 646.219368113 231.801757812 456.333007812 c 0,8,9
 231.801757812 182.409039512 231.801757812 182.409039512 213.4296875 -26.11328125 c 0,10,11
 206.403057932 -105.869782541 206.403057932 -105.869782541 198.365234375 -136.681640625 c 0,12,13
 194.955925205 -149.755012295 194.955925205 -149.755012295 185.35546875 -159.35546875 c 0,14,15
 170.720703125 -173.990234375 170.720703125 -173.990234375 150 -173.990234375 c 128,-1,16
 129.279296875 -173.990234375 129.279296875 -173.990234375 114.64453125 -159.35546875 c 128,-1,17
 100.009765625 -144.720703125 100.009765625 -144.720703125 100.009765625 -124 c 0,18,19
 100.009765625 -117.548747109 100.009765625 -117.548747109 101.634765625 -111.318359372 c 0,20,21
 107.550072842 -88.6430150448 107.550072842 -88.6430150448 113.837890625 -17.2744140625 c 0,22,23
 131.642578125 184.817732333 131.642578125 184.817732333 131.642578125 453.206054688 c 0,24,25
 131.642578125 641.992424634 131.642578125 641.992424634 120.33984375 740.24609375 c 0,26,27
 120.009765625 743.117039936 120.009765625 743.117039936 120.009765625 746 c 0,0,1
EndSplineSet
Validated: 1
Position2: "Chrs" dx=0 dy=0 dh=0 dv=0
EndChar

StartChar: u10FBF
Encoding: 69567 69567 15
Width: 769
Flags: W
LayerCount: 2
Fore
SplineSet
120 73.009765625 m 0,0,1
 99.279296875 73.009765625 99.279296875 73.009765625 84.64453125 87.64453125 c 128,-1,2
 70.009765625 102.279296875 70.009765625 102.279296875 70.009765625 123 c 128,-1,3
 70.009765625 143.720703124 70.009765625 143.720703124 84.64453125 158.35546875 c 128,-1,4
 99.2792968743 172.990234375 99.2792968743 172.990234375 120 172.990234375 c 0,5,6
 157.305276012 172.990234375 157.305276012 172.990234375 300.254882812 177.896484375 c 0,7,8
 390.379310577 180.990234375 390.379310577 180.990234375 406 180.990234375 c 0,9,10
 493.254169567 180.990234375 493.254169567 180.990234375 550.673828125 238.408203125 c 0,11,12
 594.009765625 281.745607254 594.009765625 281.745607254 594.009765625 331 c 0,13,14
 594.009765625 367.328658245 594.009765625 367.328658245 559.513671875 401.823242188 c 0,15,16
 522.27594907 439.0625 522.27594907 439.0625 481.416015625 439.0625 c 0,17,18
 480.456835922 439.0625 480.456835922 439.0625 479.573242189 439.034179688 c 0,19,20
 401.475417965 436.593582026 401.475417965 436.593582026 367.793945312 402.912109375 c 0,21,22
 339.484223421 374.600782259 339.484223421 374.600782259 334.556640625 315.791992188 c 0,23,24
 334.597207948 298.938113283 334.597207948 298.938113283 334.0837439 291.161855416 c 128,-1,25
 333.570279851 283.385597549 333.570279851 283.385597549 330.118079017 273.670501355 c 128,-1,26
 326.665878184 263.955405161 326.665878184 263.955405161 319.35546875 256.64453125 c 0,27,28
 304.720703125 242.009765625 304.720703125 242.009765625 284 242.009765625 c 128,-1,29
 263.279296875 242.009765625 263.279296875 242.009765625 248.64453125 256.64453125 c 128,-1,30
 234.009765625 271.279296875 234.009765625 271.279296875 234.009765625 292 c 0,31,32
 234.009765625 295.880053323 234.009765625 295.880053323 234.251953125 304.064453125 c 0,33,34
 234.009765625 306.530362208 234.009765625 306.530362208 234.009765625 309 c 0,35,36
 234.009765625 310.302246093 234.009765625 310.302246093 234.077148436 311.6015625 c 0,37,38
 234.267578124 315.284179688 234.267578124 315.284179688 234.525390625 318.934570312 c 0,39,40
 234.512003675 346.851277531 234.512003675 346.851277531 232.805955537 386.196542283 c 128,-1,41
 231.099907399 425.541807035 231.099907399 425.541807035 228.674653837 462.182012404 c 128,-1,42
 226.249400275 498.822217774 226.249400275 498.822217774 223.826049287 531.188417283 c 128,-1,43
 221.4026983 563.554616792 221.4026983 563.554616792 219.706231962 584.361934279 c 128,-1,44
 218.009765625 605.169251766 218.009765625 605.169251766 218.009765625 606 c 0,45,46
 218.009765625 626.720703125 218.009765625 626.720703125 232.64453125 641.35546875 c 128,-1,47
 247.279296875 655.990234375 247.279296875 655.990234375 268 655.990234375 c 128,-1,48
 288.720703125 655.990234375 288.720703125 655.990234375 303.35546875 641.35546875 c 0,49,50
 316.186723101 628.522761091 316.186723101 628.522761091 317.791992188 610.458007812 c 0,51,52
 322.714663896 555.517475399 322.714663896 555.517475399 326.724609375 497.838867188 c 1,53,54
 384.349233255 536.087961807 384.349233255 536.087961807 476.426757812 538.965820312 c 0,55,56
 479.165105246 539.051757812 479.165105246 539.051757812 481.920898438 539.051757812 c 0,57,58
 563.708727001 539.051757812 563.708727001 539.051757812 630.224609375 472.534179688 c 0,59,60
 693.990234375 408.770263214 693.990234375 408.770263214 693.990234375 331 c 0,61,62
 693.990234375 240.304687498 693.990234375 240.304687498 621.383789062 167.698242188 c 0,63,64
 534.696950326 81.009765625 534.696950326 81.009765625 406 81.009765625 c 0,65,66
 392.135602679 81.009765625 392.135602679 81.009765625 303.7109375 77.9755859375 c 0,67,68
 159.063747034 73.009765625 159.063747034 73.009765625 120 73.009765625 c 0,0,1
EndSplineSet
Validated: 33
Position2: "Chrs" dx=0 dy=0 dh=0 dv=0
EndChar

StartChar: u10FC0
Encoding: 69568 69568 16
Width: 438
Flags: W
LayerCount: 2
Fore
SplineSet
325 342.990234375 m 128,-1,1
 345.720703125 342.990234375 345.720703125 342.990234375 360.35546875 328.35546875 c 128,-1,2
 374.990234375 313.720703125 374.990234375 313.720703125 374.990234375 293 c 0,3,4
 374.990234375 292.35200642 374.990234375 292.35200642 374.974609375 291.741210938 c 0,5,6
 373.209758322 221.152040775 373.209758322 221.152040775 358.989257812 106.672851562 c 0,7,8
 358.949386485 100.680338716 358.949386485 100.680338716 357.508789062 94.8828125 c 0,9,10
 353.906847801 66.4694101189 353.906847801 66.4694101189 345.73046875 6.26171875 c 0,11,12
 335.652848861 -67.9329587665 335.652848861 -67.9329587665 332.702148438 -95.3828125 c 0,13,14
 330.818973885 -112.891963614 330.818973885 -112.891963614 318.355468752 -125.35546875 c 0,15,16
 303.720703125 -139.990234375 303.720703125 -139.990234375 283 -139.990234375 c 128,-1,17
 262.279296875 -139.990234375 262.279296875 -139.990234375 247.64453125 -125.35546875 c 128,-1,18
 233.009765625 -110.720703125 233.009765625 -110.720703125 233.009765625 -90 c 0,19,20
 233.009765625 -87.3099091152 233.009765625 -87.3099091152 233.297851562 -84.6171875 c 0,21,22
 236.398272784 -55.7904804234 236.398272784 -55.7904804234 246.665039062 19.8095703125 c 0,23,24
 251.589406623 56.0583870798 251.589406623 56.0583870798 254.424804688 77.693359375 c 1,25,26
 201.839384346 103.229802576 201.839384346 103.229802576 168.087890625 123.5234375 c 0,27,28
 108.922941442 159.095511693 108.922941442 159.095511693 74.5576171875 197.861328125 c 0,29,30
 62.009765625 212.014648438 62.009765625 212.014648438 62.009765625 231 c 0,31,32
 62.009765625 251.720703124 62.009765625 251.720703124 76.64453125 266.35546875 c 128,-1,33
 91.2792968743 280.990234375 91.2792968743 280.990234375 112 280.990234375 c 0,34,35
 134.504192486 280.990234375 134.504192486 280.990234375 149.442382812 264.138671875 c 0,36,37
 173.553515161 236.941862249 173.553515161 236.941862249 219.588867188 209.262695312 c 0,38,39
 239.687593124 197.179244419 239.687593124 197.179244419 267.043945312 183.162109375 c 1,40,41
 273.898380881 249.16910713 273.898380881 249.16910713 275.025390625 294.258789062 c 0,42,43
 275.525057202 314.235994701 275.525057202 314.235994701 289.644531247 328.35546875 c 0,44,0
 304.279296875 342.990234375 304.279296875 342.990234375 325 342.990234375 c 128,-1,1
EndSplineSet
Validated: 1
Position2: "Chrs" dx=0 dy=0 dh=0 dv=0
EndChar

StartChar: u10FC1
Encoding: 69569 69569 17
Width: 682
Flags: W
LayerCount: 2
Fore
SplineSet
193 530.009765625 m 0,0,1
 172.279296875 530.009765625 172.279296875 530.009765625 157.64453125 544.64453125 c 128,-1,2
 143.009765625 559.279296875 143.009765625 559.279296875 143.009765625 580 c 128,-1,3
 143.009765625 600.720703125 143.009765625 600.720703125 157.64453125 615.35546875 c 0,4,5
 165.529967969 623.240905469 165.529967969 623.240905469 175.943359375 627.006835936 c 0,6,7
 229.094082167 646.231445312 229.094082167 646.231445312 283.884765625 646.231445312 c 0,8,9
 350.869512916 646.231445312 350.869512916 646.231445312 411.515174685 619.196334559 c 128,-1,10
 472.160836453 592.161223807 472.160836453 592.161223807 517.017578125 547.303710938 c 0,11,12
 561.556706964 502.766083196 561.556706964 502.766083196 583.536132812 449.7109375 c 0,13,14
 601.05859375 407.41351669 601.05859375 407.41351669 601.05859375 366.34765625 c 0,15,16
 601.05859375 363.377929688 601.05859375 363.377929688 600.96484375 360.401367188 c 0,17,18
 595.354647228 183.680819105 595.354647228 183.680819105 450.077148438 38.4033203125 c 0,19,20
 434.853578717 23.1797505917 434.853578717 23.1797505917 419.27453951 8.91208474631 c 128,-1,21
 403.695500302 -5.35558109911 403.695500302 -5.35558109911 384.270912844 -20.4678814284 c 128,-1,22
 364.846325386 -35.5801817577 364.846325386 -35.5801817577 352.46046147 -45.6132147865 c 128,-1,23
 340.074597554 -55.6462478152 340.074597554 -55.6462478152 315.960773205 -71.6718396546 c 128,-1,24
 291.846948856 -87.697431494 291.846948856 -87.697431494 283.184481425 -93.9023067575 c 128,-1,25
 274.522013993 -100.107182021 274.522013993 -100.107182021 246.249173946 -117.452540422 c 128,-1,26
 217.9763339 -134.797898823 217.9763339 -134.797898823 213.567484146 -137.581091373 c 128,-1,27
 209.158634393 -140.364283922 209.158634393 -140.364283922 177.256999842 -159.435883936 c 128,-1,28
 145.355365291 -178.50748395 145.355365291 -178.50748395 144.711914062 -178.893554688 c 0,29,30
 132.881672842 -185.990234375 132.881672842 -185.990234375 119 -185.990234375 c 0,31,32
 98.2792968743 -185.990234375 98.2792968743 -185.990234375 83.64453125 -171.35546875 c 128,-1,33
 69.009765625 -156.720703124 69.009765625 -156.720703124 69.009765625 -136 c 128,-1,34
 69.009765625 -115.279296876 69.009765625 -115.279296876 83.64453125 -100.64453125 c 0,35,36
 88.0265304712 -96.2639763265 88.0265304712 -96.2639763265 93.2880859375 -93.1064453125 c 0,37,38
 165.959917362 -49.5036368138 165.959917362 -49.5036368138 198.052876074 -29.6092860644 c 128,-1,39
 230.145834786 -9.71493531492 230.145834786 -9.71493531492 286.102071842 31.0454839809 c 128,-1,40
 342.058308899 71.8059032766 342.058308899 71.8059032766 379.366210938 109.114257812 c 0,41,42
 496.680606516 226.427042064 496.680606516 226.427042064 501.03515625 363.598632812 c 0,43,44
 501.076171875 364.893554687 501.076171875 364.893554687 501.076171875 366.21875 c 0,45,46
 501.076171875 387.435701698 501.076171875 387.435701698 491.165039062 411.360351562 c 0,47,48
 467.995419719 467.288011528 467.995419719 467.288011528 409.726842625 506.743615139 c 128,-1,49
 351.458265531 546.19921875 351.458265531 546.19921875 284.1640625 546.19921875 c 0,50,51
 246.567414352 546.19921875 246.567414352 546.19921875 210.056640625 532.993164062 c 0,52,53
 201.810919857 530.009765625 201.810919857 530.009765625 193 530.009765625 c 0,0,1
EndSplineSet
Validated: 1
Position2: "Chrs" dx=0 dy=0 dh=0 dv=0
EndChar

StartChar: u10FC2
Encoding: 69570 69570 18
Width: 674
Flags: W
LayerCount: 2
Fore
SplineSet
487.528320312 339.197265625 m 0,0,1
 487.528320312 345.356445312 487.528320312 345.356445312 487.784179687 380.044921875 c 128,-1,2
 488.040039062 414.733398437 488.040039062 414.733398437 488.040039062 420.555664062 c 0,3,4
 488.040039062 441.276367187 488.040039062 441.276367187 502.674804688 455.911132812 c 128,-1,5
 517.309570312 470.545898438 517.309570312 470.545898438 538.030273438 470.545898438 c 128,-1,6
 558.750976562 470.545898438 558.750976562 470.545898438 573.385742188 455.911132812 c 0,7,8
 587.429617968 441.867257032 587.429617968 441.867257032 588 422 c 0,9,10
 588.201825335 414.956353633 588.201825335 414.956353633 587.847494698 378.456721577 c 128,-1,11
 587.493164062 341.957089521 587.493164062 341.957089521 587.493164062 340.118164062 c 0,12,13
 587.493164062 143.654946024 587.493164062 143.654946024 513.419921875 -145.469726562 c 0,14,15
 510.038537474 -158.670958664 510.038537474 -158.670958664 500.35546875 -168.35546875 c 0,16,17
 485.720703125 -182.990234375 485.720703125 -182.990234375 465 -182.990234375 c 128,-1,18
 444.279296875 -182.990234375 444.279296875 -182.990234375 429.64453125 -168.35546875 c 128,-1,19
 415.009765625 -153.720703125 415.009765625 -153.720703125 415.009765625 -133 c 0,20,21
 415.009765625 -126.657714844 415.009765625 -126.657714844 416.580078125 -120.530273441 c 0,22,23
 465.636515538 70.9465943115 465.636515538 70.9465943115 480.291992188 207.963867188 c 1,24,25
 383.387262785 212.115090333 383.387262785 212.115090333 275.49508854 231.794012621 c 128,-1,26
 167.602914295 251.472934909 167.602914295 251.472934909 94.01171875 277.96875 c 0,27,28
 83.5589307103 281.731571033 83.5589307103 281.731571033 75.64453125 289.64453125 c 0,29,30
 61.009765625 304.279296876 61.009765625 304.279296876 61.009765625 325 c 128,-1,31
 61.009765625 345.720703124 61.009765625 345.720703124 75.64453125 360.35546875 c 128,-1,32
 90.2792968743 374.990234375 90.2792968743 374.990234375 111 374.990234375 c 0,33,34
 119.770507812 374.990234375 119.770507812 374.990234375 127.988281247 372.03125 c 0,35,36
 196.073939705 347.517879427 196.073939705 347.517879427 297.53125 329.47265625 c 0,37,38
 398.142879561 311.576391962 398.142879561 311.576391962 487.104492188 307.797851562 c 1,39,40
 487.528320312 323.490946964 487.528320312 323.490946964 487.528320312 339.197265625 c 0,0,1
EndSplineSet
Validated: 33
Position2: "Chrs" dx=0 dy=0 dh=0 dv=0
EndChar

StartChar: u10FC3
Encoding: 69571 69571 19
Width: 891
Flags: W
LayerCount: 2
Fore
SplineSet
198 741.990234375 m 128,-1,1
 218.720703125 741.990234375 218.720703125 741.990234375 233.35546875 727.35546875 c 128,-1,2
 247.990234375 712.720703125 247.990234375 712.720703125 247.990234375 692 c 0,3,4
 247.990234375 691.421386718 247.990234375 691.421386718 247.9765625 690.842773438 c 0,5,6
 244.208368534 526.912869382 244.208368534 526.912869382 240.080078125 397.624023438 c 1,7,8
 273.874668482 387.257813816 273.874668482 387.257813816 360.122070312 360.065429688 c 1,9,10
 388.158070218 434.766999893 388.158070218 434.766999893 408.614373163 519.576095678 c 128,-1,11
 429.070676109 604.385191464 429.070676109 604.385191464 434.19921875 663.362304688 c 0,12,13
 435.774991667 681.484475638 435.774991667 681.484475638 448.64453125 694.35546875 c 0,14,15
 463.279296875 708.990234375 463.279296875 708.990234375 484 708.990234375 c 128,-1,16
 504.720703125 708.990234375 504.720703125 708.990234375 519.35546875 694.35546875 c 128,-1,17
 533.990234375 679.720703125 533.990234375 679.720703125 533.990234375 659 c 0,18,19
 533.990234375 656.820077832 533.990234375 656.820077832 533.80078125 654.637695312 c 0,20,21
 520.774906554 504.84673503 520.774906554 504.84673503 455.666015625 329.939453125 c 1,22,23
 550.135845115 300.199987187 550.135845115 300.199987187 578.934570312 291.698242188 c 1,24,25
 590.297011801 295.105133072 590.297011801 295.105133072 602.008723686 304.340103924 c 128,-1,26
 613.720435572 313.575074777 613.720435572 313.575074777 617.342773438 322.994140625 c 0,27,28
 618.533250102 326.089320246 618.533250102 326.089320246 629.168211998 353.380021811 c 128,-1,29
 639.803173895 380.670723377 639.803173895 380.670723377 643.427287677 390.490013996 c 128,-1,30
 647.051401459 400.309304616 647.051401459 400.309304616 657.140967713 429.078842702 c 128,-1,31
 667.230533967 457.848380789 667.230533967 457.848380789 673.746587445 479.729090964 c 128,-1,32
 680.262640924 501.609801138 680.262640924 501.609801138 689.83735624 536.140293802 c 128,-1,33
 699.412071556 570.670786466 699.412071556 570.670786466 708.422851562 607.83984375 c 0,34,35
 711.717160365 621.428097866 711.717160365 621.428097866 721.644531251 631.35546875 c 0,36,37
 736.279296875 645.990234375 736.279296875 645.990234375 757 645.990234375 c 128,-1,38
 777.720703125 645.990234375 777.720703125 645.990234375 792.35546875 631.35546875 c 128,-1,39
 806.990234375 616.720703125 806.990234375 616.720703125 806.990234375 596 c 0,40,41
 806.990234375 589.986756195 806.990234375 589.986756195 805.577148438 584.16015625 c 0,42,43
 797.590166621 551.214033027 797.590166621 551.214033027 789.680064623 521.526606347 c 128,-1,44
 781.769962624 491.839179667 781.769962624 491.839179667 773.654557508 465.401891057 c 128,-1,45
 765.539152392 438.964602446 765.539152392 438.964602446 759.638530821 420.206846189 c 128,-1,46
 753.737909251 401.449089931 753.737909251 401.449089931 745.343691755 378.446892651 c 128,-1,47
 736.949474259 355.44469537 736.949474259 355.44469537 733.203023806 345.337227247 c 128,-1,48
 729.456573352 335.229759124 729.456573352 335.229759124 720.928234165 313.383270885 c 128,-1,49
 712.399894979 291.536782646 712.399894979 291.536782646 710.657226562 287.005859375 c 0,50,51
 700.748364978 261.241529039 700.748364978 261.241529039 678.556640625 239.049804688 c 0,52,53
 652.315296604 212.808460666 652.315296604 212.808460666 618.998046875 199.759765625 c 0,54,55
 597.173290867 191.2109375 597.173290867 191.2109375 577.620117188 191.2109375 c 0,56,57
 568.002667683 191.2109375 568.002667683 191.2109375 558.8125 193.5078125 c 0,58,59
 545.356323684 196.87205055 545.356323684 196.87205055 394.26171875 244.584960938 c 0,60,61
 281.241605656 280.276049712 281.241605656 280.276049712 236.526367188 294.119140625 c 1,62,63
 235.222555069 258.876932886 235.222555069 258.876932886 233.873046875 226.319335938 c 0,64,65
 223.494393574 -24.0382680576 223.494393574 -24.0382680576 211.20703125 -92.8427734375 c 0,66,67
 208.45541942 -108.25551808 208.45541942 -108.25551808 197.35546875 -119.35546875 c 0,68,69
 182.720703125 -133.990234375 182.720703125 -133.990234375 162 -133.990234375 c 128,-1,70
 141.279296875 -133.990234375 141.279296875 -133.990234375 126.64453125 -119.35546875 c 128,-1,71
 112.009765625 -104.720703125 112.009765625 -104.720703125 112.009765625 -84 c 0,72,73
 112.009765625 -79.537308334 112.009765625 -79.537308334 112.79296875 -75.1572265625 c 0,74,75
 123.884058707 -13.0457008688 123.884058707 -13.0457008688 133.978515625 230.4921875 c 0,76,77
 141.629471482 415.032363233 141.629471482 415.032363233 148.0234375 693.157226562 c 0,78,79
 148.483782235 713.193258206 148.483782235 713.193258206 162.64453125 727.35546875 c 0,80,0
 177.279296875 741.990234375 177.279296875 741.990234375 198 741.990234375 c 128,-1,1
EndSplineSet
Validated: 1
Position2: "Chrs" dx=0 dy=0 dh=0 dv=0
EndChar

StartChar: u10FC4
Encoding: 69572 69572 20
Width: 1119
Flags: W
LayerCount: 2
Fore
SplineSet
743.698242188 -1.5439453125 m 0,0,1
 615.280289931 -1.5439453125 615.280289931 -1.5439453125 562.055664062 88.583984375 c 1,2,3
 546.651918097 60.3926747168 546.651918097 60.3926747168 525.75390625 39.49609375 c 0,4,5
 468.268940005 -17.990234375 468.268940005 -17.990234375 371 -17.990234375 c 0,6,7
 249.897112511 -17.990234375 249.897112511 -17.990234375 182.4140625 49.494140625 c 0,8,9
 140.266558323 91.6416448023 140.266558323 91.6416448023 116.233398438 162.004882812 c 0,10,11
 88.6398079855 242.792845511 88.6398079855 242.792845511 81.0927734375 374.110351562 c 0,12,13
 81.009765625 375.544784814 81.009765625 375.544784814 81.009765625 377 c 0,14,15
 81.009765625 396.641319169 81.009765625 396.641319169 95.1721921748 411.351577054 c 128,-1,16
 109.334618725 426.06183494 109.334618725 426.06183494 128.724609375 426.938476562 c 0,17,18
 464.507886833 442.2578125 464.507886833 442.2578125 743.702148438 442.2578125 c 0,19,20
 901.782560566 442.2578125 901.782560566 442.2578125 995.42578125 435.874023438 c 0,21,22
 1014.151379 434.596206502 1014.151379 434.596206502 1027.8509569 420.357401028 c 128,-1,23
 1041.5505348 406.118595554 1041.5505348 406.118595554 1041.97753906 387.131835938 c 0,24,25
 1042.36230469 369.973648061 1042.36230469 369.973648061 1042.36230469 353.974609375 c 0,26,27
 1042.36230469 246.835064945 1042.36230469 246.835064945 1024.81301917 175.178113054 c 128,-1,28
 1007.26373365 103.521161164 1007.26373365 103.521161164 962.334960938 58.5908203125 c 0,29,30
 922.963663192 19.2204050746 922.963663192 19.2204050746 875.230647805 8.83822988105 c 128,-1,31
 827.497632417 -1.5439453125 827.497632417 -1.5439453125 743.698242188 -1.5439453125 c 0,0,1
747.80859375 342.147460938 m 0,32,33
 684.164131796 342.147460938 684.164131796 342.147460938 610.359375 341.092773438 c 1,34,35
 613.461234949 237.286955049 613.461234949 237.286955049 631.606445312 178.572265625 c 0,36,37
 643.685943964 139.485931036 643.685943964 139.485931036 662.033203125 121.138671875 c 0,38,39
 684.63671875 98.53515625 684.63671875 98.53515625 744.017578125 98.53515625 c 0,40,41
 754.669647265 98.53515625 754.669647265 98.53515625 777.263612825 99.2322401313 c 128,-1,42
 799.857578385 99.9293240125 799.857578385 99.9293240125 801.80078125 99.9755859375 c 0,43,44
 863.774049894 101.451784271 863.774049894 101.451784271 891.624023438 129.301757812 c 0,45,46
 939.871803062 177.549537437 939.871803062 177.549537437 942.239257812 338.678710938 c 1,47,48
 863.30197927 342.147460938 863.30197927 342.147460938 747.80859375 342.147460938 c 0,32,33
371 81.990234375 m 0,49,50
 426.825647357 81.990234375 426.825647357 81.990234375 455.04296875 110.206054688 c 0,51,52
 477.559925389 132.723011327 477.559925389 132.723011327 490.853515625 177.86328125 c 0,53,54
 508.53682434 237.914029467 508.53682434 237.914029467 509.899414062 339.270507812 c 1,55,56
 352.281752572 335.846387045 352.281752572 335.846387045 184.813476562 329.201171875 c 1,57,58
 200.216644277 173.115739035 200.216644277 173.115739035 253.125 120.204101562 c 0,59,60
 291.338867188 81.990234375 291.338867188 81.990234375 371 81.990234375 c 0,49,50
EndSplineSet
Validated: 1
Position2: "Chrs" dx=0 dy=0 dh=0 dv=0
EndChar

StartChar: u10FC5
Encoding: 69573 69573 21
Width: 244
Flags: W
LayerCount: 2
Fore
SplineSet
118 -77.990195527 m 128,-1,1
 97.2795174083 -77.990195527 97.2795174083 -77.990195527 82.6446609434 -63.3553390594 c 128,-1,2
 68.0098044729 -48.7204825917 68.0098044729 -48.7204825917 68.0098044731 -28 c 0,3,4
 68.009804473 -25.7952508938 68.009804473 -25.7952508938 68.2023976213 -23.5996890012 c 0,5,6
 74.8934994388 52.6788717158 74.8934994388 52.6788717158 74.8934994388 200.45346549 c 0,7,8
 74.8934994388 334.692509096 74.8934994388 334.692509096 70.1039269832 412.922192539 c 0,9,10
 70.0098044729 414.459526873 70.0098044729 414.459526873 70.0098044732 416 c 0,11,12
 70.009804473 436.720482592 70.009804473 436.720482592 84.6446609406 451.355339056 c 128,-1,13
 99.2795174084 465.990195528 99.2795174084 465.990195528 120 465.990195526 c 128,-1,14
 140.720482592 465.990195527 140.720482592 465.990195527 155.355339056 451.35533906 c 0,15,16
 168.739325344 437.971352774 168.739325344 437.971352774 169.896073019 419.077807461 c 0,17,18
 175.10654058 333.973503923 175.10654058 333.973503923 175.10654058 199.57882381 c 0,19,20
 175.10654058 50.9215844922 175.10654058 50.9215844922 167.797602379 -32.4003109988 c 0,21,22
 166.209836538 -50.5008415807 166.209836538 -50.5008415807 153.35533906 -63.3553390593 c 0,23,0
 138.720482592 -77.9901955271 138.720482592 -77.9901955271 118 -77.990195527 c 128,-1,1
EndSplineSet
Validated: 1
Position2: "Chrs" dx=0 dy=0 dh=0 dv=0
EndChar

StartChar: u10FCA
Encoding: 69578 69578 25
Width: 642
Flags: W
LayerCount: 2
Fore
SplineSet
366.803710938 340.947265625 m 1,0,1
 451.54244249 324.793599232 451.54244249 324.793599232 507.759502495 267.583635003 c 128,-1,2
 563.9765625 210.373670774 563.9765625 210.373670774 563.9765625 124.397460938 c 0,3,4
 563.9765625 67.6593950554 563.9765625 67.6593950554 539.547851562 18.5009765625 c 0,5,6
 513.074839425 -34.7687983547 513.074839425 -34.7687983547 429.431640625 -120.671875 c 0,7,8
 414.712454894 -135.790039062 414.712454894 -135.790039062 393.599609375 -135.790039062 c 0,9,10
 373.423943495 -135.790039062 373.423943495 -135.790039062 358.516659247 -120.885492495 c 128,-1,11
 343.609375 -105.980945927 343.609375 -105.980945927 343.609375 -85.7998046875 c 128,-1,12
 343.609375 -65.4682749038 343.609375 -65.4682749038 357.767578125 -50.927734375 c 0,13,14
 430.456157892 23.7265470932 430.456157892 23.7265470932 449.990234375 63.03515625 c 0,15,16
 464.0703125 91.3680047234 464.0703125 91.3680047234 464.0703125 122.361328125 c 0,17,18
 464.0703125 169.706054688 464.0703125 169.706054688 432.732421875 201.043945312 c 0,19,20
 386.655273437 247.12109375 386.655273437 247.12109375 300.657226562 247.12109375 c 0,21,22
 255.916858407 247.12109375 255.916858407 247.12109375 205.318359375 233.205078125 c 0,23,24
 198.787774237 231.41015625 198.787774237 231.41015625 192 231.41015625 c 0,25,26
 171.82433412 231.41015625 171.82433412 231.41015625 156.917049872 246.314702818 c 128,-1,27
 142.009765625 261.219249385 142.009765625 261.219249385 142.009765625 281.400390625 c 0,28,29
 142.009765625 296.029517028 142.009765625 296.029517028 150.488972116 308.736836417 c 128,-1,30
 158.968178608 321.444155807 158.968178608 321.444155807 171.662109375 327.086914062 c 0,31,32
 245.329569967 359.827861648 245.329569967 359.827861648 282.34375 396.84375 c 0,33,34
 305.992002125 420.490739134 305.992002125 420.490739134 314.126953125 445.837890625 c 0,35,36
 318.856445312 460.576758382 318.856445312 460.576758382 318.856445312 477.270507812 c 0,37,38
 318.856445312 485.589599614 318.856445312 485.589599614 317.708984375 495.092773438 c 1,39,40
 285.108139129 516.1015625 285.108139129 516.1015625 191.494140625 516.1015625 c 0,41,42
 147.307786637 516.1015625 147.307786637 516.1015625 120.100585938 510.752929688 c 0,43,44
 115.300292969 509.809570313 115.300292969 509.809570313 110.400390625 509.80957031 c 0,45,46
 90.2247247446 509.809570312 90.2247247446 509.809570312 75.3174404973 524.71411688 c 128,-1,47
 60.41015625 539.618663448 60.41015625 539.618663448 60.41015625 559.799804688 c 0,48,49
 60.41015625 577.535603089 60.41015625 577.535603089 72.1923184027 591.547056954 c 128,-1,50
 83.9744805555 605.558510819 83.9744805555 605.558510819 100.700195312 608.846679688 c 0,51,52
 138.944003264 616.36328125 138.944003264 616.36328125 189.260742188 616.36328125 c 0,53,54
 338.860351562 616.36328125 338.860351562 616.36328125 391.234375 563.989257812 c 0,55,56
 418.790039062 536.433593751 418.790039062 536.433593751 418.790039062 477.434570312 c 0,57,58
 418.790039062 401.461676954 418.790039062 401.461676954 366.803710938 340.947265625 c 1,0,1
EndSplineSet
Validated: 1
Position2: "Chrs" dx=0 dy=0 dh=0 dv=0
EndChar

StartChar: u10FCB
Encoding: 69579 69579 26
Width: 714
Flags: W
LayerCount: 2
Fore
SplineSet
131.009765625 0 m 0,0,1
 131.009765625 20.1756658804 131.009765625 20.1756658804 145.914312193 35.0829501277 c 128,-1,2
 160.81885876 49.990234375 160.81885876 49.990234375 181 49.990234375 c 0,3,4
 206.27979604 49.990234375 206.27979604 49.990234375 221.286132812 29.6240234375 c 0,5,6
 227.09320774 21.7905213231 227.09320774 21.7905213231 247.75 12.123046875 c 0,7,8
 298.322830004 -11.54296875 298.322830004 -11.54296875 364.245117188 -11.54296875 c 0,9,10
 449.731907196 -11.54296875 449.731907196 -11.54296875 489.002929688 27.7294921875 c 0,11,12
 526.8359375 65.5609598819 526.8359375 65.5609598819 526.8359375 138.852539062 c 0,13,14
 526.8359375 178.731835884 526.8359375 178.731835884 515.775460682 221.39905101 c 128,-1,15
 504.714983864 264.066266136 504.714983864 264.066266136 484.16796875 284.61328125 c 0,16,17
 462.077270701 306.703248497 462.077270701 306.703248497 419.807632194 320.004944561 c 128,-1,18
 377.537993687 333.306640625 377.537993687 333.306640625 329.858398438 333.306640625 c 0,19,20
 287.228186615 333.306640625 287.228186615 333.306640625 263.205078125 323.575195312 c 0,21,22
 260.832830835 322.215172006 260.832830835 322.215172006 254.444546228 318.219261543 c 128,-1,23
 248.056261621 314.223351079 248.056261621 314.223351079 245.440994191 313.019411719 c 128,-1,24
 242.825726761 311.815472359 242.825726761 311.815472359 236.945656724 310.370626805 c 128,-1,25
 231.065586687 308.92578125 231.065586687 308.92578125 224.059570312 308.92578125 c 0,26,27
 202.903713232 308.92578125 202.903713232 308.92578125 188.087110522 323.326509665 c 128,-1,28
 173.270507812 337.727238081 173.270507812 337.727238081 173.270507812 359.020507812 c 0,29,30
 173.270507812 370.913153089 173.270507812 370.913153089 176.37084953 379.491612583 c 128,-1,31
 179.471191248 388.070072077 179.471191248 388.070072077 187.837445618 394.712846729 c 128,-1,32
 196.203699988 401.355621381 196.203699988 401.355621381 200.285168635 403.731753516 c 128,-1,33
 204.366637281 406.10788565 204.366637281 406.10788565 216.595703125 412.216796875 c 0,34,35
 270.825617512 443.909979703 270.825617512 443.909979703 304.966796875 478.049804688 c 0,36,37
 324.932254944 498.015262756 324.932254944 498.015262756 333.047851562 514.581054688 c 0,38,39
 337.505859375 523.67989464 337.505859375 523.67989464 337.505859375 529.954101562 c 0,40,41
 337.505859375 537.91112919 337.505859375 537.91112919 327.25 548.1640625 c 0,42,43
 312.896072057 562.519136008 312.896072057 562.519136008 281.405265352 572.07841566 c 128,-1,44
 249.914458647 581.637695312 249.914458647 581.637695312 216.546875 581.637695312 c 0,45,46
 185.038447824 581.637695312 185.038447824 581.637695312 163.866210938 574.579101562 c 0,47,48
 156.156738281 572.009765626 156.156738281 572.009765626 148 572.009765623 c 0,49,50
 127.82433412 572.009765625 127.82433412 572.009765625 112.917049872 586.914312193 c 128,-1,51
 98.009765625 601.81885876 98.009765625 601.81885876 98.009765625 622 c 0,52,53
 98.009765625 681.641601562 98.009765625 681.641601562 216.979492188 681.641601562 c 0,54,55
 248.928902816 681.641601562 248.928902816 681.641601562 279.870117188 675.8046875 c 0,56,57
 355.253906728 661.582030772 355.253906728 661.582030772 397.9609375 618.875 c 0,58,59
 437.490234375 579.347587895 437.490234375 579.347587895 437.490234375 529.873046875 c 0,60,61
 437.490234375 479.207615914 437.490234375 479.207615914 394.946289062 428.2890625 c 1,62,63
 497.98897602 412.212887116 497.98897602 412.212887116 554.87890625 355.32421875 c 0,64,65
 588.000896083 322.200145642 588.000896083 322.200145642 607.448690229 262.050956173 c 128,-1,66
 626.896484375 201.901766705 626.896484375 201.901766705 626.896484375 140.03515625 c 0,67,68
 626.896484375 121.245981568 626.896484375 121.245981568 624.9296875 103.107421875 c 0,69,70
 615.096728234 12.4014157331 615.096728234 12.4014157331 559.713867188 -42.9814453125 c 0,71,72
 537.905254698 -64.7900578019 537.905254698 -64.7900578019 510.208007812 -79.298828125 c 0,73,74
 447.983598227 -111.891601562 447.983598227 -111.891601562 366.40234375 -111.891601562 c 0,75,76
 276.784158235 -111.891601562 276.784158235 -111.891601562 205.314453125 -78.447265625 c 0,77,78
 161.622170602 -57.9994874557 161.622170602 -57.9994874557 140.713867188 -29.6240234375 c 0,79,80
 131.009765625 -16.4557407138 131.009765625 -16.4557407138 131.009765625 0 c 0,0,1
364 107.009765625 m 128,-1,82
 343.82433412 107.009765625 343.82433412 107.009765625 328.917049872 121.914312193 c 128,-1,83
 314.009765625 136.81885876 314.009765625 136.81885876 314.009765625 157 c 128,-1,84
 314.009765625 177.17566588 314.009765625 177.17566588 328.914312193 192.082950128 c 128,-1,85
 343.81885876 206.990234375 343.81885876 206.990234375 364 206.990234375 c 128,-1,86
 384.17566588 206.990234375 384.17566588 206.990234375 399.082950128 192.085687807 c 128,-1,87
 413.990234375 177.18114124 413.990234375 177.18114124 413.990234375 157 c 128,-1,88
 413.990234375 136.82433412 413.990234375 136.82433412 399.085687807 121.917049872 c 128,-1,81
 384.18114124 107.009765625 384.18114124 107.009765625 364 107.009765625 c 128,-1,82
EndSplineSet
Validated: 1
Position2: "Chrs" dx=0 dy=0 dh=0 dv=0
EndChar

StartChar: uni10FC9
Encoding: 69577 69577 27
Width: 704
Flags: W
LayerCount: 2
Fore
SplineSet
74.009765625 34 m 0,0,1
 74.009765625 54.1756658804 74.009765625 54.1756658804 88.9143121926 69.0829501277 c 128,-1,2
 103.81885876 83.990234375 103.81885876 83.990234375 124 83.990234375 c 0,3,4
 127.996826172 83.990234375 127.996826172 83.990234375 139.308837891 83.8139648438 c 128,-1,5
 150.620849609 83.6376953125 150.620849609 83.6376953125 158.333984375 83.6376953125 c 0,6,7
 352.442832078 83.6376953125 352.442832078 83.6376953125 477.756835938 97.4287109375 c 0,8,9
 513.301674617 101.341317486 513.301674617 101.341317486 528.567382812 105.583007812 c 1,10,11
 523.106215455 138.93480017 523.106215455 138.93480017 494.908203125 167.1328125 c 0,12,13
 460.058271046 201.982744581 460.058271046 201.982744581 366.884765625 264.967773438 c 0,14,15
 223.343861231 362.002347632 223.343861231 362.002347632 109.388671875 407.584960938 c 0,16,17
 96.018272129 412.933977364 96.018272129 412.933977364 87.014018877 425.882435052 c 128,-1,18
 78.009765625 438.830892739 78.009765625 438.830892739 78.009765625 454 c 0,19,20
 78.009765625 474.17566588 78.009765625 474.17566588 92.9143121926 489.082950128 c 128,-1,21
 107.81885876 503.990234375 107.81885876 503.990234375 128 503.990234375 c 0,22,23
 137.674072166 503.990234375 137.674072166 503.990234375 146.611328125 500.415039062 c 0,24,25
 270.458380071 450.875960329 270.458380071 450.875960329 422.83203125 347.87109375 c 0,26,27
 523.93766963 279.524244432 523.93766963 279.524244432 565.619140625 237.842773438 c 0,28,29
 591.446195029 212.015719034 591.446195029 212.015719034 611.0859375 171.240234375 c 0,30,31
 628.995117188 134.057615252 628.995117188 134.057615252 628.995117188 102.841796875 c 0,32,33
 628.995117188 62.0468750003 628.995117188 62.0468750003 602.618164062 35.669921875 c 0,34,35
 583.877157415 16.9289152278 583.877157415 16.9289152278 559.360892665 10.0257184611 c 128,-1,36
 534.844627915 3.12252169444 534.844627915 3.12252169444 488.771484375 -1.947265625 c 0,37,38
 357.759305148 -16.3662109375 357.759305148 -16.3662109375 160.134765625 -16.3662109375 c 0,39,40
 156.576038014 -16.3662109375 156.576038014 -16.3662109375 144.698281295 -16.4951108158 c 128,-1,41
 132.820524576 -16.6240106941 132.820524576 -16.6240106941 129.902911502 -16.4848314458 c 128,-1,42
 126.985298429 -16.3456521974 126.985298429 -16.3456521974 118.799386663 -15.6028001006 c 128,-1,43
 110.613474898 -14.8599480037 110.613474898 -14.8599480037 107.086557772 -13.2582760045 c 128,-1,44
 103.559640646 -11.6566040053 103.559640646 -11.6566040053 98.3052805377 -8.70923096734 c 128,-1,45
 93.0509204294 -5.7618579294 93.0509204294 -5.7618579294 88.64453125 -1.35546875 c 0,46,47
 74.009765625 13.279296875 74.009765625 13.279296875 74.009765625 34 c 0,0,1
EndSplineSet
Validated: 33
EndChar

StartChar: DiakAfull
Encoding: 71936 71936 28
Width: 840
Flags: W
HStem: 116.069 50.9902<274.436 329.708> 281.356 50.9375<110.605 197.308> 474.541 50.9902<404.846 607.319> 654.606 50.9521<103.05 204.248>
VStem: 30.1797 50.9902<358.762 430.557> 49.624 50.9766<583.521 652.653> 196.705 50.9902<194.375 281.356> 219.687 50.9902<564.797 637.545> 498.863 50.9902<95.349 253.973> 730.79 50.9902<59.4583 181.586 314.138 354.886>
LayerCount: 2
Fore
SplineSet
730.790039062 121.028320312 m 0,0,1
 730.790039062 146.493764196 730.790039062 146.493764196 706.508789062 186.405273438 c 0,2,3
 690.174906638 213.253400579 690.174906638 213.253400579 669.634765625 236.532226562 c 0,4,5
 663.272460938 243.632869165 663.272460938 243.632869165 663.272460938 253.200195312 c 0,6,7
 663.272460938 256.19523759 663.272460938 256.19523759 663.903702096 258.847444104 c 128,-1,8
 664.534943255 261.499650618 664.534943255 261.499650618 665.15696685 263.191048734 c 128,-1,9
 665.778990446 264.882446851 665.778990446 264.882446851 667.67228391 267.276317803 c 128,-1,10
 669.565577375 269.670188755 669.565577375 269.670188755 670.433768065 270.61487686 c 128,-1,11
 671.301958755 271.559564965 671.301958755 271.559564965 674.191842287 274.354280042 c 128,-1,12
 677.081725819 277.14899512 677.081725819 277.14899512 678.041015625 278.108398438 c 0,13,14
 717.245668924 317.310066306 717.245668924 317.310066306 728.107421875 344.587890625 c 0,15,16
 731.339239312 353.310675505 731.339239312 353.310675505 731.023193359 355.787963867 c 128,-1,17
 730.707147407 358.26525223 730.707147407 358.26525223 725.795898438 366.328125 c 0,18,19
 711.803626942 389.298978797 711.803626942 389.298978797 679.611328125 413.3671875 c 1,20,21
 650.368321342 379.19326286 650.368321342 379.19326286 614.069116155 325.811132702 c 128,-1,22
 577.769910969 272.429002543 577.769910969 272.429002543 561.352539062 232.68359375 c 0,23,24
 549.853515625 204.847447668 549.853515625 204.847447668 549.853515625 187.109375 c 0,25,26
 549.853515625 144.067556314 549.853515625 144.067556314 578.043350289 79.7628888051 c 128,-1,27
 606.233184953 15.4582212964 606.233184953 15.4582212964 629.913085938 -8.2216796875 c 0,28,29
 634.662305295 -12.9708990461 634.662305295 -12.9708990461 638.83984375 -15.3173828125 c 0,30,31
 650.748890046 -12.1219741267 650.748890046 -12.1219741267 669.025390625 6.15625 c 0,32,33
 697.189046742 34.3183032689 697.189046742 34.3183032689 716.104492188 72.521484375 c 0,34,35
 730.790039062 102.181734477 730.790039062 102.181734477 730.790039062 121.028320312 c 0,0,1
723.360351562 251.536132812 m 1,36,37
 781.780273438 176.259328939 781.780273438 176.259328939 781.780273438 121.028320312 c 0,38,39
 781.780273438 90.2960124732 781.780273438 90.2960124732 761.95703125 50.080078125 c 0,40,41
 724.288095246 -26.3486001608 724.288095246 -26.3486001608 671.859375 -56.2822265625 c 0,42,43
 653.869076479 -66.552734375 653.869076479 -66.552734375 638.116210938 -66.552734375 c 0,44,45
 616.047750236 -66.552734375 616.047750236 -66.552734375 593.635742188 -44.138671875 c 0,46,47
 559.761519193 -10.265221172 559.761519193 -10.265221172 529.312400222 61.0177650856 c 128,-1,48
 498.86328125 132.300751343 498.86328125 132.300751343 498.86328125 187.109375 c 0,49,50
 498.86328125 214.995851233 498.86328125 214.995851233 514.168945312 252.1328125 c 0,51,52
 532.120656262 295.69108223 532.120656262 295.69108223 567.627930632 348.833712431 c 128,-1,53
 603.135205002 401.976342632 603.135205002 401.976342632 635.663085938 440.590820312 c 1,54,55
 569.015901821 474.541015625 569.015901821 474.541015625 497.223632812 474.541015625 c 0,56,57
 428.723398059 474.541015625 428.723398059 474.541015625 368.289272704 432.424720458 c 128,-1,58
 307.85514735 390.308425291 307.85514735 390.308425291 271.469726562 332.233398438 c 1,59,60
 334.184719647 322.946940418 334.184719647 322.946940418 375.900390625 281.229492188 c 0,61,62
 400.322265625 256.807617186 400.322265625 256.807617186 400.322265625 233.22265625 c 0,63,64
 400.322265625 216.147400656 400.322265625 216.147400656 390.5859375 192.587890625 c 0,65,66
 377.956699306 162.03023501 377.956699306 162.03023501 356.325214723 139.049785474 c 128,-1,67
 334.693730141 116.069335938 334.693730141 116.069335938 304.0625 116.069335938 c 0,68,69
 294.102539063 116.069335938 294.102539063 116.069335938 284.4609375 119.283203125 c 0,70,71
 244.817691169 132.497383299 244.817691169 132.497383299 220.761384647 175.643249178 c 128,-1,72
 196.705078125 218.789115057 196.705078125 218.789115057 196.705078125 267.946289062 c 0,73,74
 196.705078125 275.001473083 196.705078125 275.001473083 197.307617188 281.356445312 c 1,75,76
 160.733464838 282.218620806 160.733464838 282.218620806 128.462890625 291.729492188 c 0,77,78
 87.229200572 303.880839343 87.229200572 303.880839343 58.704444036 330.814866173 c 128,-1,79
 30.1796875 357.748893004 30.1796875 357.748893004 30.1796875 399.123046875 c 0,80,81
 30.1796875 430.986246309 30.1796875 430.986246309 62.3212890625 463.125976562 c 0,82,83
 82.997974329 483.80266183 82.997974329 483.80266183 131.154296875 516.208984375 c 1,84,85
 49.6240234375 549.844754438 49.6240234375 549.844754438 49.6240234375 613.489257812 c 0,86,87
 49.6240234375 654.088930822 49.6240234375 654.088930822 73.7467108228 679.823762286 c 128,-1,88
 97.8693982081 705.55859375 97.8693982081 705.55859375 137.521484375 705.55859375 c 0,89,90
 192.459562108 705.55859375 192.459562108 705.55859375 231.56815996 675.849311249 c 128,-1,91
 270.676757812 646.140028747 270.676757812 646.140028747 270.676757812 592.241210938 c 0,92,93
 270.676757812 564.111328126 270.676757812 564.111328126 242.194335938 535.62890625 c 0,94,95
 223.203979493 516.638549805 223.203979493 516.638549805 169.610961914 480.632446289 c 128,-1,96
 116.017944336 444.626342773 116.017944336 444.626342773 98.396484375 427.004882812 c 0,97,98
 81.169921875 409.77705104 81.169921875 409.77705104 81.169921875 399.123046875 c 0,99,100
 81.169921875 375.613058176 81.169921875 375.613058176 101.778736871 359.783717018 c 128,-1,101
 122.387551868 343.95437586 122.387551868 343.95437586 148.82738292 338.124160586 c 128,-1,102
 175.267213973 332.293945312 175.267213973 332.293945312 204.689453125 332.293945312 c 0,103,104
 208.90328082 332.293945312 208.90328082 332.293945312 213.134765625 332.439453125 c 0,105,106
 237.371717733 382.11444052 237.371717733 382.11444052 283.284179688 428.028320312 c 0,107,108
 380.788942066 525.53125 380.788942066 525.53125 497.266601562 525.53125 c 0,109,110
 572.330480794 525.53125 572.330480794 525.53125 636.660571133 496.674102857 c 128,-1,111
 700.990661473 467.816955715 700.990661473 467.816955715 741.821289062 426.986328125 c 0,112,113
 761.644181091 407.163436096 761.644181091 407.163436096 771.96484375 388.4296875 c 0,114,115
 781.780273438 370.615035196 781.780273438 370.615035196 781.780273438 355.388671875 c 0,116,117
 781.780273438 341.595973341 781.780273438 341.595973341 775.547851562 325.864257812 c 0,118,119
 762.508987992 292.946281226 762.508987992 292.946281226 723.360351562 251.536132812 c 1,36,37
247.6953125 267.946289062 m 0,120,121
 247.6953125 235.277385836 247.6953125 235.277385836 262.458260416 205.368706112 c 128,-1,122
 277.221208332 175.460026389 277.221208332 175.460026389 300.643554688 167.65234375 c 0,123,124
 302.420616458 167.059570312 302.420616458 167.059570312 304.0625 167.059570312 c 0,125,126
 311.208713392 167.059570312 311.208713392 167.059570312 320.979492188 176.829101562 c 0,127,128
 330.395878636 186.246282174 330.395878636 186.246282174 339.081317537 202.54181427 c 128,-1,129
 347.766756437 218.837346366 347.766756437 218.837346366 349.280273438 232.4921875 c 0,130,131
 346.995821889 237.990506236 346.995821889 237.990506236 339.560546875 245.42578125 c 0,132,133
 325.086886823 259.899441303 325.086886823 259.899441303 300.252235857 271.098598675 c 128,-1,134
 275.41758489 282.297756048 275.41758489 282.297756048 248.537109375 283.155273438 c 1,135,136
 247.6953125 278.863401135 247.6953125 278.863401135 247.6953125 267.946289062 c 0,120,121
183.217773438 552.333984375 m 1,137,138
 219.686523438 579.996019814 219.686523438 579.996019814 219.686523438 592.241210938 c 0,139,140
 219.686523438 624.431131862 219.686523438 624.431131862 196.898264406 639.518788587 c 128,-1,141
 174.110005374 654.606445312 174.110005374 654.606445312 136.982421875 654.606445312 c 0,142,143
 117.338672723 654.606445312 117.338672723 654.606445312 108.969629331 644.904403609 c 128,-1,144
 100.600585938 635.202361906 100.600585938 635.202361906 100.600585938 613.685546875 c 0,145,146
 100.600585938 597.640625 100.600585938 597.640625 110.436523438 587.8046875 c 0,147,148
 131.91188043 566.329330508 131.91188043 566.329330508 183.217773438 552.333984375 c 1,137,138
EndSplineSet
Validated: 1
EndChar

StartChar: DiakAAfull
Encoding: 71937 71937 29
Width: 1064
Flags: W
HStem: 116.069 50.9902<274.436 329.708> 281.356 50.9375<110.605 197.308> 474.541 50.9902<404.846 607.319> 654.606 50.9521<103.05 204.248>
VStem: 30.1797 50.9902<358.762 430.557> 49.624 50.9766<583.521 652.653> 196.705 50.9902<194.375 281.356> 219.687 50.9902<564.797 637.545> 498.863 50.9902<95.349 253.973> 730.79 50.9902<59.4583 181.586 314.138 354.886> 964.585 50.9902<266.909 411.328>
LayerCount: 2
Fore
SplineSet
964.584980361 361.162109375 m 0
 964.584980361 373.068923027 964.584980361 373.068923027 956.420233697 389.504324664 c 0
 933.103405206 436.440433879 933.103405206 436.440433879 876.640449598 471.48538881 c 0
 864.820331924 478.821800564 864.820331924 478.821800564 864.820331924 492.737304688 c 0
 864.820331924 503.419231554 864.820331924 503.419231554 872.445440317 511.00062169 c 0
 880.07054871 518.582011826 880.07054871 518.582011826 890.342773437 518.582011826 c 0
 897.487043432 518.582011826 897.487043432 518.582011826 903.517983665 514.838687099 c 0
 972.452493742 472.051949669 972.452493742 472.051949669 1002.15241926 412.145513889 c 0
 1015.57517589 385.071051768 1015.57517589 385.071051768 1015.57517589 361.162109375 c 0
 1015.57517589 320.168399881 1015.57517589 320.168399881 992.915882502 252.30569884 c 0
 970.256589113 184.442997799 970.256589113 184.442997799 922.08635044 102.270725781 c 0
 914.842757567 89.914081924 914.842757567 89.914081924 900.510742188 89.914081924 c 0
 889.780493105 89.914081924 889.780493105 89.914081924 882.21691642 97.521004303 c 0
 874.653339736 105.127926682 874.653339736 105.127926682 874.653339736 115.4140625 c 0
 874.653339736 122.219269594 874.653339736 122.219269594 878.072796751 128.052460967 c 0
 922.631712431 204.064728896 922.631712431 204.064728896 943.608346396 267.112283488 c 0
 964.584980361 330.15983808 964.584980361 330.15983808 964.584980361 361.162109375 c 0
EndSplineSet
Refer: 28 71936 N 1 0 0 1 0 0 2
Validated: 1
EndChar

StartChar: DiakIfull
Encoding: 71938 71938 30
Width: 656
Flags: W
HStem: -61.1299 50.9902<135.815 365.293> -11.1709 49.1309<43.1354 108.548> 144.771 50.9902<191.641 281.276> 433.005 50.9902<319.992 488.39> 633.509 50.9902<118.068 198.56>
VStem: 52.5049 50.9687<543.868 625.4> 118.36 50.9902<218.213 290.034> 284.539 50.9902<199.337 270.211> 558.505 50.9902<170.734 353.084>
LayerCount: 2
Fore
SplineSet
558.504882812 236.5 m 4,0,1
 558.504882812 276.693185182 558.504882812 276.693185182 551.044093384 310.308182161 c 128,-1,2
 543.583303955 343.92317914 543.583303955 343.92317914 527.368121145 372.373231152 c 128,-1,3
 511.152938335 400.823283164 511.152938335 400.823283164 481.710865496 416.914082988 c 128,-1,4
 452.268792657 433.004882812 452.268792657 433.004882812 412 433.004882812 c 0,5,6
 312.30638457 433.004882812 312.30638457 433.004882812 233.770507812 347.397460938 c 1,7,8
 275.796398406 329.876453156 275.796398406 329.876453156 303.647460938 302.025390625 c 0,9,10
 335.529296875 270.14176065 335.529296875 270.14176065 335.529296875 234.352539062 c 0,11,12
 335.529296875 195.769531251 335.529296875 195.769531251 311.147460938 171.387695312 c 0,13,14
 284.531504575 144.770507812 284.531504575 144.770507812 244.991210938 144.770507812 c 0,15,16
 222.208556778 144.770507812 222.208556778 144.770507812 186.375976562 161.690429688 c 0,17,18
 118.360351562 193.804263473 118.360351562 193.804263473 118.360351562 239.599609375 c 0,19,20
 118.360351562 267.83086682 118.360351562 267.83086682 148.795898438 318.536132812 c 1,21,22
 95.6763041537 339.371835742 95.6763041537 339.371835742 65.9033203125 386.260742188 c 0,23,24
 56.466796875 401.123012111 56.466796875 401.123012111 56.466796875 413.125 c 0,25,26
 56.466796875 426.471132178 56.466796875 426.471132178 72.3271484375 447.017578125 c 0,27,28
 86.9524311925 465.963908762 86.9524311925 465.963908762 126.83824813 510.443079396 c 128,-1,29
 166.724065066 554.92225003 166.724065066 554.92225003 181.625 574.7734375 c 0,30,31
 197.034228697 595.302396648 197.034228697 595.302396648 200.477539062 605.3828125 c 1,32,33
 199.675630789 617.782468785 199.675630789 617.782468785 180.521494227 625.645628923 c 128,-1,34
 161.367357664 633.508789062 161.367357664 633.508789062 143.475585938 633.508789062 c 0,35,36
 129.448242185 633.508789062 129.448242185 633.508789062 121.768554688 625.829101562 c 0,37,38
 105.217368528 609.277915404 105.217368528 609.277915404 103.473632812 567.4296875 c 0,39,40
 103.068403637 557.705757932 103.068403637 557.705757932 95.7066347822 550.594578185 c 128,-1,41
 88.3448659278 543.483398438 88.3448659278 543.483398438 78.5 543.483398438 c 0,42,43
 67.7219653648 543.483398438 67.7219653648 543.483398438 60.1134240887 550.75834506 c 128,-1,44
 52.5048828125 558.033291683 52.5048828125 558.033291683 52.5048828125 568.521484375 c 0,45,46
 52.5048828125 616.186570143 52.5048828125 616.186570143 75.8604860102 650.342796791 c 128,-1,47
 99.2160892079 684.499023438 99.2160892079 684.499023438 143.475585938 684.499023438 c 0,48,49
 198.198555275 684.499023438 198.198555275 684.499023438 231.051757812 651.647460938 c 0,50,51
 251.495117188 631.202376674 251.495117188 631.202376674 251.495117188 604.5 c 0,52,53
 251.495117188 592.200453815 251.495117188 592.200453815 243.6015625 576.645507812 c 0,54,55
 236.812911025 563.268392794 236.812911025 563.268392794 222.951171875 544.732421875 c 0,56,57
 206.404339426 522.609152548 206.404339426 522.609152548 167.659131662 479.157260046 c 128,-1,58
 128.913923899 435.705367543 128.913923899 435.705367543 116.819335938 420.8359375 c 0,59,60
 113.31797574 416.530542138 113.31797574 416.530542138 110.130859375 412.09375 c 1,61,62
 121.934952472 395.276666368 121.934952472 395.276666368 140.763108093 380.990263074 c 128,-1,63
 159.591263713 366.703859781 159.591263713 366.703859781 179.461914062 362.450195312 c 1,64,65
 277.130323249 483.995117188 277.130323249 483.995117188 412 483.995117188 c 0,66,67
 463.23951379 483.995117188 463.23951379 483.995117188 502.246848707 463.861106868 c 128,-1,68
 541.254183624 443.727096547 541.254183624 443.727096547 564.109939415 408.622782093 c 128,-1,69
 586.965695206 373.518467639 586.965695206 373.518467639 598.230406197 330.20584575 c 128,-1,70
 609.495117188 286.89322386 609.495117188 286.89322386 609.495117188 236.5 c 0,71,72
 609.495117188 210.069824218 609.495117188 210.069824218 590.505859375 165.65625 c 0,73,74
 561.02571266 96.6985642225 561.02571266 96.6985642225 508.258789062 43.931640625 c 0,75,76
 452.699125911 -11.6280225256 452.699125911 -11.6280225256 380.641601562 -37.494140625 c 0,77,78
 314.80014052 -61.1298828125 314.80014052 -61.1298828125 249.65234375 -61.1298828125 c 0,79,80
 216.930191387 -61.1298828125 216.930191387 -61.1298828125 184.715266392 -54.911655473 c 128,-1,81
 152.500341398 -48.6934281335 152.500341398 -48.6934281335 137.635275207 -43.7485709147 c 128,-1,82
 122.770209017 -38.8037136958 122.770209017 -38.8037136958 92.1082475414 -25.5754233109 c 128,-1,83
 61.4462860662 -12.347132926 61.4462860662 -12.347132926 58.5068359375 -11.1708984375 c 0,84,85
 42.818359375 -4.8955078125 42.818359375 -4.8955078125 42.818359375 12.0361328125 c 0,86,87
 42.818359375 22.9819721457 42.818359375 22.9819721457 50.3093268955 30.4709665416 c 128,-1,88
 57.800294416 37.9599609375 57.800294416 37.9599609375 68.185546875 37.9599609375 c 0,89,90
 74.2020034868 37.9599609375 74.2020034868 37.9599609375 95.349609375 28.3271484375 c 0,91,92
 179.788613164 -10.1396484375 179.788613164 -10.1396484375 249.65234375 -10.1396484375 c 0,93,94
 305.878583542 -10.1396484375 305.878583542 -10.1396484375 363.359375 10.494140625 c 0,95,96
 424.676512076 32.5062783207 424.676512076 32.5062783207 472.139648438 79.9677734375 c 0,97,98
 517.922625857 125.752043906 517.922625857 125.752043906 543.583984375 185.712890625 c 0,99,100
 558.504882812 220.574676677 558.504882812 220.574676677 558.504882812 236.5 c 4,0,1
244.991210938 195.760742188 m 4,101,102
 261.510970126 195.760742188 261.510970126 195.760742188 273.025016313 205.709229431 c 128,-1,103
 284.5390625 215.657716674 284.5390625 215.657716674 284.5390625 234.352539062 c 0,104,105
 284.5390625 248.936523437 284.5390625 248.936523437 267.577148438 265.8984375 c 0,106,107
 242.939181975 290.536403963 242.939181975 290.536403963 200.729492188 305.181640625 c 1,108,109
 186.583344423 283.886749059 186.583344423 283.886749059 177.631835938 264.02734375 c 0,110,111
 169.350585938 245.654995763 169.350585938 245.654995763 169.350585938 239.599609375 c 0,112,113
 169.350585938 235.619018109 169.350585938 235.619018109 176.280273438 228.690429688 c 0,114,115
 185.086436031 219.883040951 185.086436031 219.883040951 209.365867581 207.821891569 c 128,-1,116
 233.645299131 195.760742188 233.645299131 195.760742188 244.991210938 195.760742188 c 4,101,102
EndSplineSet
Validated: 1
EndChar

StartChar: DiakIIfull
Encoding: 71939 71939 31
Width: 908
Flags: W
HStem: -158.995 49.9902<347.212 496.576> -61.1299 50.9902<135.815 365.293> -11.1709 49.1309<43.1354 108.548> 144.771 50.9902<191.641 281.276> 154.771 49.9451<695.422 760.676> 285.061 50.0083<699.848 768.036> 384.499 50.0944<604.826 757.639> 433.005 50.9902<319.992 488.39> 633.509 50.9902<118.068 198.56>
VStem: 52.5049 50.9687<543.868 625.4> 118.36 50.9902<218.213 290.034> 284.539 50.9902<199.337 270.211> 558.505 50.9902<170.734 353.084> 641.005 49.9902<209.223 277.921> 804.557 49.9439<109.391 198.435>
LayerCount: 2
Fore
SplineSet
774.219479997 257.046522082 m 0
 772.681560826 258.709177456 772.681560826 258.709177456 771.072526601 260.318211682 c 0
 747.285139601 284.105598682 747.285139601 284.105598682 727.675062416 285.060670168 c 0
 715.238713723 284.231580255 715.238713723 284.231580255 703.116905743 268.40550392 c 0
 690.995097764 252.579427584 690.995097764 252.579427584 690.995097764 240 c 0
 690.995097764 227.500861115 690.995097764 227.500861115 703.103480226 216.108244929 c 0
 715.211862687 204.715628742 715.211862687 204.715628742 729.12037587 204.715628742 c 0
 742.003383881 204.715628742 742.003383881 204.715628742 750.946018849 213.65826371 c 0
 765.631602871 228.343847638 765.631602871 228.343847638 774.219479997 257.046522082 c 0
545.004902236 374 m 0
 545.004902236 389.03576412 545.004902236 389.03576412 558.268134151 396.081856073 c 0
 630.760241447 434.593288074 630.760241447 434.593288074 693.028842355 434.593288074 c 0
 756.978377436 434.593288074 756.978377436 434.593288074 797.554573877 394.017091633 c 0
 830.972421007 360.599244502 830.972421007 360.599244502 830.972421007 302.959040155 c 0
 830.972421007 285.852859066 830.972421007 285.852859066 828.375386782 269.206387268 c 1
 854.500938342 228.181984465 854.500938342 228.181984465 854.500938342 175.22720681 c 0
 854.500938342 162.23582319 854.500938342 162.23582319 852.793765748 148.822324242 c 0
 845.550513448 91.9110561625 845.550513448 91.9110561625 778.496248467 24.8567911813 c 0
 694.162982984 -59.4764743017 694.162982984 -59.4764743017 570.578053048 -112.882249384 c 0
 463.86949714 -158.995097764 463.86949714 -158.995097764 372 -158.995097764 c 0
 361.909555506 -158.995097764 361.909555506 -158.995097764 354.457228871 -151.54140186 c 0
 347.004902236 -144.087705957 347.004902236 -144.087705957 347.004902236 -134 c 0
 347.004902236 -123.909555506 347.004902236 -123.909555506 354.45859814 -116.457228871 c 0
 361.912294043 -109.004902236 361.912294043 -109.004902236 372 -109.004902236 c 0
 453.484454894 -109.004902236 453.484454894 -109.004902236 550.709735226 -66.990139947 c 0
 665.577313023 -17.3514661437 665.577313023 -17.3514661437 743.140909408 60.2121302406 c 0
 798.116618737 115.187839569 798.116618737 115.187839569 803.206234252 155.177675758 c 0
 804.55708309 165.791488058 804.55708309 165.791488058 804.55708309 175.842686844 c 0
 804.5570831 187.721941853 804.5570831 187.721941853 802.671137177 198.769808023 c 1
 795.193930247 187.195496988 795.193930247 187.195496988 786.301357908 178.302924651 c 0
 762.769003156 154.770569899 762.769003156 154.770569899 729.468553391 154.770569899 c 0
 693.976577923 154.770569899 693.976577923 154.770569899 667.49074008 180.25692653 c 0
 641.004902236 205.743283161 641.004902236 205.743283161 641.004902236 240 c 0
 641.004902236 278.25790198 641.004902236 278.25790198 671.7208897 308.973889444 c 0
 697.815945602 335.068945346 697.815945602 335.068945346 728.226956761 335.068945346 c 0
 742.545949611 335.068945346 742.545949611 335.068945346 760.367704801 327.437714083 c 0
 770.530103919 323.086200046 770.530103919 323.086200046 780.020193593 317.194829826 c 1
 775.695849409 350.507396458 775.695849409 350.507396458 752.915220887 367.503131515 c 0
 730.134592364 384.498866572 730.134592364 384.498866572 694.345260083 384.498866572 c 0
 643.060284948 384.498866572 643.060284948 384.498866572 581.731865849 351.918143927 c 0
 576.248116786 349.004902237 576.248116786 349.004902237 570 349.004902235 c 0
 559.909555506 349.004902236 559.909555506 349.004902236 552.457228871 356.45859814 c 0
 545.004902236 363.912294043 545.004902236 363.912294043 545.004902236 374 c 0
EndSplineSet
Refer: 30 71938 N 1 0 0 1 0 0 2
Validated: 5
EndChar

StartChar: DiakUfull
Encoding: 71940 71940 32
Width: 898
Flags: W
HStem: -27.0742 50.9912<360.49 614.23> 418.801 50.9883<116.245 225.794> 575.005 50.9902<296.839 384.838>
VStem: 46.5049 50.9902<488.284 599.288> 244.767 50.9902<495.235 565.166> 260.481 50.9902<73.5959 270.617> 393.55 50.9902<446.951 567.296> 790.162 50.9902<202.253 365.698>
LayerCount: 2
Fore
SplineSet
97.4951171875 574.5 m 4,0,1
 97.4951171875 525.749022582 97.4951171875 525.749022582 111.194441828 497.769042541 c 128,-1,2
 124.893766469 469.7890625 124.893766469 469.7890625 163.778320312 469.7890625 c 0,3,4
 204.514648439 469.7890625 204.514648439 469.7890625 229.438476562 494.712890625 c 0,5,6
 244.766601562 510.041015625 244.766601562 510.041015625 244.766601562 523.931640625 c 0,7,8
 244.766601562 527.382446289 244.766601562 527.382446289 243.958984375 535.215209961 c 128,-1,9
 243.151367188 543.047973633 243.151367188 543.047973633 243.151367188 547.678710938 c 0,10,11
 243.151367188 581.551553078 243.151367188 581.551553078 262.912109375 601.313476562 c 0,12,13
 287.59375 625.995117188 287.59375 625.995117188 342 625.995117188 c 0,14,15
 386.655685151 625.995117188 386.655685151 625.995117188 413.325195312 599.327148438 c 0,16,17
 444.540039062 568.112304688 444.540039062 568.112304688 444.540039062 506.53125 c 0,18,19
 444.540039062 472.729042754 444.540039062 472.729042754 431.129882812 446.877929688 c 0,20,21
 421.755014039 428.805641064 421.755014039 428.805641064 385.9161052 370.475253514 c 128,-1,22
 350.077196362 312.144865963 350.077196362 312.144865963 334.788085938 275.092773438 c 0,23,24
 311.471679688 218.590043911 311.471679688 218.590043911 311.471679688 171.641601562 c 0,25,26
 311.471679688 91.0466417642 311.471679688 91.0466417642 346.6640625 55.8525390625 c 0,27,28
 378.601024143 23.9169921875 378.601024143 23.9169921875 450.328125 23.9169921875 c 0,29,30
 457.044643371 23.9169921875 457.044643371 23.9169921875 470.053317739 24.1016387822 c 128,-1,31
 483.061992107 24.2862853769 483.061992107 24.2862853769 488.287109375 24.314453125 c 0,32,33
 565.391199311 24.7291703467 565.391199311 24.7291703467 600.6484375 38.9765625 c 0,34,35
 647.299607468 57.8289043436 647.299607468 57.8289043436 703.405273438 113.934570312 c 0,36,37
 790.162109375 200.691406252 790.162109375 200.691406252 790.162109375 283.232421875 c 0,38,39
 790.162109375 319.624009264 790.162109375 319.624009264 772.182617188 349.291015625 c 0,40,41
 768.577148438 355.240551827 768.577148438 355.240551827 768.577148438 362.241210938 c 0,42,43
 768.577148438 372.431452262 768.577148438 372.431452262 776.167200675 380.092679256 c 128,-1,44
 783.757252912 387.75390625 783.757252912 387.75390625 794.427734375 387.75390625 c 0,45,46
 808.51743016 387.75390625 808.51743016 387.75390625 815.817382812 375.708984375 c 0,47,48
 841.15234375 333.905151757 841.15234375 333.905151757 841.15234375 283.232421875 c 0,49,50
 841.15234375 179.557179251 841.15234375 179.557179251 739.469726562 77.8759765625 c 0,51,52
 676.017852847 14.4241028471 676.017852847 14.4241028471 619.705078125 -8.302734375 c 0,53,54
 598.653124632 -16.7990569079 598.653124632 -16.7990569079 574.094679878 -21.0355287069 c 128,-1,55
 549.536235123 -25.2720005059 549.536235123 -25.2720005059 534.168340956 -25.8922056681 c 128,-1,56
 518.800446789 -26.5124108303 518.800446789 -26.5124108303 488.564453125 -26.67578125 c 2,57,-1
 488.344726562 -26.67578125 l 2,58,59
 483.300419772 -26.7029251384 483.300419772 -26.7029251384 470.25334072 -26.8885719442 c 128,-1,60
 457.206261669 -27.07421875 457.206261669 -27.07421875 450.20703125 -27.07421875 c 0,61,62
 357.340820312 -27.07421875 357.340820312 -27.07421875 310.530273438 19.736328125 c 0,63,64
 260.481445312 69.785156251 260.481445312 69.785156251 260.481445312 171.7109375 c 0,65,66
 260.481445312 216.147425438 260.481445312 216.147425438 274.976752158 261.834696321 c 128,-1,67
 289.472059004 307.521967203 289.472059004 307.521967203 306.311701441 337.067706453 c 128,-1,68
 323.151343879 366.613445703 323.151343879 366.613445703 349.151058259 408.240557059 c 128,-1,69
 375.15077264 449.867668414 375.15077264 449.867668414 385.712890625 470.16796875 c 0,70,71
 387.830787369 474.23731733 387.830787369 474.23731733 389.062575811 476.630480336 c 128,-1,72
 390.294364252 479.023643342 390.294364252 479.023643342 391.284068859 481.866784958 c 128,-1,73
 392.273773466 484.709926573 392.273773466 484.709926573 392.680366517 485.729404258 c 128,-1,74
 393.086959568 486.748881944 393.086959568 486.748881944 393.354169222 489.819890745 c 128,-1,75
 393.621378876 492.890899546 393.621378876 492.890899546 393.621826809 493.874164003 c 128,-1,76
 393.622274742 494.857428461 393.622274742 494.857428461 393.586039715 499.49377654 c 128,-1,77
 393.549804688 504.13012462 393.549804688 504.13012462 393.549804688 506.53125 c 0,78,79
 393.549804688 540.359610302 393.549804688 540.359610302 382.508989948 557.682246557 c 128,-1,80
 371.468175208 575.004882812 371.468175208 575.004882812 342 575.004882812 c 0,81,82
 308.646493483 575.004882812 308.646493483 575.004882812 298.944335938 565.299804688 c 0,83,84
 294.141601562 560.498727571 294.141601562 560.498727571 294.141601562 547.678710938 c 0,85,86
 294.141601562 544.254272461 294.141601562 544.254272461 294.94921875 536.409790039 c 128,-1,87
 295.756835938 528.565307617 295.756835938 528.565307617 295.756835938 523.931640625 c 0,88,89
 295.756835938 488.886718749 295.756835938 488.886718749 265.520507812 458.650390625 c 0,90,91
 225.670898439 418.80078125 225.670898439 418.80078125 163.709960938 418.80078125 c 128,-1,92
 101.869817269 418.80078125 101.869817269 418.80078125 74.187350041 461.815458248 c 128,-1,93
 46.5048828125 504.830135246 46.5048828125 504.830135246 46.5048828125 574.5 c 0,94,95
 46.5048828125 584.587765597 46.5048828125 584.587765597 53.9571882605 592.041441392 c 128,-1,96
 61.4094937086 599.495117188 61.4094937086 599.495117188 71.5 599.495117188 c 0,97,98
 82.5877655963 599.495117188 82.5877655963 599.495117188 90.0414413919 592.04281174 c 128,-1,99
 97.4951171875 584.590506292 97.4951171875 584.590506292 97.4951171875 574.5 c 4,0,1
EndSplineSet
Validated: 33
EndChar

StartChar: DiakUUfull
Encoding: 71941 71941 33
Width: 1022
Flags: W
HStem: -27.5381 50.9902<382.182 625.031> 135.202 75.7773<791.98 943.876> 357.023 50.9902<680.687 757.567> 403.822 50.9824<115.679 219.441> 566.005 50.9902<290.839 369.105>
VStem: 40.5049 50.9902<480.84 590.288> 238.805 50.9902<473.639 556.166> 254.481 50.9902<88.0035 251.787> 385.69 50.9902<415.389 551.431> 607.946 50.9902<228.672 339.286> 777.378 50.707<189.74 338.598>
LayerCount: 2
Fore
SplineSet
163.147460938 454.8046875 m 0,0,1
 192.712459304 454.8046875 192.712459304 454.8046875 215.758573402 472.692798728 c 128,-1,2
 238.8046875 490.580909956 238.8046875 490.580909956 238.8046875 514.215820312 c 0,3,4
 238.8046875 517.800415038 238.8046875 517.800415038 237.978027344 525.86315918 c 128,-1,5
 237.151367188 533.925903321 237.151367188 533.925903321 237.151367188 538.678710938 c 0,6,7
 237.151367188 572.551553078 237.151367188 572.551553078 256.912109375 592.313476562 c 0,8,9
 281.59375 616.995117188 281.59375 616.995117188 336 616.995117188 c 0,10,11
 364.038388881 616.995117188 364.038388881 616.995117188 384.53639184 602.993969179 c 128,-1,12
 405.034394799 588.992821169 405.034394799 588.992821169 415.914886847 565.021396422 c 128,-1,13
 426.795378894 541.049971676 426.795378894 541.049971676 431.738021478 514.408489442 c 128,-1,14
 436.680664062 487.767007208 436.680664062 487.767007208 436.680664062 457.383789062 c 0,15,16
 436.680664062 445.787135465 436.680664062 445.787135465 435.896592844 436.286191832 c 128,-1,17
 435.112521627 426.785248199 435.112521627 426.785248199 431.784540992 417.288610577 c 128,-1,18
 428.456560358 407.791972955 428.456560358 407.791972955 427.302392999 403.056953039 c 128,-1,19
 426.148225641 398.321933123 426.148225641 398.321933123 419.617369436 388.671383217 c 128,-1,20
 413.086513232 379.020833312 413.086513232 379.020833312 412.073399058 377.303525105 c 128,-1,21
 411.060284884 375.586216898 411.060284884 375.586216898 401.837702436 364.033542702 c 128,-1,22
 392.615119987 352.480868506 392.615119987 352.480868506 391.868164062 351.52734375 c 0,23,24
 365.947191765 318.436141896 365.947191765 318.436141896 350.899476978 296.254047256 c 128,-1,25
 335.85176219 274.071952616 335.85176219 274.071952616 320.661720939 236.13853087 c 128,-1,26
 305.471679688 198.205109124 305.471679688 198.205109124 305.471679688 162.654296875 c 0,27,28
 305.471679688 69.9396098974 305.471679688 69.9396098974 400.241210938 37.5732421875 c 0,29,30
 437.070351833 24.9951171875 437.070351833 24.9951171875 474 24.9951171875 c 0,31,32
 486.662109375 24.9951171875 486.662109375 24.9951171875 509.684082031 24.2236328125 c 128,-1,33
 532.706054688 23.4521484375 532.706054688 23.4521484375 544.64453125 23.4521484375 c 0,34,35
 578.623004923 23.4521484375 578.623004923 23.4521484375 601.528320312 32.576171875 c 0,36,37
 640.60932873 48.1415552918 640.60932873 48.1415552918 697.063476562 104.595703125 c 0,38,39
 716.135710611 123.667937173 716.135710611 123.667937173 730.807617188 143.145507812 c 1,40,41
 678.463272661 158.184188276 678.463272661 158.184188276 640.306640625 196.340820312 c 0,42,43
 607.946289062 228.701171875 607.946289062 228.701171875 607.946289062 276.333984375 c 0,44,45
 607.946289062 307.105032712 607.946289062 307.105032712 619.993034419 336.174146252 c 128,-1,46
 632.039779776 365.243259792 632.039779776 365.243259792 648.955078125 380.466796875 c 0,47,48
 679.560930489 408.013671875 679.560930489 408.013671875 719.927734375 408.013671875 c 0,49,50
 759.899983232 408.013671875 759.899983232 408.013671875 791.012695312 376.90234375 c 0,51,52
 809.090804268 358.823549939 809.090804268 358.823549939 818.587882603 327.323669973 c 128,-1,53
 828.084960938 295.823790007 828.084960938 295.823790007 828.084960938 265.577148438 c 0,54,55
 828.084960938 226.491510619 828.084960938 226.491510619 813.34765625 187.03515625 c 1,56,57
 861.104366485 190.593899762 861.104366485 190.593899762 937.643554688 210.1953125 c 0,58,59
 940.708451371 210.979492188 940.708451371 210.979492188 943.875976562 210.979492188 c 0,60,61
 954.228482704 210.979492188 954.228482704 210.979492188 961.673811665 203.448868414 c 128,-1,62
 969.119140625 195.918244641 969.119140625 195.918244641 969.119140625 185.015625 c 0,63,64
 969.119140625 176.532145104 969.119140625 176.532145104 963.666111819 169.67468149 c 128,-1,65
 958.213083013 162.817217876 958.213083013 162.817217876 950.356445312 160.8046875 c 0,66,67
 850.38669883 135.202148438 850.38669883 135.202148438 791.98046875 135.202148438 c 0,68,69
 789.642578125 135.202148438 789.642578125 135.202148438 787.340820312 135.239257812 c 0,70,71
 764.646379218 99.4296499061 764.646379218 99.4296499061 729.85546875 65.294921875 c 0,72,73
 667.268241651 3.888453715 667.268241651 3.888453715 620.434570312 -14.7724609375 c 0,74,75
 588.396081852 -27.5380859375 588.396081852 -27.5380859375 544.64453125 -27.5380859375 c 0,76,77
 532.317504883 -27.5380859375 532.317504883 -27.5380859375 509.307983398 -26.7666015625 c 128,-1,78
 486.298461914 -25.9951171875 486.298461914 -25.9951171875 474 -25.9951171875 c 0,79,80
 426.127631112 -25.9951171875 426.127631112 -25.9951171875 379.104579234 -8.62975539231 c 128,-1,81
 332.081527355 8.73560640288 332.081527355 8.73560640288 303.271484375 37.544921875 c 0,82,83
 254.481445312 86.3349609388 254.481445312 86.3349609388 254.481445312 162.654296875 c 0,84,85
 254.481445312 197.237620996 254.481445312 197.237620996 263.13796481 229.732406664 c 128,-1,86
 271.794484307 262.227192332 271.794484307 262.227192332 289.945058261 293.152664137 c 128,-1,87
 308.095632215 324.078135942 308.095632215 324.078135942 319.236017789 339.906967211 c 128,-1,88
 330.376403362 355.735798479 330.376403362 355.735798479 351.68359375 382.9375 c 0,89,90
 379.921608519 420.011900341 379.921608519 420.011900341 384.610351562 431.825195312 c 0,91,92
 385.690429688 443.711289316 385.690429688 443.711289316 385.690429688 457.383789062 c 0,93,94
 385.690429688 566.004882812 385.690429688 566.004882812 336 566.004882812 c 0,95,96
 302.646493483 566.004882812 302.646493483 566.004882812 292.944335938 556.299804688 c 0,97,98
 288.141601562 551.498727571 288.141601562 551.498727571 288.141601562 538.678710938 c 0,99,100
 288.141601562 535.125244141 288.141601562 535.125244141 288.968261719 527.050048828 c 128,-1,101
 289.794921875 518.974853515 289.794921875 518.974853515 289.794921875 514.215820312 c 0,102,103
 289.794921875 468.667516508 289.794921875 468.667516508 251.852786716 436.244891066 c 128,-1,104
 213.910651557 403.822265625 213.910651557 403.822265625 162.91015625 403.822265625 c 0,105,106
 101.04765979 403.822265625 101.04765979 403.822265625 70.7762713013 450.099452084 c 128,-1,107
 40.5048828125 496.376638542 40.5048828125 496.376638542 40.5048828125 565.5 c 0,108,109
 40.5048828125 575.587916219 40.5048828125 575.587916219 47.9572881073 583.041516703 c 128,-1,110
 55.409693402 590.495117188 55.409693402 590.495117188 65.5 590.495117188 c 0,111,112
 76.5879162189 590.495117188 76.5879162189 590.495117188 84.0415167032 583.042711893 c 128,-1,113
 91.4951171875 575.590306598 91.4951171875 575.590306598 91.4951171875 565.5 c 0,114,115
 91.4951171875 517.882252061 91.4951171875 517.882252061 107.874818569 486.34346978 c 128,-1,116
 124.25451995 454.8046875 124.25451995 454.8046875 163.147460938 454.8046875 c 0,0,1
658.936523438 276.333984375 m 0,117,118
 658.936523438 245.957266713 658.936523438 245.957266713 681.98828125 227.3671875 c 0,119,120
 721.971969449 195.121747477 721.971969449 195.121747477 758.814453125 188.813476562 c 1,121,122
 777.377929688 227.849403097 777.377929688 227.849403097 777.377929688 265.321289062 c 0,123,124
 777.377929688 304.219561833 777.377929688 304.219561833 757.374023438 338.30859375 c 1,125,126
 740.191630022 357.0234375 740.191630022 357.0234375 719.927734375 357.0234375 c 0,127,128
 697.521484375 357.0234375 697.521484375 357.0234375 682.708984375 342.2109375 c 0,129,130
 675.232936288 334.734889413 675.232936288 334.734889413 667.084729863 313.683634502 c 128,-1,131
 658.936523438 292.63237959 658.936523438 292.63237959 658.936523438 276.333984375 c 0,117,118
EndSplineSet
Validated: 1
EndChar

StartChar: DiakEfull
Encoding: 71942 71942 34
Width: 982
Flags: W
HStem: -29.1445 50.9902<199.447 351.905> -17.4277 50.9902<646.866 765.066> 204.444 50.9902<208.059 347.658> 400.592 50.9902<123.201 266.477> 571.998 50.9902<391.55 480.853>
VStem: 45.7969 51.206<479.328 604.715> 114.079 50.9902<57.7106 166.244> 537.392 50.9902<245.316 501.047> 884.041 50.9902<153.554 359.493>
LayerCount: 2
Fore
SplineSet
71.0078125 605.098613389 m 0,0,1
 81.7658201555 605.098613389 81.7658201555 605.098613389 89.3843652095 597.827282611 c 128,-1,2
 97.0029102635 590.555951834 97.0029102635 590.555951834 97.0029102635 580.0703125 c 0,3,4
 97.0029102635 577.966412322 97.0029102635 577.966412322 96.8950001072 573.658981968 c 128,-1,5
 96.787089951 569.351551614 96.787089951 569.351551614 96.787089951 567.124023438 c 0,6,7
 96.787089951 512.373546678 96.787089951 512.373546678 115.71172419 481.977779252 c 128,-1,8
 134.636358428 451.582011826 134.636358428 451.582011826 183.5078125 451.582011826 c 0,9,10
 231.39092222 451.582011826 231.39092222 451.582011826 269.977892836 474.793339342 c 128,-1,11
 308.564863451 498.004666858 308.564863451 498.004666858 328.262228958 532.208483491 c 0,12,13
 333.468279184 541.248615649 333.468279184 541.248615649 334.402890117 546.544386284 c 0,14,15
 338.437446406 569.410916589 338.437446406 569.410916589 358.578628472 589.552098655 c 0,16,17
 392.014791643 622.988261826 392.014791643 622.988261826 436.954101562 622.988261826 c 0,18,19
 480.331877525 622.988261826 480.331877525 622.988261826 522.034116891 581.286022458 c 0,20,21
 588.381816514 514.938322837 588.381816514 514.938322837 588.381816514 382.86328125 c 0,22,23
 588.381816514 245.355947239 588.381816514 245.355947239 518.357855757 131.0271841 c 1,24,25
 590.828699571 84.4755255725 590.828699571 84.4755255725 637.176230065 60.3235833196 c 0,26,27
 665.897781649 45.3566315128 665.897781649 45.3566315128 685.133436701 38.5888507431 c 0,28,29
 699.419585438 33.562480576 699.419585438 33.562480576 706.305664062 33.562480576 c 0,30,31
 723.076913667 33.562480576 723.076913667 33.562480576 750.734161766 47.1236808841 c 0,32,33
 799.194839308 70.8854431842 799.194839308 70.8854431842 838.838420987 118.332267144 c 128,-1,34
 878.482002666 165.779091104 878.482002666 165.779091104 882.073406449 217.855325125 c 0,35,36
 884.041035049 246.373950701 884.041035049 246.373950701 884.041035049 267.33984375 c 0,37,38
 884.041035049 308.871083465 884.041035049 308.871083465 877.814322175 327.189251574 c 128,-1,39
 871.5876093 345.507419683 871.5876093 345.507419683 850.812172112 379.253108697 c 0,40,41
 840.084980361 396.676666153 840.084980361 396.676666153 840.084980361 403.828125 c 0,42,43
 840.084980361 414.018658188 840.084980361 414.018658188 847.674879325 421.679729539 c 128,-1,44
 855.264778288 429.340800889 855.264778288 429.340800889 865.935546875 429.340800889 c 0,45,46
 880.013615081 429.340800889 880.013615081 429.340800889 887.315973299 417.311326334 c 0,47,48
 905.211036866 387.832053286 905.211036866 387.832053286 912.706222098 373.436251438 c 128,-1,49
 920.201407331 359.04044959 920.201407331 359.04044959 927.616318953 330.441690748 c 128,-1,50
 935.031230576 301.842931907 935.031230576 301.842931907 935.031230576 267.33984375 c 0,51,52
 935.031230576 244.623403129 935.031230576 244.623403129 932.942266537 214.319198648 c 0,53,54
 928.206361309 145.649725968 928.206361309 145.649725968 881.285474649 88.44639897 c 128,-1,55
 834.364587989 31.2430719723 834.364587989 31.2430719723 773.134442344 1.27535259551 c 0,56,57
 734.92027144 -17.427714951 734.92027144 -17.427714951 706.305664062 -17.427714951 c 0,58,59
 690.702343917 -17.427714951 690.702343917 -17.427714951 668.254838201 -9.56393702524 c 0,60,61
 645.547810139 -1.60924360407 645.547810139 -1.60924360407 613.603586447 15.0218786849 c 0,62,63
 564.511010612 40.5809481455 564.511010612 40.5809481455 489.362928196 88.980885858 c 1,64,65
 458.933065141 49.7561165559 458.933065141 49.7561165559 425.131746529 25.3578759272 c 128,-1,66
 391.330427918 0.959635298428 391.330427918 0.959635298428 341.639383111 -14.8844460477 c 0,67,68
 296.916211597 -29.144511826 296.916211597 -29.144511826 258.084960938 -29.144511826 c 0,69,70
 206.646101784 -29.144511826 206.646101784 -29.144511826 175.419346161 -3.69912280217 c 0,71,72
 148.186754748 18.4901056269 148.186754748 18.4901056269 131.132937867 50.6306733844 c 128,-1,73
 114.079120986 82.771241142 114.079120986 82.771241142 114.079120986 115.651367188 c 0,74,75
 114.079120986 157.419114741 114.079120986 157.419114741 139.40884104 189.783040604 c 0,76,77
 162.114953386 218.796970191 162.114953386 218.796970191 199.981756166 237.11576054 c 128,-1,78
 237.848558947 255.434550889 237.848558947 255.434550889 280.255859375 255.434550889 c 0,79,80
 328.769409194 255.434550889 328.769409194 255.434550889 369.225131819 229.588292235 c 0,81,82
 383.954630868 220.177924626 383.954630868 220.177924626 401.925040726 208.245006897 c 128,-1,83
 419.895450584 196.312089167 419.895450584 196.312089167 442.059980505 181.409713538 c 128,-1,84
 464.224510427 166.507337909 464.224510427 166.507337909 475.614624562 158.944846661 c 1,85,86
 537.391620986 260.74417139 537.391620986 260.74417139 537.391620986 382.86328125 c 0,87,88
 537.391620986 493.811673233 537.391620986 493.811673233 486.00063263 545.202661589 c 0,89,90
 459.20522792 571.998066299 459.20522792 571.998066299 436.954101562 571.998066299 c 0,91,92
 421.545499422 571.998066299 421.545499422 571.998066299 404.214728279 561.248717215 c 128,-1,93
 386.883957136 550.499368132 386.883957136 550.499368132 384.612652489 537.628974881 c 0,94,95
 378.728078354 504.280838732 378.728078354 504.280838732 341.410253926 466.963014304 c 0,96,97
 275.039055919 400.591816299 275.039055919 400.591816299 183.5078125 400.591816299 c 0,98,99
 123.348641878 400.591816299 123.348641878 400.591816299 88.0941500075 435.846308169 c 0,100,101
 45.796894424 478.143563753 45.796894424 478.143563753 45.796894424 567.124023438 c 0,102,103
 45.796894424 605.098613389 45.796894424 605.098613389 71.0078125 605.098613389 c 0,0,1
258.084960938 21.845683701 m 0,104,105
 293.701616525 21.845683701 293.701616525 21.845683701 333.98329689 36.4210506735 c 128,-1,106
 374.264977255 50.9964176461 374.264977255 50.9964176461 398.480000611 68.6925268475 c 0,107,108
 421.56373934 85.5603756498 421.56373934 85.5603756498 446.51606875 117.018538748 c 1,109,110
 343.728960895 185.347107583 343.728960895 185.347107583 341.790631181 186.585447725 c 0,111,112
 313.837360997 204.444355361 313.837360997 204.444355361 280.255859375 204.444355361 c 0,113,114
 250.518125938 204.444355361 250.518125938 204.444355361 222.77610702 191.273834383 c 128,-1,115
 195.034088101 178.103313406 195.034088101 178.103313406 179.606585378 158.390533776 c 0,116,117
 165.069316514 139.814251249 165.069316514 139.814251249 165.069316514 115.651367188 c 0,118,119
 165.069316514 95.4074914303 165.069316514 95.4074914303 176.995977429 73.2480307003 c 128,-1,120
 188.922638344 51.0885699703 188.922638344 51.0885699703 207.596440926 35.8728188569 c 0,121,122
 224.812097141 21.845683701 224.812097141 21.845683701 258.084960938 21.845683701 c 0,104,105
EndSplineSet
Validated: 1
EndChar

StartChar: DiakOfull
Encoding: 71945 71945 35
Width: 920
Flags: W
HStem: -22.0717 51.0034<173.648 324.056 620.981 735.977> 66.0059 50.9902<417.095 534.73> 247.922 50.9902<102.049 187.575> 330.176 50.9902<716.565 800.749> 460.006 50.9902<186.866 304.622>
VStem: 110.466 51.0143<43.1139 101.265> 190.634 51.0006<300.484 371.093> 350.542 50.9902<276.626 414.171> 658.48 51.071<277.509 323.114> 824.897 50.9902<117.641 215.473>
LayerCount: 2
Fore
SplineSet
350.542011611 356.947265625 m 0,0,1
 350.542011611 396.399824787 350.542011611 396.399824787 317.412833984 428.202851793 c 128,-1,2
 284.283656358 460.005878799 284.283656358 460.005878799 247.975585938 460.005878799 c 0,3,4
 235.976267857 460.005878799 235.976267857 460.005878799 211.316709156 449.673558939 c 128,-1,5
 186.657150456 439.341239079 186.657150456 439.341239079 171.014562481 429.624013284 c 1,6,7
 202.018694616 419.68504461 202.018694616 419.68504461 221.826504828 395.211931117 c 128,-1,8
 241.634315039 370.738817624 241.634315039 370.738817624 241.634315039 338.265057124 c 0,9,10
 241.634315039 301.719991213 241.634315039 301.719991213 218.550528968 274.820942818 c 128,-1,11
 195.466742897 247.921894424 195.466742897 247.921894424 158.713867188 247.921894424 c 0,12,13
 101.491870643 247.921894424 101.491870643 247.921894424 59.3761166705 290.037648397 c 0,14,15
 38.4368593286 310.976905738 38.4368593286 310.976905738 38.4368593286 333.992462171 c 0,16,17
 38.4368593286 379.898258796 38.4368593286 379.898258796 86.707056279 428.168455746 c 0,18,19
 124.999565275 466.460964742 124.999565275 466.460964742 177.594205523 491.328873673 c 0,20,21
 219.189554203 510.996074326 219.189554203 510.996074326 247.975585938 510.996074326 c 0,22,23
 306.415948776 510.996074326 306.415948776 510.996074326 353.974077957 464.815163976 c 128,-1,24
 401.532207139 418.634253626 401.532207139 418.634253626 401.532207139 356.947265625 c 0,25,26
 401.532207139 265.175977256 401.532207139 265.175977256 331.577057165 195.220827282 c 0,27,28
 302.841624386 166.485394503 302.841624386 166.485394503 235.268207877 131.84361121 c 0,29,30
 187.248260795 107.225968569 187.248260795 107.225968569 174.129273392 94.1069811657 c 0,31,32
 162.178951048 82.1566588225 162.178951048 82.1566588225 161.480361536 67.2080798686 c 1,33,34
 165.409878209 53.7289422903 165.409878209 53.7289422903 186.004532804 41.3303154654 c 128,-1,35
 206.599187399 28.9316886405 206.599187399 28.9316886405 221.260446452 28.9316886405 c 0,36,37
 264.152833195 28.9316886405 264.152833195 28.9316886405 289.726695639 36.5968938261 c 128,-1,38
 315.300558084 44.2620990117 315.300558084 44.2620990117 350.963001729 65.436896748 c 0,39,40
 402.036539926 95.7611280226 402.036539926 95.7611280226 426.675260321 106.378601174 c 128,-1,41
 451.313980717 116.996074326 451.313980717 116.996074326 475.975585938 116.996074326 c 0,42,43
 501.139197138 116.996074326 501.139197138 116.996074326 529.491158405 104.509388617 c 0,44,45
 548.568696841 96.1073163824 548.568696841 96.1073163824 584.894462389 72.7441847885 c 128,-1,46
 621.220227936 49.3810531947 621.220227936 49.3810531947 639.024030636 41.6109741735 c 0,47,48
 659.076862839 32.859355576 659.076862839 32.859355576 675.103515625 32.859355576 c 0,49,50
 720.4361549 32.859355576 720.4361549 32.859355576 757.575122433 64.7390811743 c 128,-1,51
 794.714089965 96.6188067726 794.714089965 96.6188067726 813.822540527 137.782562258 c 0,52,53
 821.9778063 155.350777175 821.9778063 155.350777175 823.437155049 163.117562712 c 128,-1,54
 824.896503799 170.884348248 824.896503799 170.884348248 824.896503799 190.536132812 c 0,55,56
 824.896503799 203.749937069 824.896503799 203.749937069 824.046541533 216.966182463 c 1,57,58
 789.831346251 191.929935761 789.831346251 191.929935761 749.996062428 191.929935761 c 0,59,60
 721.488919797 191.929935761 721.488919797 191.929935761 689.671809964 223.747045592 c 0,61,62
 668.331250062 245.087605494 668.331250062 245.087605494 661.271671972 263.563675401 c 0,63,64
 658.480488174 270.86865968 658.480488174 270.86865968 658.480488174 277.500976562 c 0,65,66
 658.480413183 325.44896599 658.480413183 325.44896599 686.90265499 353.871207798 c 0,67,68
 714.197443393 381.165996201 714.197443393 381.165996201 761.16015625 381.165996201 c 0,69,70
 794.616198725 381.165996201 794.616198725 381.165996201 818.329627183 364.277122619 c 128,-1,71
 842.043055641 347.388249038 842.043055641 347.388249038 853.933871228 318.101778496 c 128,-1,72
 865.824686816 288.815307954 865.824686816 288.815307954 870.855693071 257.845140573 c 128,-1,73
 875.886699326 226.874973192 875.886699326 226.874973192 875.886699326 190.536132812 c 0,74,75
 875.886699326 150.36912745 875.886699326 150.36912745 860.123473507 116.347828844 c 0,76,77
 834.912687773 61.9361443743 834.912687773 61.9361443743 786.426117108 21.9026522117 c 128,-1,78
 737.939546443 -18.130839951 737.939546443 -18.130839951 675.103515625 -18.130839951 c 0,79,80
 666.288768882 -18.130839951 666.288768882 -18.130839951 657.193981807 -16.7182755192 c 128,-1,81
 648.099194732 -15.3057110875 648.099194732 -15.3057110875 641.18199973 -13.7666053312 c 128,-1,82
 634.264804728 -12.2274995749 634.264804728 -12.2274995749 624.929012919 -8.26526847796 c 128,-1,83
 615.593221109 -4.30303738098 615.593221109 -4.30303738098 610.755958422 -2.24466498489 c 128,-1,84
 605.918695734 -0.186292588796 605.918695734 -0.186292588796 596.226980194 5.50849678589 c 128,-1,85
 586.535264655 11.2032861606 586.535264655 11.2032861606 583.663015286 12.963816809 c 128,-1,86
 580.790765917 14.7243474574 580.790765917 14.7243474574 570.628207652 21.3345867224 c 128,-1,87
 560.465649388 27.9448259873 560.465649388 27.9448259873 559.146194774 28.7931372295 c 0,88,89
 525.106124045 50.6792012711 525.106124045 50.6792012711 508.966016135 57.7989292547 c 0,90,91
 490.361225116 66.005878799 490.361225116 66.005878799 475.975585938 66.005878799 c 0,92,93
 462.126849566 66.005878799 462.126849566 66.005878799 442.771095336 57.5688438435 c 128,-1,94
 423.415341107 49.131808888 423.415341107 49.131808888 376.988297924 21.5651322437 c 0,95,96
 336.795250454 -2.29927869387 336.795250454 -2.29927869387 303.489603107 -11.8995345883 c 0,97,98
 268.199817822 -22.0717124675 268.199817822 -22.0717124675 220.691114218 -22.0717124675 c 0,99,100
 188.144047315 -22.0717124675 188.144047315 -22.0717124675 158.894721852 -2.99731555408 c 128,-1,101
 129.645396388 16.0770813593 129.645396388 16.0770813593 116.735923537 42.1526555249 c 0,102,103
 110.466073055 54.8169953556 110.466073055 54.8169953556 110.466073055 66.7122474973 c 0,104,105
 110.466073055 87.6984951804 110.466073055 87.6984951804 118.151335434 104.578714266 c 128,-1,106
 125.836597814 121.458933352 125.836597814 121.458933352 142.293093268 134.74107575 c 128,-1,107
 158.749588721 148.023218147 158.749588721 148.023218147 170.435018504 155.058792414 c 128,-1,108
 182.120448287 162.094366681 182.120448287 162.094366681 203.720367735 173.028587311 c 0,109,110
 209.272863446 175.839348401 209.272863446 175.839348401 211.970764783 177.222444786 c 0,111,112
 272.457095484 208.229053188 272.457095484 208.229053188 295.505021277 231.27697898 c 0,113,114
 350.542011611 286.313969316 350.542011611 286.313969316 350.542011611 356.947265625 c 0,0,1
814.610497459 276.2856774 m 1,115,116
 806.95744071 302.555772168 806.95744071 302.555772168 795.572835198 316.365786421 c 128,-1,117
 784.188229685 330.175800674 784.188229685 330.175800674 761.16015625 330.175800674 c 0,118,119
 712.010376387 330.175800674 712.010376387 330.175800674 709.551434042 280.54150886 c 1,120,121
 715.236994302 270.520752638 715.236994302 270.520752638 727.825283549 257.535493084 c 128,-1,122
 740.413572797 244.550233529 740.413572797 244.550233529 750.261904016 242.940019999 c 0,123,124
 786.368389786 245.807416474 786.368389786 245.807416474 806.36964654 269.808139021 c 0,125,126
 809.816319874 273.944011654 809.816319874 273.944011654 814.610497459 276.2856774 c 1,115,116
158.713867188 298.912089951 m 128,-1,128
 174.247623507 298.912089951 174.247623507 298.912089951 182.440654486 310.167904463 c 128,-1,129
 190.633685466 321.423718974 190.633685466 321.423718974 190.633685466 338.584552309 c 0,130,131
 190.633685466 355.949912774 190.633685466 355.949912774 178.925555141 367.658043098 c 0,132,133
 160.33606097 386.247537269 160.33606097 386.247537269 117.270366671 386.283156877 c 1,134,135
 90.9868559923 357.604044812 90.9868559923 357.604044812 89.4474944373 334.338002306 c 0,136,137
 90.0998487199 331.530459769 90.0998487199 331.530459769 95.4277484746 326.202557479 c 0,138,139
 104.856532072 316.773773881 104.856532072 316.773773881 123.976834677 307.842931916 c 128,-1,127
 143.097137282 298.912089951 143.097137282 298.912089951 158.713867188 298.912089951 c 128,-1,128
EndSplineSet
Validated: 33
EndChar

StartChar: DiakKA
Encoding: 71948 71948 36
Width: 860
Flags: W
HStem: -24.8457 50.9902<300.884 545.956> 163.263 50.9902<343.295 509.326> 348.005 50.9678<357.378 486.59> 574.078 50.9902<500.374 641.951> 622.038 50.9918<138.736 283.379>
VStem: 40.5156 50.9902<479.54 574.177> 218.475 50.9887<286.595 454.293> 516.521 50.9903<410.906 502.431> 530.535 50.9908<234.859 325.14> 749.127 50.9902<241.995 467.402>
LayerCount: 2
Fore
SplineSet
218.474997359 383.217870595 m 0,0,1
 218.474997359 500.563756281 218.474997359 500.563756281 348.450394533 567.684284815 c 1,2,3
 291.724777306 598.382877856 291.724777306 598.382877856 263.721924847 608.84058291 c 0,4,5
 228.382596374 622.038105361 228.382596374 622.038105361 201.046875 622.038105361 c 0,6,7
 163.740659324 622.038105361 163.740659324 622.038105361 137.226085694 600.404815975 c 128,-1,8
 110.711512065 578.771526589 110.711512065 578.771526589 97.8870698636 547.00449225 c 0,9,10
 91.505839951 531.197742407 91.505839951 531.197742407 91.505839951 521.5 c 0,11,12
 91.505839951 507.461877056 91.505839951 507.461877056 96.6357945812 497.605214901 c 128,-1,13
 101.765749211 487.748552747 101.765749211 487.748552747 107.186563397 483.475812015 c 128,-1,14
 112.607377582 479.203071283 112.607377582 479.203071283 125.516686421 471.135049326 c 0,15,16
 137.271464951 463.788582333 137.271464951 463.788582333 137.271464951 449.923828125 c 0,17,18
 137.271464951 439.24879987 137.271464951 439.24879987 129.644057461 431.66493699 c 128,-1,19
 122.01664997 424.081074111 122.01664997 424.081074111 111.74609375 424.081074111 c 0,20,21
 104.559940131 424.081074111 104.559940131 424.081074111 98.5053698571 427.865203584 c 0,22,23
 70.992729404 445.060708604 70.992729404 445.060708604 55.754186914 466.333548607 c 128,-1,24
 40.515644424 487.606388609 40.515644424 487.606388609 40.515644424 521.5 c 0,25,26
 40.515644424 541.095493929 40.515644424 541.095493929 50.5388671355 566.039877284 c 0,27,28
 68.7352732094 611.324526926 68.7352732094 611.324526926 107.721669108 642.177208215 c 128,-1,29
 146.708065006 673.029889504 146.708065006 673.029889504 201.212268284 673.029889504 c 0,30,31
 240.227716447 673.029889504 240.227716447 673.029889504 275.135821007 660.931817244 c 128,-1,32
 310.043925567 648.833744983 310.043925567 648.833744983 353.701335313 624.040940895 c 128,-1,33
 397.35874506 599.248136807 397.35874506 599.248136807 409.590404329 593.613096653 c 1,34,35
 500.062360769 625.068339904 500.062360769 625.068339904 570.387695312 625.068339951 c 0,36,37
 603.083394448 625.068339951 603.083394448 625.068339951 646.865298478 607.85527125 c 128,-1,38
 690.647202507 590.642202548 690.647202507 590.642202548 728.620094653 552.669310403 c 0,39,40
 800.117168076 481.172236978 800.117168076 481.172236978 800.117168076 364.352539062 c 0,41,42
 800.117168076 195.755867787 800.117168076 195.755867787 684.61174897 80.2504486809 c 0,43,44
 637.701717632 33.3404173431 637.701717632 33.3404173431 580.312977765 6.32349330101 c 128,-1,45
 522.924237898 -20.6934307411 522.924237898 -20.6934307411 465.467042619 -23.9536055032 c 0,46,47
 449.760148075 -24.845683701 449.760148075 -24.845683701 434.387695312 -24.845683701 c 0,48,49
 378.484535896 -24.845683701 378.484535896 -24.845683701 326.332423667 -11.989564417 c 128,-1,50
 274.180311438 0.866554866921 274.180311438 0.866554866921 251.47425668 11.4506994249 c 128,-1,51
 228.768201923 22.0348439828 228.768201923 22.0348439828 193.79838207 41.1090057879 c 0,52,53
 180.775410049 48.2123387913 180.775410049 48.2123387913 180.775410049 63.0615234375 c 0,54,55
 180.775410049 73.8446061216 180.775410049 73.8446061216 188.360486268 81.389578505 c 128,-1,56
 195.945562487 88.9345508885 195.945562487 88.9345508885 206.25 88.9345508885 c 0,57,58
 212.656090357 88.9345508885 212.656090357 88.9345508885 221.579975691 84.0581960024 c 0,59,60
 252.869075181 66.9606261138 252.869075181 66.9606261138 273.526397333 57.4431265017 c 128,-1,61
 294.183719485 47.9256268896 294.183719485 47.9256268896 339.514733077 37.0350693578 c 128,-1,62
 384.84574667 26.144511826 384.84574667 26.144511826 434.387695312 26.144511826 c 0,63,64
 448.285094314 26.144511826 448.285094314 26.144511826 462.555791543 26.9536821284 c 0,65,66
 509.720738638 29.6298897207 509.720738638 29.6298897207 558.96215137 52.800880299 c 128,-1,67
 608.203564103 75.9718708772 608.203564103 75.9718708772 648.547143047 116.315449821 c 0,68,69
 749.126972549 216.895279325 749.126972549 216.895279325 749.126972549 364.352539062 c 0,70,71
 749.126972549 460.038046912 749.126972549 460.038046912 692.536521537 516.628497924 c 0,72,73
 663.527524403 545.637495058 663.527524403 545.637495058 627.616086233 559.857819741 c 128,-1,74
 591.704648062 574.078144424 591.704648062 574.078144424 570.387695312 574.078144424 c 0,75,76
 544.814550167 574.078144424 544.814550167 574.078144424 499.054718531 564.91870549 c 1,77,78
 527.4232091 546.874679269 527.4232091 546.874679269 547.467454213 518.137797072 c 128,-1,79
 567.511699326 489.400914874 567.511699326 489.400914874 567.511699326 456.373046875 c 0,80,81
 567.511699326 411.071733073 567.511699326 411.071733073 531.158536495 375.112568601 c 1,82,83
 555.164481828 353.537595317 555.164481828 353.537595317 569.686619508 324.385713367 c 0,84,85
 581.525999928 300.619224717 581.525999928 300.619224717 581.525999928 279.747487955 c 0,86,87
 581.525999928 232.15211214 581.525999928 232.15211214 546.002007328 199.622408997 c 128,-1,88
 510.478014728 167.092705854 510.478014728 167.092705854 459.935344099 163.933837353 c 0,89,90
 449.199143691 163.262714736 449.199143691 163.262714736 438.5546875 163.262714736 c 0,91,92
 334.787542846 163.262714736 334.787542846 163.262714736 276.568019839 221.482237743 c 128,-1,93
 218.474997359 279.575260225 218.474997359 279.575260225 218.474997359 383.217870595 c 0,0,1
408.846909293 538.930008501 m 1,94,95
 269.46370817 484.109658254 269.46370817 484.109658254 269.46370817 383.371074584 c 0,96,97
 269.46370817 300.67705261 269.46370817 300.67705261 312.644231503 257.496529277 c 128,-1,98
 355.887850516 214.252910264 355.887850516 214.252910264 438.5546875 214.252910264 c 0,99,100
 478.298221518 214.252910264 478.298221518 214.252910264 504.416698596 231.257306949 c 128,-1,101
 530.535175674 248.261703634 530.535175674 248.261703634 530.535175674 279.821289062 c 0,102,103
 530.535175674 288.196704835 530.535175674 288.196704835 524.201464251 301.179209011 c 0,104,105
 509.297125907 331.729327555 509.297125907 331.729327555 486.94094396 344.787663906 c 0,106,107
 481.046747052 348.230488174 481.046747052 348.230488174 426.439453125 348.230488174 c 0,108,109
 421.645410646 348.230488174 421.645410646 348.230488174 416.626594754 348.218046967 c 128,-1,110
 411.607778861 348.20560576 411.607778861 348.20560576 407.397884681 348.18571079 c 128,-1,111
 403.187990501 348.165815821 403.187990501 348.165815821 399.23535457 348.141755513 c 128,-1,112
 395.28271864 348.117695205 395.28271864 348.117695205 392.234443589 348.093634897 c 128,-1,113
 389.186168538 348.069574589 389.186168538 348.069574589 386.902956233 348.04967962 c 128,-1,114
 384.619743927 348.02978465 384.619743927 348.02978465 383.33633167 348.017343443 c 128,-1,115
 382.052919412 348.004902236 382.052919412 348.004902236 382.016601562 348.004902236 c 0,116,117
 371.541006256 348.004902236 371.541006256 348.004902236 364.267583152 355.632499605 c 128,-1,118
 356.994160049 363.260096974 356.994160049 363.260096974 356.994160049 374 c 0,119,120
 356.994160049 383.839018564 356.994160049 383.839018564 364.099601845 391.200299842 c 128,-1,121
 371.205043642 398.561581119 371.205043642 398.561581119 380.927311569 398.972699652 c 0,122,123
 452.788588511 402.020279527 452.788588511 402.020279527 482.679027547 402.863977081 c 0,124,125
 494.243655764 405.589896732 494.243655764 405.589896732 505.382520502 424.535264603 c 128,-1,126
 516.521385241 443.480632473 516.521385241 443.480632473 516.521385241 456.325311515 c 0,127,128
 516.521385241 480.906551298 516.521385241 480.906551298 491.759585358 505.668351183 c 0,129,130
 463.423034305 534.004902236 463.423034305 534.004902236 436.010742188 534.004902236 c 0,131,132
 423.498192729 534.004902236 423.498192729 534.004902236 408.846909293 538.930008501 c 1,94,95
EndSplineSet
Validated: 33
EndChar

StartChar: DiakKHA
Encoding: 71949 71949 37
Width: 716
Flags: W
HStem: -22.666 50.9912<245.867 453.729> 336.531 50.9902<184.134 280.972> 574.216 50.9893<280.012 417.629>
VStem: 111.979 50.9902<409.55 500.253> 291.614 50.9902<398.252 488.94> 486.799 50.9902<370.064 502.44>
LayerCount: 2
Fore
SplineSet
162.969726562 453.258789062 m 0,0,1
 162.969726562 427.18072887 162.969726562 427.18072887 185.994377095 407.351106623 c 128,-1,2
 209.019027627 387.521484375 209.019027627 387.521484375 234.986328125 387.521484375 c 0,3,4
 256.746624966 387.521484375 256.746624966 387.521484375 274.180441389 401.551983469 c 128,-1,5
 291.614257812 415.582482563 291.614257812 415.582482563 291.614257812 435.608398438 c 0,6,7
 291.614257812 450.99591452 291.614257812 450.99591452 278.26171875 475.170898438 c 0,8,9
 267.078671488 495.415246361 267.078671488 495.415246361 231.416015625 541.900390625 c 1,10,11
 187.526439897 514.102456924 187.526439897 514.102456924 169.53125 477.053710938 c 0,12,13
 162.969726562 463.544002859 162.969726562 463.544002859 162.969726562 453.258789062 c 0,0,1
105.739257812 181.424804688 m 1,14,15
 147.039924103 117.754137127 147.039924103 117.754137127 205.137965636 73.0396662196 c 128,-1,16
 263.23600717 28.3251953125 263.23600717 28.3251953125 334.723632812 28.3251953125 c 0,17,18
 379.475298757 28.3251953125 379.475298757 28.3251953125 417.426645075 36.973782169 c 128,-1,19
 455.377991394 45.6223690256 455.377991394 45.6223690256 488.338964666 64.4415010342 c 128,-1,20
 521.299937937 83.2606330428 521.299937937 83.2606330428 538.996927058 96.1380888099 c 128,-1,21
 556.693916179 109.015544577 556.693916179 109.015544577 586.400390625 133.764648438 c 0,22,23
 617.350999442 159.552307127 617.350999442 159.552307127 632.384765625 169.68359375 c 0,24,25
 638.6887287 173.932617188 638.6887287 173.932617188 646.341796875 173.932617188 c 0,26,27
 656.514484793 173.932617188 656.514484793 173.932617188 664.204996303 166.319355231 c 128,-1,28
 671.895507812 158.706093274 671.895507812 158.706093274 671.895507812 148.107421875 c 0,29,30
 671.895507812 134.798450822 671.895507812 134.798450822 660.856445312 127.361328125 c 0,31,32
 647.975065933 118.679979105 647.975065933 118.679979105 619.013671875 94.552734375 c 0,33,34
 588.768504913 69.3550424113 588.768504913 69.3550424113 568.617884459 54.8785859667 c 128,-1,35
 548.467264005 40.402129522 548.467264005 40.402129522 511.158543764 19.2536314406 c 128,-1,36
 473.849823523 -1.89486664088 473.849823523 -1.89486664088 429.625819029 -12.2804411329 c 128,-1,37
 385.401814534 -22.666015625 385.401814534 -22.666015625 334.672851562 -22.666015625 c 128,-1,38
 284.11017536 -22.666015625 284.11017536 -22.666015625 237.151985218 -3.42806928328 c 128,-1,39
 190.193795076 15.8098770584 190.193795076 15.8098770584 154.010505627 48.2817527549 c 128,-1,40
 117.827216177 80.7536284513 117.827216177 80.7536284513 91.4493790168 114.09558184 c 128,-1,41
 65.0715418564 147.437535228 65.0715418564 147.437535228 44.23828125 184.684570312 c 0,42,43
 41.068359375 190.352050781 41.068359375 190.352050781 41.068359375 196.887695312 c 0,44,45
 41.068359375 214.839174737 41.068359375 214.839174737 58.0400390625 220.567382812 c 0,46,47
 91.0331535193 231.705045617 91.0331535193 231.705045617 131.071447018 239.251375374 c 128,-1,48
 171.109740516 246.797705132 171.109740516 246.797705132 234.250493086 255.127856397 c 128,-1,49
 297.391245655 263.458007661 297.391245655 263.458007661 320.193359375 267.044921875 c 0,50,51
 374.385500949 275.569694226 374.385500949 275.569694226 415.409303347 309.775062181 c 128,-1,52
 456.433105745 343.980430137 456.433105745 343.980430137 476.140625 390.875976562 c 0,53,54
 486.798828125 416.239178109 486.798828125 416.239178109 486.798828125 435.099609375 c 0,55,56
 486.798828125 455.622580269 486.798828125 455.622580269 474.736816358 483.985118308 c 128,-1,57
 462.674804591 512.347656346 462.674804591 512.347656346 441.084960938 533.9375 c 0,58,59
 400.806640624 574.215820312 400.806640624 574.215820312 342.842773438 574.215820312 c 0,60,61
 309.876865423 574.215820312 309.876865423 574.215820312 278.689453125 564.102539062 c 1,62,63
 309.930228084 523.512469644 309.930228084 523.512469644 323.099609375 499.594726562 c 0,64,65
 342.604492188 464.169871426 342.604492188 464.169871426 342.604492188 435.608398438 c 0,66,67
 342.604492188 393.775907622 342.604492188 393.775907622 310.269176282 365.153578811 c 128,-1,68
 277.933860377 336.53125 277.933860377 336.53125 234.986328125 336.53125 c 0,69,70
 187.272115084 336.53125 187.272115084 336.53125 149.625803636 370.822467088 c 128,-1,71
 111.979492188 405.113684175 111.979492188 405.113684175 111.979492188 453.234375 c 0,72,73
 111.979492188 501.592773438 111.979492188 501.592773438 161.068359375 550.681640625 c 0,74,75
 235.591796875 625.205078125 235.591796875 625.205078125 342.76171875 625.205078125 c 0,76,77
 421.701901481 625.205078125 421.701901481 625.205078125 476.727539062 570.177734375 c 0,78,79
 506.332634531 540.572638906 506.332634531 540.572638906 522.060848516 504.083736253 c 128,-1,80
 537.7890625 467.5948336 537.7890625 467.5948336 537.7890625 435.099609375 c 0,81,82
 537.7890625 405.930482088 537.7890625 405.930482088 523.177734375 371.120117188 c 0,83,84
 498.509348366 312.353854619 498.509348366 312.353854619 447.398041897 269.873270784 c 128,-1,85
 396.286735428 227.392686949 396.286735428 227.392686949 328.168945312 216.677734375 c 0,86,87
 302.745611008 212.678347221 302.745611008 212.678347221 254.384752691 206.277260515 c 128,-1,88
 206.023894373 199.876173809 206.023894373 199.876173809 169.652356684 194.091554589 c 128,-1,89
 133.280818995 188.30693537 133.280818995 188.30693537 105.739257812 181.424804688 c 1,14,15
EndSplineSet
Validated: 1
EndChar

StartChar: DiakGA
Encoding: 71950 71950 38
Width: 632
Flags: W
HStem: -25.585 50.9883<168.957 375.246> 274.581 50.9902<117.431 254.647> 485.005 50.9902<330.917 449.083>
VStem: 53.9639 50.9854<336.263 615.723> 238.863 50.9902<335.166 449.568> 523.892 50.9902<173.104 398.61>
LayerCount: 2
Fore
SplineSet
53.9638671875 591.100585938 m 0,0,1
 53.9638671875 601.574675673 53.9638671875 601.574675673 61.5983409445 608.845443305 c 128,-1,2
 69.2328147014 616.116210938 69.2328147014 616.116210938 79.958984375 616.116210938 c 0,3,4
 89.9283173165 616.116210938 89.9283173165 616.116210938 97.3382061021 608.830797944 c 128,-1,5
 104.748094888 601.54538495 104.748094888 601.54538495 104.94921875 591.630859375 c 2,6,-1
 109.169921875 383.329101562 l 2,7,8
 111.941969862 355.3946064 111.941969862 355.3946064 120.309686787 341.885076093 c 128,-1,9
 128.677403712 328.375545786 128.677403712 328.375545786 152.092773438 326.620117188 c 0,10,11
 166.059048762 325.571289062 166.059048762 325.571289062 181.1171875 325.571289062 c 0,12,13
 219.226348769 325.571289062 219.226348769 325.571289062 255.741210938 332.124023438 c 1,14,15
 238.86328125 366.005752114 238.86328125 366.005752114 238.86328125 402.748046875 c 0,16,17
 238.86328125 484.77830152 238.86328125 484.77830152 337.727539062 523.977539062 c 0,18,19
 368.037122828 535.995117188 368.037122828 535.995117188 392 535.995117188 c 128,-1,20
 416.001127469 535.995117188 416.001127469 535.995117188 446.758573887 523.186814067 c 128,-1,21
 477.516020305 510.378510945 477.516020305 510.378510945 505.032226562 482.862304688 c 0,22,23
 574.881835938 413.012695312 574.881835938 413.012695312 574.881835938 283.614257812 c 0,24,25
 574.881835938 172.874092623 574.881835938 172.874092623 519.255539298 98.8236473263 c 128,-1,26
 463.629242657 24.7732020292 463.629242657 24.7732020292 376.098632812 -9.07421875 c 0,27,28
 333.401299369 -25.5849609375 333.401299369 -25.5849609375 298.440429688 -25.5849609375 c 0,29,30
 193.53141053 -25.5849609375 193.53141053 -25.5849609375 80.986328125 29.380859375 c 0,31,32
 66.9716796875 36.2257880517 66.9716796875 36.2257880517 66.9716796875 51.845703125 c 0,33,34
 66.9716796875 62.7018754902 66.9716796875 62.7018754902 74.5214226575 70.2205666513 c 128,-1,35
 82.0711656275 77.7392578125 82.0711656275 77.7392578125 92.4052734375 77.7392578125 c 0,36,37
 98.2035898141 77.7392578125 98.2035898141 77.7392578125 103.385742188 75.208984375 c 0,38,39
 153.345796614 50.8095929839 153.345796614 50.8095929839 198.096594366 38.1064566482 c 128,-1,40
 242.847392119 25.4033203125 242.847392119 25.4033203125 298.140625 25.4033203125 c 0,41,42
 323.852312743 25.4033203125 323.852312743 25.4033203125 357.681640625 38.494140625 c 0,43,44
 431.741274961 67.1511269772 431.741274961 67.1511269772 477.816438262 128.35990273 c 128,-1,45
 523.891601562 189.568678483 523.891601562 189.568678483 523.891601562 283.614257812 c 0,46,47
 523.891601562 391.892578126 523.891601562 391.892578126 468.975585938 446.80859375 c 0,48,49
 449.252621798 466.531557889 449.252621798 466.531557889 426.976124956 475.768220351 c 128,-1,50
 404.699628115 485.004882812 404.699628115 485.004882812 392 485.004882812 c 0,51,52
 371.005490122 485.004882812 371.005490122 485.004882812 346.340043917 472.462787137 c 128,-1,53
 321.674597712 459.920691462 321.674597712 459.920691462 307.08203125 445.328125 c 0,54,55
 296.114696851 434.360790601 296.114696851 434.360790601 292.984106238 426.158804704 c 128,-1,56
 289.853515625 417.956818808 289.853515625 417.956818808 289.853515625 402.748046875 c 0,57,58
 289.853515625 386.032644032 289.853515625 386.032644032 292.928744734 374.725470142 c 128,-1,59
 296.003973844 363.418296251 296.003973844 363.418296251 305.223924536 346.583449129 c 128,-1,60
 314.443875229 329.748602007 314.443875229 329.748602007 316.379882812 325.553710938 c 0,61,62
 318.676757812 320.576171874 318.676757812 320.576171874 318.676757812 315.064453125 c 0,63,64
 318.676757812 297.957487584 318.676757812 297.957487584 302.765625 291.76953125 c 0,65,66
 258.568780801 274.581054688 258.568780801 274.581054688 181.1171875 274.581054688 c 0,67,68
 115.07421875 274.581054688 115.07421875 274.581054688 88.4150390625 301.240234375 c 0,69,70
 59.2433358 330.411937637 59.2433358 330.411937637 58.212890625 381.248046875 c 2,71,-1
 53.9638671875 591.100585938 l 0,0,1
EndSplineSet
Validated: 1
EndChar

StartChar: DiakGHA
Encoding: 71951 71951 39
Width: 1012
Flags: W
HStem: -30.041 50.9902<375.846 478.173> -21.8906 50.9902<705.451 823.276> 378.96 51.0508<114.22 223.168> 554.165 50.9902<303.105 377.132>
VStem: 46.2168 50.9893<442.929 581.418> 249.119 50.9902<454.677 552.446> 269.479 50.9902<81.2836 194.043> 404.914 50.9902<344.93 526.249> 628.745 50.9902<195.813 389.656> 902.3 50.9902<115.131 372.339>
LayerCount: 2
Fore
SplineSet
46.216796875 508.19921875 m 0,0,1
 46.216796875 524.218986695 46.216796875 524.218986695 46.7090255195 532.673867574 c 128,-1,2
 47.201254164 541.128748453 47.201254164 541.128748453 49.5809067315 555.164999613 c 128,-1,3
 51.960559299 569.201250773 51.960559299 569.201250773 58.5858870918 575.969766012 c 128,-1,4
 65.2112148845 582.73828125 65.2112148845 582.73828125 75.8740234375 582.73828125 c 0,5,6
 86.8307948623 582.73828125 86.8307948623 582.73828125 94.3431318061 575.402452838 c 128,-1,7
 101.85546875 568.066624427 101.85546875 568.066624427 101.85546875 557.577148438 c 0,8,9
 101.85546875 555.496588313 101.85546875 555.496588313 101.513671875 553.44140625 c 0,10,11
 97.2060546875 527.600269504 97.2060546875 527.600269504 97.2060546875 508.180664062 c 0,12,13
 97.2060546875 468.119780126 97.2060546875 468.119780126 116.513671875 443.295898438 c 0,14,15
 126.846571179 430.010742188 126.846571179 430.010742188 161.401367188 430.010742188 c 0,16,17
 178.713932736 430.010742188 178.713932736 430.010742188 196.689451609 434.733935658 c 128,-1,18
 214.664970482 439.457129127 214.664970482 439.457129127 221.669921875 447.000976562 c 0,19,20
 249.119140625 476.561775834 249.119140625 476.561775834 249.119140625 508.716796875 c 0,21,22
 249.119140625 510.233764648 249.119140625 510.233764648 248.932617188 513.67590332 c 128,-1,23
 248.74609375 517.118041992 248.74609375 517.118041992 248.74609375 519.236328125 c 0,24,25
 248.74609375 552.437941334 248.74609375 552.437941334 271.714930145 578.796607386 c 128,-1,26
 294.68376654 605.155273438 294.68376654 605.155273438 328.3671875 605.155273438 c 0,27,28
 376.806640625 605.155273438 376.806640625 605.155273438 414.048828125 567.913085938 c 0,29,30
 455.904296875 526.057617186 455.904296875 526.057617186 455.904296875 453.912109375 c 0,31,32
 455.904296875 393.249092493 455.904296875 393.249092493 440.94921875 349.751953125 c 0,33,34
 437.778495296 340.529787957 437.778495296 340.529787957 433.489580067 331.256067955 c 128,-1,35
 429.200664838 321.982347952 429.200664838 321.982347952 425.882164725 315.659133868 c 128,-1,36
 422.563664613 309.335919785 422.563664613 309.335919785 416.241985304 299.71573954 c 128,-1,37
 409.920305996 290.095559296 409.920305996 290.095559296 407.176833417 286.165571947 c 128,-1,38
 404.433360839 282.235584599 404.433360839 282.235584599 396.502203042 271.364213209 c 128,-1,39
 388.571045245 260.49284182 388.571045245 260.49284182 386.526367188 257.65234375 c 0,40,41
 384.899638933 255.392446828 384.899638933 255.392446828 371.063779086 236.697573451 c 128,-1,42
 357.227919239 218.002700073 357.227919239 218.002700073 352.040431853 210.072535924 c 128,-1,43
 346.852944466 202.142371775 346.852944466 202.142371775 337.460935335 186.824260951 c 128,-1,44
 328.068926204 171.506150127 328.068926204 171.506150127 324.268838102 160.022035924 c 128,-1,45
 320.46875 148.537921722 320.46875 148.537921722 320.46875 138.712890625 c 0,46,47
 320.46875 125.290282035 320.46875 125.290282035 326.087890625 111.02734375 c 0,48,49
 339.204534628 77.7304609157 339.204534628 77.7304609157 367.458476472 49.3398398329 c 128,-1,50
 395.712418315 20.94921875 395.712418315 20.94921875 426.9765625 20.94921875 c 0,51,52
 438.085347669 20.94921875 438.085347669 20.94921875 448.749023438 25.28125 c 0,53,54
 481.262080549 38.4898044508 481.262080549 38.4898044508 520.964020384 79.97905965 c 128,-1,55
 560.665960219 121.468314849 560.665960219 121.468314849 587.541015625 162.126953125 c 0,56,57
 610.158320958 196.345685663 610.158320958 196.345685663 619.451719073 227.178378475 c 128,-1,58
 628.745117188 258.011071286 628.745117188 258.011071286 628.745117188 303.827148438 c 0,59,60
 628.745117188 345.753369021 628.745117188 345.753369021 621.369140625 382.630859375 c 0,61,62
 620.880859375 385.073731931 620.880859375 385.073731931 620.880859375 387.5625 c 0,63,64
 620.880859375 397.946116806 620.880859375 397.946116806 628.432002976 405.350011528 c 128,-1,65
 635.983146578 412.75390625 635.983146578 412.75390625 646.857421875 412.75390625 c 0,66,67
 655.703443937 412.75390625 655.703443937 412.75390625 662.700975744 406.887918598 c 128,-1,68
 669.69850755 401.021930946 669.69850755 401.021930946 671.364257812 392.689453125 c 0,69,70
 679.735351562 350.833984382 679.735351562 350.833984382 679.735351562 303.827148438 c 0,71,72
 679.735351562 249.045208184 679.735351562 249.045208184 666.763671875 206.235351562 c 0,73,74
 658.819564413 180.020617044 658.819564413 180.020617044 638.243164062 146.696289062 c 1,75,76
 661.592085544 92.665726957 661.592085544 92.665726957 694.16015625 60.09765625 c 0,77,78
 725.156819963 29.099609375 725.156819963 29.099609375 751.681640625 29.099609375 c 0,79,80
 808.416326168 29.099609375 808.416326168 29.099609375 850.962890625 71.6474609375 c 0,81,82
 888.514043415 109.196892776 888.514043415 109.196892776 899.138671875 175.37109375 c 0,83,84
 902.299804688 199.262929637 902.299804688 199.262929637 902.299804688 226.307617188 c 0,85,86
 902.299804688 299.200231105 902.299804688 299.200231105 882.10546875 361.803710938 c 0,87,88
 880.895507813 365.552246093 880.895507813 365.552246093 880.895507811 369.506835938 c 0,89,90
 880.895507812 379.824961906 880.895507812 379.824961906 888.430416501 387.316777828 c 128,-1,91
 895.96532519 394.80859375 895.96532519 394.80859375 906.842773438 394.80859375 c 0,92,93
 925.050844254 394.80859375 925.050844254 394.80859375 930.62890625 377.516601562 c 0,94,95
 953.290039062 307.261584648 953.290039062 307.261584648 953.290039062 226.307617188 c 0,96,97
 953.290039062 101.880859374 953.290039062 101.880859374 887.028320312 35.619140625 c 0,98,99
 829.518554688 -21.890625 829.518554688 -21.890625 751.681640625 -21.890625 c 0,100,101
 705.443341235 -21.890625 705.443341235 -21.890625 667.995694075 13.6890306174 c 128,-1,102
 630.548046915 49.2686862349 630.548046915 49.2686862349 604.6796875 98.6240234375 c 1,103,104
 530.74542693 3.53539290205 530.74542693 3.53539290205 467.983398438 -21.9619140625 c 0,105,106
 448.09293893 -30.041015625 448.09293893 -30.041015625 426.9765625 -30.041015625 c 0,107,108
 376.84435735 -30.041015625 376.84435735 -30.041015625 337.268504777 6.95166515874 c 128,-1,109
 297.692652203 43.9443459425 297.692652203 43.9443459425 278.645507812 92.29296875 c 0,110,111
 269.478515625 115.565133096 269.478515625 115.565133096 269.478515625 138.712890625 c 0,112,113
 269.478515625 161.642770343 269.478515625 161.642770343 279.570506248 186.186222803 c 128,-1,114
 289.662496872 210.729675264 289.662496872 210.729675264 297.553191669 222.211889175 c 128,-1,115
 305.443886466 233.694103085 305.443886466 233.694103085 324.171875 258.704101562 c 0,116,117
 325.301218112 260.212390444 325.301218112 260.212390444 353.971679688 299.682617188 c 128,-1,118
 382.672130855 339.191717016 382.672130855 339.191717016 393.793096677 368.704166321 c 128,-1,119
 404.9140625 398.216615625 404.9140625 398.216615625 404.9140625 453.912109375 c 0,120,121
 404.9140625 504.938594932 404.9140625 504.938594932 377.985351562 531.869140625 c 0,122,123
 355.68813812 554.165039062 355.68813812 554.165039062 328.3671875 554.165039062 c 0,124,125
 316.791693904 554.165039062 316.791693904 554.165039062 308.264011014 542.569575925 c 128,-1,126
 299.736328125 530.974112788 299.736328125 530.974112788 299.736328125 519.236328125 c 0,127,128
 299.736328125 517.721435547 299.736328125 517.721435547 299.922851562 514.279052734 c 128,-1,129
 300.109375 510.836669922 300.109375 510.836669922 300.109375 508.716796875 c 0,130,131
 300.109375 456.523282864 300.109375 456.523282864 259.063476562 412.319335938 c 0,132,133
 228.08649311 378.959960938 228.08649311 378.959960938 161.379882812 378.959960938 c 0,134,135
 101.936197686 378.959960938 101.936197686 378.959960938 76.220703125 412.024414062 c 0,136,137
 46.216796875 450.599563323 46.216796875 450.599563323 46.216796875 508.19921875 c 0,0,1
EndSplineSet
Validated: 33
EndChar

StartChar: DiakNGA
Encoding: 71952 71952 40
Width: 550
Flags: W
HStem: -25.9893 50.9902<118.85 363.627> -15.6914 50.6865<95.34 276.459> 234.014 50.71<181.386 264> 345.28 50.9902<91.1452 164.997> 501.748 51.1123<162.45 382.139>
VStem: 37.4873 50.9902<399.95 467.97> 167.678 50.9902<401.853 488.877> 422.595 50.9922<398.532 471.137> 440.579 50.9902<87.5922 174.983>
LayerCount: 2
Fore
SplineSet
146.266601562 489.802734375 m 1,0,1
 123.76513322 481.673546274 123.76513322 481.673546274 106.121336141 464.494340763 c 128,-1,2
 88.4775390625 447.315135252 88.4775390625 447.315135252 88.4775390625 427.774414062 c 0,3,4
 88.4775390625 414.880959955 88.4775390625 414.880959955 99.8511980137 405.575733883 c 128,-1,5
 111.224856965 396.270507812 111.224856965 396.270507812 124.248046875 396.270507812 c 128,-1,6
 137.173181286 396.270507812 137.173181286 396.270507812 152.42545783 405.070030599 c 128,-1,7
 167.677734375 413.869553385 167.677734375 413.869553385 167.677734375 428.060546875 c 0,8,9
 167.677734375 444.840783512 167.677734375 444.840783512 146.266601562 489.802734375 c 1,0,1
198.09765625 499.500976562 m 1,10,11
 218.66796875 455.021395989 218.66796875 455.021395989 218.66796875 428.060546875 c 0,12,13
 218.66796875 397.377929687 218.66796875 397.377929687 197.569335938 376.279296875 c 0,14,15
 166.570312499 345.280273438 166.570312499 345.280273438 124.248046875 345.280273438 c 0,16,17
 89.9445052304 345.280273438 89.9445052304 345.280273438 63.7159049589 369.189062145 c 128,-1,18
 37.4873046875 393.097850851 37.4873046875 393.097850851 37.4873046875 427.774414062 c 0,19,20
 37.4873046875 468.198242186 37.4873046875 468.198242186 71.1240234375 501.834960938 c 0,21,22
 122.149414062 552.860351562 122.149414062 552.860351562 248.291992188 552.860351562 c 0,23,24
 394.173828126 552.860351562 394.173828126 552.860351562 448.581054688 498.453125 c 0,25,26
 473.586914062 473.445630079 473.586914062 473.445630079 473.586914062 440.064453125 c 0,27,28
 473.586914062 397.776367185 473.586914062 397.776367185 429.35546875 353.544921875 c 0,29,30
 387.252718678 311.442171803 387.252718678 311.442171803 313.243164062 273.403320312 c 1,31,32
 415.216346084 252.124474227 415.216346084 252.124474227 462.158203125 205.182617188 c 0,33,34
 491.569335938 175.771484375 491.569335938 175.771484375 491.569335938 141.505859375 c 0,35,36
 491.569335938 92.4481403771 491.569335938 92.4481403771 456.482551704 52.675593037 c 128,-1,37
 421.395767469 12.9030456969 421.395767469 12.9030456969 373.649284234 -6.54310605782 c 128,-1,38
 325.902801 -25.9892578125 325.902801 -25.9892578125 280.07421875 -25.9892578125 c 0,39,40
 183.107910155 -25.9892578125 183.107910155 -25.9892578125 116.171875 -15.69140625 c 0,41,42
 107.430524205 -14.3460687563 107.430524205 -14.3460687563 101.216726946 -7.23778528025 c 128,-1,43
 95.0029296875 -0.129501804205 95.0029296875 -0.129501804205 95.0029296875 9.01171875 c 0,44,45
 95.0029296875 19.9566140111 95.0029296875 19.9566140111 102.330313432 27.4758655993 c 128,-1,46
 109.657697177 34.9951171875 109.657697177 34.9951171875 120.150390625 34.9951171875 c 0,47,48
 122.072010443 34.9951171875 122.072010443 34.9951171875 123.9765625 34.703125 c 0,49,50
 187.037999426 25.0009765625 187.037999426 25.0009765625 280.07421875 25.0009765625 c 0,51,52
 311.734256307 25.0009765625 311.734256307 25.0009765625 348.036998322 38.6085520391 c 128,-1,53
 384.339740336 52.2161275157 384.339740336 52.2161275157 412.459420949 80.0883880651 c 128,-1,54
 440.579101562 107.960648614 440.579101562 107.960648614 440.579101562 141.505859375 c 0,55,56
 440.579101562 154.55859375 440.579101562 154.55859375 426.108398438 169.029296875 c 0,57,58
 396.523786564 198.61320591 396.523786564 198.61320591 334.751384925 215.818543023 c 128,-1,59
 272.978983285 233.023880137 272.978983285 233.023880137 205.696289062 234.013671875 c 0,60,61
 195.378375499 234.165201361 195.378375499 234.165201361 188.191629156 241.735590266 c 128,-1,62
 181.004882812 249.30597917 181.004882812 249.30597917 181.004882812 260 c 0,63,64
 181.004882812 269.173962612 181.004882812 269.173962612 187.262307468 276.297357843 c 128,-1,65
 193.519732123 283.420753074 193.519732123 283.420753074 202.3125 284.723632812 c 0,66,67
 227.467261538 288.451322683 227.467261538 288.451322683 277.62890625 312.793945312 c 0,68,69
 352.447932971 349.100276721 352.447932971 349.100276721 393.361328125 390.013671875 c 0,70,71
 422.594726562 419.24566025 422.594726562 419.24566025 422.594726562 440.217773438 c 0,72,73
 422.594726562 452.404296876 422.594726562 452.404296876 412.536132812 462.462890625 c 0,74,75
 394.319072178 480.67995126 394.319072178 480.67995126 346.260384862 491.213999067 c 128,-1,76
 298.201697546 501.748046875 298.201697546 501.748046875 248.259765625 501.748046875 c 0,77,78
 222.442671532 501.748046875 222.442671532 501.748046875 198.09765625 499.500976562 c 1,10,11
EndSplineSet
Validated: 1
EndChar

StartChar: DiakCA
Encoding: 71953 71953 41
Width: 882
Flags: W
HStem: -24.9082 50.8628<318.934 564.792> 348.829 50.9848<104.186 240.111> 486.556 50.9902<293.562 400.639>
VStem: 40.4382 51.1946<412.84 519.298> 247.126 50.9902<412.75 482.976> 419.016 50.9902<362.223 467.409> 766.005 50.9902<206.418 354.223>
LayerCount: 2
Fore
SplineSet
91.632793076 464.381835938 m 0,0,1
 91.632793076 435.069094267 91.632793076 435.069094267 107.345603001 417.441380751 c 128,-1,2
 123.058412925 399.813667235 123.058412925 399.813667235 152.118337588 399.813667235 c 0,3,4
 219.004188707 399.813667235 219.004188707 399.813667235 241.660394307 422.469872835 c 0,5,6
 247.125995986 427.935474515 247.125995986 427.935474515 247.125995986 435.124023438 c 0,7,8
 247.125995986 438.981727043 247.125995986 438.981727043 245.846770136 443.737184753 c 0,9,10
 241.117206924 461.30438159 241.117206924 461.30438159 241.117206924 475.591796875 c 0,11,12
 241.117206924 502.648432714 241.117206924 502.648432714 257.453961513 518.985187302 c 0,13,14
 276.014653225 537.545879014 276.014653225 537.545879014 313.958984375 537.545879014 c 0,15,16
 320.297514223 537.545879014 320.297514223 537.545879014 332.643733447 536.718730576 c 128,-1,17
 344.989952671 535.891582139 344.989952671 535.891582139 350.461914062 535.891582139 c 0,18,19
 370.101528505 535.891582139 370.101528505 535.891582139 394.285176722 526.154233547 c 0,20,21
 470.005839951 495.665926455 470.005839951 495.665926455 470.005839951 438.775390625 c 0,22,23
 470.005839951 372.914125658 470.005839951 372.914125658 426.062411601 308.313859469 c 128,-1,24
 382.118983251 243.713593281 382.118983251 243.713593281 323.142195973 222.415857351 c 2,25,-1
 161.794670464 164.197846034 l 1,26,27
 218.465730227 95.868373658 218.465730227 95.868373658 274.182084613 67.0491136745 c 0,28,29
 353.630560224 25.9546338028 353.630560224 25.9546338028 440.274283351 25.9546338028 c 0,30,31
 498.294485543 25.9546338028 498.294485543 25.9546338028 556.645720976 44.671341103 c 0,32,33
 585.86568639 54.0435811101 585.86568639 54.0435811101 622.508716474 77.4539825991 c 128,-1,34
 659.151746558 100.864384088 659.151746558 100.864384088 690.017091266 131.729728796 c 0,35,36
 766.004902236 207.717539766 766.004902236 207.717539766 766.004902236 282 c 0,37,38
 766.004902236 320.937093244 766.004902236 320.937093244 743.017325485 356.590250483 c 0,39,40
 739.045917862 362.749804488 739.045917862 362.749804488 739.045917859 370.125976562 c 0,41,42
 739.045917861 380.306252045 739.045917861 380.306252045 746.649841166 387.984170998 c 128,-1,43
 754.25376447 395.662089951 754.25376447 395.662089951 764.8828125 395.662089951 c 0,44,45
 778.518473659 395.662089951 778.518473659 395.662089951 785.906889387 384.202118413 c 0,46,47
 816.995097764 335.982040355 816.995097764 335.982040355 816.995097764 282 c 0,48,49
 816.995097764 234.243580849 816.995097764 234.243580849 793.014541038 185.868802562 c 128,-1,50
 769.033984313 137.494024275 769.033984313 137.494024275 731.946695598 100.46018196 c 128,-1,51
 694.859406883 63.4263396463 694.859406883 63.4263396463 652.898824108 35.9742312735 c 128,-1,52
 610.938241333 8.52212290076 610.938241333 8.52212290076 572.278095589 -3.87837606069 c 0,53,54
 506.713075117 -24.9081777868 506.713075117 -24.9081777868 440.570391486 -24.9081777868 c 0,55,56
 340.935416364 -24.9081777868 340.935416364 -24.9081777868 250.741909975 21.7437689738 c 0,57,58
 209.688961698 42.9778869711 209.688961698 42.9778869711 168.068729032 82.7301991082 c 128,-1,59
 126.448496366 122.482511245 126.448496366 122.482511245 99.0371296681 162.545356459 c 0,60,61
 94.689472549 168.899637009 94.689472549 168.899637009 94.689472549 176.647460938 c 0,62,63
 94.689472549 194.209236691 94.689472549 194.209236691 111.174129771 200.157355787 c 2,64,-1
 305.775735158 270.374982784 l 2,65,66
 349.526793572 286.173858408 349.526793572 286.173858408 384.271218998 338.908340441 c 128,-1,67
 419.015644424 391.642822474 419.015644424 391.642822474 419.015644424 438.775390625 c 0,68,69
 419.015644424 454.965041392 419.015644424 454.965041392 394.515587118 469.933214002 c 128,-1,70
 370.015529812 484.901386611 370.015529812 484.901386611 350.461914062 484.901386611 c 0,71,72
 344.214787543 484.901386611 344.214787543 484.901386611 331.886463953 485.728535049 c 128,-1,73
 319.558140364 486.555683486 319.558140364 486.555683486 313.958984375 486.555683486 c 0,74,75
 297.116578807 486.555683486 297.116578807 486.555683486 293.536840066 482.975944745 c 0,76,77
 292.107402451 482.448596204 292.107402451 482.448596204 292.107402451 475.591796875 c 0,78,79
 292.107402451 470.937581377 292.107402451 470.937581377 295.111796982 456.084475902 c 128,-1,80
 298.116191514 441.231370427 298.116191514 441.231370427 298.116191514 435.124023438 c 0,81,82
 298.116191514 406.747862316 298.116191514 406.747862316 277.745164395 386.376835195 c 0,83,84
 240.197225126 348.828895926 240.197225126 348.828895926 152.437235739 348.828895926 c 0,85,86
 102.992945261 348.828895926 102.992945261 348.828895926 71.715573578 381.887074266 c 128,-1,87
 40.4382018951 414.945252605 40.4382018951 414.945252605 40.4382018951 463.67764248 c 0,88,89
 40.4382018951 489.769457437 40.4382018951 489.769457437 47.8203031933 511.670851819 c 128,-1,90
 55.2024044915 533.572246201 55.2024044915 533.572246201 73.99609375 533.572246201 c 0,91,92
 84.9530441092 533.572246201 84.9530441092 533.572246201 92.4384264051 526.090311312 c 128,-1,93
 99.923808701 518.608376424 99.923808701 518.608376424 99.923808701 508.215820312 c 0,94,95
 99.923808701 503.523406412 99.923808701 503.523406412 98.2375208144 499.167608816 c 0,96,97
 91.632793076 482.10714277 91.632793076 482.10714277 91.632793076 464.381835938 c 0,0,1
EndSplineSet
Validated: 1
EndChar

StartChar: DiakCHA
Encoding: 71954 71954 42
Width: 1268
Flags: W
HStem: -155.278 50.9902<651.314 920.05> -24.8887 51.3496<305.393 580.55> 52.876 50.9902<810.268 931.3> 342.933 50.9844<105.608 242.178> 391.046 50.9863<847.824 946.437> 479.005 50.9902<296.247 408.537> 557.043 50.9902<786.383 991.66>
VStem: 42.1699 50.9902<406.01 513.424> 249.262 50.9902<407.065 477.726> 420.499 50.9902<349.967 464.607> 592.479 50.9902<240.301 431.039> 787.08 51.0977<233.626 384.041> 804.88 50.8086<167.968 327.622> 996.494 50.9902<179.059 341.385> 1152.98 50.9902<146.369 412.12>
LayerCount: 2
Fore
SplineSet
243.21484375 463.408203125 m 0,0,1
 243.21484375 529.995117188 243.21484375 529.995117188 350.513671875 529.995117188 c 2,2,3
 351.989257812 529.995117188 l 2,4,5
 377.276576066 529.995117188 377.276576066 529.995117188 405.599609375 518.088867188 c 0,6,7
 471.489257812 490.390086563 471.489257812 490.390086563 471.489257812 434.971679688 c 0,8,9
 471.489257812 359.876450405 471.489257812 359.876450405 431.20655217 305.092676532 c 128,-1,10
 390.923846527 250.30890266 390.923846527 250.30890266 327.642578125 217.8125 c 0,11,12
 248.146952684 176.9911203 248.146952684 176.9911203 164.838867188 156.481445312 c 1,13,14
 220.983696926 89.4591865661 220.983696926 89.4591865661 275.708984375 61.15234375 c 0,15,16
 342.78008941 26.4609375 342.78008941 26.4609375 437.405273438 26.4609375 c 0,17,18
 512.606429314 26.4609375 512.606429314 26.4609375 582.172851562 48.7744140625 c 0,19,20
 662.557957856 74.5602033818 662.557957856 74.5602033818 717.392578125 109.46484375 c 1,21,22
 592.479492188 192.752352975 592.479492188 192.752352975 592.479492188 333.7265625 c 0,23,24
 592.479492188 444.822554652 592.479492188 444.822554652 664.455078125 516.799804688 c 0,25,26
 712.219312622 564.564039184 712.219312622 564.564039184 775.626281196 586.298621154 c 128,-1,27
 839.033249771 608.033203125 839.033249771 608.033203125 893.568359375 608.033203125 c 0,28,29
 953.609185692 608.033203125 953.609185692 608.033203125 1021.63085938 577.87890625 c 0,30,31
 1097.87384191 544.080032603 1097.87384191 544.080032603 1149.19816718 481.441531678 c 128,-1,32
 1200.52249245 418.803030754 1200.52249245 418.803030754 1203.46972656 331.365234375 c 0,33,34
 1203.96972656 316.506603422 1203.96972656 316.506603422 1203.96972656 302.400390625 c 0,35,36
 1203.96972656 199.122667636 1203.96972656 199.122667636 1173.85666196 115.103054374 c 128,-1,37
 1143.74359736 31.0834411111 1143.74359736 31.0834411111 1073.6875 -38.97265625 c 0,38,39
 1051.79176804 -60.8683882133 1051.79176804 -60.8683882133 1025.828125 -81.4873046875 c 0,40,41
 932.906150814 -155.278320312 932.906150814 -155.278320312 792.357421875 -155.278320312 c 0,42,43
 720.137291408 -155.278320312 720.137291408 -155.278320312 647.46875 -136.15234375 c 0,44,45
 639.674441747 -134.100619915 639.674441747 -134.100619915 634.270814624 -127.262105973 c 128,-1,46
 628.8671875 -120.423592032 628.8671875 -120.423592032 628.8671875 -111.983398438 c 0,47,48
 628.8671875 -100.981133099 628.8671875 -100.981133099 636.261987019 -93.5013087372 c 128,-1,49
 643.656786539 -86.021484375 643.656786539 -86.021484375 654.116210938 -86.021484375 c 0,50,51
 657.369628906 -86.021484375 657.369628906 -86.021484375 660.508789062 -86.84765625 c 0,52,53
 726.786813088 -104.288085938 726.786813088 -104.288085938 792.357421875 -104.288085938 c 0,54,55
 915.100131115 -104.288085938 915.100131115 -104.288085938 994.150390625 -41.5126953125 c 0,56,57
 1017.83844869 -22.7015903822 1017.83844869 -22.7015903822 1037.65332031 -2.88671875 c 0,58,59
 1100.26346627 59.7234272142 1100.26346627 59.7234272142 1126.62147923 133.340664245 c 128,-1,60
 1152.97949219 206.957901275 1152.97949219 206.957901275 1152.97949219 302.400390625 c 0,61,62
 1152.97949219 315.674037026 1152.97949219 315.674037026 1152.50878906 329.633789062 c 0,63,64
 1150.09301917 401.307300152 1150.09301917 401.307300152 1107.4615381 452.109980932 c 128,-1,65
 1064.83005704 502.912661712 1064.83005704 502.912661712 1000.94042969 531.25 c 0,66,67
 942.785892338 557.04296875 942.785892338 557.04296875 893.568359375 557.04296875 c 0,68,69
 848.920119721 557.04296875 848.920119721 557.04296875 793.954784493 538.142673851 c 128,-1,70
 738.989449266 519.242378953 738.989449266 519.242378953 700.646484375 480.899414062 c 0,71,72
 643.469726562 423.724331907 643.469726562 423.724331907 643.469726562 333.686523438 c 0,73,74
 643.469726562 211.272317502 643.469726562 211.272317502 760.517578125 142.66015625 c 1,75,76
 804.879882812 184.997365416 804.879882812 184.997365416 804.879882812 232.883789062 c 0,77,78
 804.879882812 254.023653439 804.879882812 254.023653439 796.1015625 277.56640625 c 0,79,80
 787.080078125 301.761636676 787.080078125 301.761636676 787.080078125 328.232421875 c 0,81,82
 787.080078125 375.67289637 787.080078125 375.67289637 812.652609278 408.852561466 c 128,-1,83
 838.22514043 442.032226562 838.22514043 442.032226562 881.76171875 442.032226562 c 0,84,85
 949.706534195 442.032226562 949.706534195 442.032226562 998.595454598 392.089047165 c 128,-1,86
 1047.484375 342.145867767 1047.484375 342.145867767 1047.484375 268.5 c 0,87,88
 1047.484375 168.153043936 1047.484375 168.153043936 980.518554688 101.185546875 c 0,89,90
 932.208984375 52.8759765625 932.208984375 52.8759765625 877.469726562 52.8759765625 c 0,91,92
 829.631210393 52.8759765625 829.631210393 52.8759765625 767.158203125 81.7314453125 c 1,93,94
 703.136560234 34.0112794851 703.136560234 34.0112794851 597.805664062 0.2255859375 c 0,95,96
 519.511033884 -24.888671875 519.511033884 -24.888671875 436.745117188 -24.888671875 c 0,97,98
 331.026904433 -24.888671875 331.026904433 -24.888671875 252.26953125 15.84765625 c 0,99,100
 211.218893899 37.0798125989 211.218893899 37.0798125989 169.599023 76.8302384783 c 128,-1,101
 127.979152102 116.580664358 127.979152102 116.580664358 100.571289062 156.639648438 c 0,102,103
 96.2236328128 162.992675781 96.2236328128 162.992675781 96.223632812 170.741210938 c 128,-1,104
 96.2236328125 178.373588531 96.2236328125 178.373588531 99.6788017109 184.084037754 c 128,-1,105
 103.133970609 189.794486977 103.133970609 189.794486977 111.965463914 193.764407559 c 128,-1,106
 120.796957219 197.734328141 120.796957219 197.734328141 125.139926711 199.409459629 c 128,-1,107
 129.482896203 201.084591116 129.482896203 201.084591116 142.457213914 203.885063809 c 128,-1,108
 155.431531625 206.685536502 155.431531625 206.685536502 155.973632812 206.818359375 c 0,109,110
 229.774605777 224.898649713 229.774605777 224.898649713 304.3359375 263.1875 c 0,111,112
 420.499023438 322.837667908 420.499023438 322.837667908 420.499023438 434.915039062 c 0,113,114
 420.499023438 453.066514023 420.499023438 453.066514023 397.117895264 466.035698418 c 128,-1,115
 373.73676709 479.004882812 373.73676709 479.004882812 351.989257812 479.004882812 c 0,116,117
 294.205078125 479.004882812 294.205078125 479.004882812 294.205078125 463.408203125 c 0,118,119
 294.205078125 458.482177734 294.205078125 458.482177734 297.228515625 445.992919922 c 128,-1,120
 300.251953125 433.50366211 300.251953125 433.50366211 300.251953125 427.928710938 c 0,121,122
 300.251953125 400.682926947 300.251953125 400.682926947 280.3984375 380.831054688 c 0,123,124
 242.5 342.932617188 242.5 342.932617188 153.954101562 342.932617188 c 0,125,126
 104.300505515 342.932617188 104.300505515 342.932617188 73.2352136951 376.286766722 c 128,-1,127
 42.169921875 409.640916256 42.169921875 409.640916256 42.169921875 458.485351562 c 0,128,129
 42.169921875 484.447105336 42.169921875 484.447105336 49.4903465382 506.061443293 c 128,-1,130
 56.8107712014 527.67578125 56.8107712014 527.67578125 75.5234375 527.67578125 c 0,131,132
 86.4803800645 527.67578125 86.4803800645 527.67578125 93.9657759697 520.193738575 c 128,-1,133
 101.451171875 512.7116959 101.451171875 512.7116959 101.451171875 502.319335938 c 0,134,135
 101.451171875 497.627726061 101.451171875 497.627726061 99.7646484375 493.271484369 c 0,136,137
 93.16015625 476.209879557 93.16015625 476.209879557 93.16015625 458.485351562 c 0,138,139
 93.16015625 429.172645491 93.16015625 429.172645491 108.872920684 411.544818839 c 128,-1,140
 124.585685117 393.916992188 124.585685117 393.916992188 153.645507812 393.916992188 c 0,141,142
 221.300781251 393.916992188 221.300781251 393.916992188 244.318359375 416.934570312 c 0,143,144
 249.26171875 421.877929688 249.26171875 421.877929688 249.26171875 427.928710938 c 0,145,146
 249.26171875 433.440673828 249.26171875 433.440673828 246.23828125 445.65600586 c 128,-1,147
 243.21484375 457.871337891 243.21484375 457.871337891 243.21484375 463.408203125 c 0,0,1
855.688476562 232.791015625 m 0,148,149
 855.688476562 171.382961171 855.688476562 171.382961171 809.163085938 119.551757812 c 1,150,151
 851.138295144 103.866210938 851.138295144 103.866210938 877.469726562 103.866210938 c 0,152,153
 911.051317523 103.866210938 911.051317523 103.866210938 944.450195312 137.266601562 c 0,154,155
 996.494140625 189.310546875 996.494140625 189.310546875 996.494140625 268.5 c 0,156,157
 996.494140625 321.438398047 996.494140625 321.438398047 962.835654528 356.242148242 c 128,-1,158
 929.177168431 391.045898438 929.177168431 391.045898438 881.529296875 391.045898438 c 0,159,160
 860.483612848 391.045898438 860.483612848 391.045898438 849.330673612 372.675247653 c 128,-1,161
 838.177734375 354.304596868 838.177734375 354.304596868 838.177734375 328.337890625 c 0,162,163
 838.177734375 310.716137833 838.177734375 310.716137833 843.876953125 295.43359375 c 0,164,165
 855.688476562 263.753461876 855.688476562 263.753461876 855.688476562 232.791015625 c 0,148,149
EndSplineSet
Validated: 33
EndChar

StartChar: DiakJA
Encoding: 71955 71955 43
Width: 826
Flags: W
HStem: -24.9951 50.9902<347.828 541.4> 239.005 50.9678<636.119 719.085> 344.94 50.9844<119.609 256.075> 481.013 50.9902<310.14 378.043>
VStem: 55.8613 51.1943<408.952 515.41> 263.157 50.9902<409.074 479.733> 396.399 50.9902<315.24 475.962> 534.603 50.9902<50.0028 179.097> 726.032 50.9902<127.228 234.424>
LayerCount: 2
Fore
SplineSet
365.884765625 532.002929688 m 2,0,1
 404.551393049 532.002929688 404.551393049 532.002929688 425.970520744 497.308237824 c 128,-1,2
 447.389648438 462.613545961 447.389648438 462.613545961 447.389648438 419.514648438 c 0,3,4
 447.389648438 362.729063959 447.389648438 362.729063959 433.291015625 321.53515625 c 0,5,6
 422.566403362 290.199555154 422.566403362 290.199555154 386.681640625 239.74609375 c 0,7,8
 342.076932395 177.030534082 342.076932395 177.030534082 254.693359375 105.3515625 c 1,9,10
 286.954978647 75.1035331809 286.954978647 75.1035331809 340.413389651 50.5493251842 c 128,-1,11
 393.871800655 25.9951171875 393.871800655 25.9951171875 446 25.9951171875 c 0,12,13
 495.9071502 25.9951171875 495.9071502 25.9951171875 542.084960938 35.7392578125 c 1,14,15
 534.602539062 62.7178770161 534.602539062 62.7178770161 534.602539062 91.537109375 c 0,16,17
 534.602539062 136.185193804 534.602539062 136.185193804 551.270343985 179.441554169 c 128,-1,18
 567.938148909 222.697914534 567.938148909 222.697914534 590.286132812 245.045898438 c 0,19,20
 635.212890628 289.97265625 635.212890628 289.97265625 688.586914062 289.97265625 c 0,21,22
 727.850269458 289.97265625 727.850269458 289.97265625 752.436365198 259.216131529 c 128,-1,23
 777.022460938 228.459606808 777.022460938 228.459606808 777.022460938 184.907226562 c 0,24,25
 777.022460938 121.383705865 777.022460938 121.383705865 728.823920074 74.5983566867 c 128,-1,26
 680.625379209 27.8130075086 680.625379209 27.8130075086 613.064453125 3.044921875 c 1,27,28
 646.307893711 -45.0805523165 646.307893711 -45.0805523165 718.55859375 -78.328125 c 0,29,30
 733.08984375 -85.0157528738 733.08984375 -85.0157528738 733.08984375 -101.038085938 c 0,31,32
 733.08984375 -111.926173581 733.08984375 -111.926173581 725.556930614 -119.433789916 c 128,-1,33
 718.024017478 -126.94140625 718.024017478 -126.94140625 707.67578125 -126.94140625 c 0,34,35
 702.177734376 -126.94140625 702.177734376 -126.94140625 697.211914062 -124.65625 c 0,36,37
 602.514531059 -81.0782814172 602.514531059 -81.0782814172 562.268554688 -12.0166015625 c 1,38,39
 506.531639391 -24.9951171875 506.531639391 -24.9951171875 446 -24.9951171875 c 0,40,41
 380.166627219 -24.9951171875 380.166627219 -24.9951171875 316.761320212 4.75419122477 c 128,-1,42
 253.356013206 34.503499637 253.356013206 34.503499637 214.7421875 73.1181640625 c 0,43,44
 214.113793777 73.7464915066 214.113793777 73.7464915066 210.027123735 77.7299024424 c 128,-1,45
 205.940453694 81.7133133783 205.940453694 81.7133133783 204.617610965 83.1377733388 c 128,-1,46
 203.294768237 84.5622332994 203.294768237 84.5622332994 200.174123518 88.3600565223 c 128,-1,47
 197.0534788 92.1578797452 197.0534788 92.1578797452 195.82768041 94.7192620541 c 128,-1,48
 194.601882019 97.280644363 194.601882019 97.280644363 193.407386322 101.080054352 c 128,-1,49
 192.212890625 104.879464341 192.212890625 104.879464341 192.212890625 108.611328125 c 0,50,51
 192.212890625 120.768423756 192.212890625 120.768423756 201.78125 128.287109375 c 0,52,53
 299.330191313 204.933887299 299.330191313 204.933887299 345.087890625 269.26953125 c 0,54,55
 364.379572463 296.393816143 364.379572463 296.393816143 373.052494027 311.480024173 c 128,-1,56
 381.725415591 326.566232203 381.725415591 326.566232203 389.062414826 354.616004473 c 128,-1,57
 396.399414062 382.665776744 396.399414062 382.665776744 396.399414062 419.514648438 c 0,58,59
 396.399414062 456.73925781 396.399414062 456.73925781 378.268554688 474.870117188 c 0,60,61
 372.125976563 481.012695312 372.125976563 481.012695312 365.884765625 481.012695312 c 0,62,63
 308.100585938 481.012695312 308.100585938 481.012695312 308.100585938 465.416015625 c 0,64,65
 308.100585938 460.489990234 308.100585938 460.489990234 311.124023438 448.000732422 c 128,-1,66
 314.147460938 435.51147461 314.147460938 435.51147461 314.147460938 429.936523438 c 0,67,68
 314.147460938 402.693049672 314.147460938 402.693049672 294.294921875 382.838867188 c 0,69,70
 256.395116595 344.940429688 256.395116595 344.940429688 167.860351562 344.940429688 c 0,71,72
 118.416053314 344.940429688 118.416053314 344.940429688 87.1386907196 377.998570528 c 128,-1,73
 55.861328125 411.056711368 55.861328125 411.056711368 55.861328125 459.7890625 c 0,74,75
 55.861328125 485.881143505 55.861328125 485.881143505 63.2432134401 507.782368627 c 128,-1,76
 70.6250987553 529.68359375 70.6250987553 529.68359375 89.4189453125 529.68359375 c 0,77,78
 100.375887877 529.68359375 100.375887877 529.68359375 107.861283783 522.201551075 c 128,-1,79
 115.346679688 514.7195084 115.346679688 514.7195084 115.346679688 504.327148438 c 0,80,81
 115.346679688 499.63553856 115.346679688 499.63553856 113.66015625 495.279296869 c 0,82,83
 107.055664062 478.217692056 107.055664062 478.217692056 107.055664062 460.493164062 c 0,84,85
 107.055664062 431.180457991 107.055664062 431.180457991 122.768428496 413.552631339 c 128,-1,86
 138.481192929 395.924804688 138.481192929 395.924804688 167.541015625 395.924804688 c 0,87,88
 235.196289064 395.924804688 235.196289064 395.924804688 258.213867188 418.942382812 c 0,89,90
 263.157226562 423.885742189 263.157226562 423.885742189 263.157226562 429.936523438 c 0,91,92
 263.157226562 435.448486328 263.157226562 435.448486328 260.133789062 447.66381836 c 128,-1,93
 257.110351562 459.879150391 257.110351562 459.879150391 257.110351562 465.416015625 c 0,94,95
 257.110351562 532.002929688 257.110351562 532.002929688 364.405273438 532.002929688 c 2,96,-1
 365.884765625 532.002929688 l 2,0,1
726.032226562 184.907226562 m 0,97,98
 726.032226562 206.271664863 726.032226562 206.271664863 716.442616745 222.638273838 c 128,-1,99
 706.853006928 239.004882812 706.853006928 239.004882812 688.580078125 239.004882812 c 0,100,101
 654.545992992 239.004882812 654.545992992 239.004882812 624.462890625 207.040039062 c 0,102,103
 611.237861991 192.988993762 611.237861991 192.988993762 598.415317714 157.303720548 c 128,-1,104
 585.592773438 121.618447333 585.592773438 121.618447333 585.592773438 91.537109375 c 0,105,106
 585.592773438 69.5837774075 585.592773438 69.5837774075 591.200195312 49.400390625 c 1,107,108
 652.125786473 70.9138724105 652.125786473 70.9138724105 688.606445312 107.39453125 c 0,109,110
 726.032226562 144.81888398 726.032226562 144.81888398 726.032226562 184.907226562 c 0,97,98
EndSplineSet
Validated: 33
EndChar

StartChar: DiakNYA
Encoding: 71957 71957 44
Width: 950
Flags: W
HStem: -24.9951 50.9902<504.012 577.4> 403.447 49.1904<828.228 895.631> 443.765 50.9902<138.477 255.82 489.586 627.718>
VStem: 47.1621 50.9902<259.905 405.244> 440.432 50.9902<29.8531 156.651> 699.1 50.9902<182.058 316.991>
LayerCount: 2
Fore
SplineSet
379.302734375 380.416992188 m 1,0,1
 396.985803541 403.824923507 396.985803541 403.824923507 411.139275988 419.793686388 c 128,-1,2
 425.292748435 435.76244927 425.292748435 435.76244927 447.051443617 455.122970105 c 128,-1,3
 468.810138799 474.483490941 468.810138799 474.483490941 493.888390978 484.619186876 c 128,-1,4
 518.966643157 494.754882812 518.966643157 494.754882812 545.990234375 494.754882812 c 0,5,6
 586.695486036 494.754882812 586.695486036 494.754882812 628.536715023 478.874992839 c 128,-1,7
 670.37794401 462.995102866 670.37794401 462.995102866 700.885742188 432.487304688 c 0,8,9
 719.352280231 414.020766644 719.352280231 414.020766644 730.817382812 391.883789062 c 1,10,11
 801.484145709 427.357208685 801.484145709 427.357208685 861.427734375 450.90625 c 0,12,13
 865.833984375 452.637695313 865.833984375 452.637695313 870.590820312 452.637695311 c 0,14,15
 880.871539819 452.637695312 880.871539819 452.637695312 888.411355847 445.103222321 c 128,-1,16
 895.951171875 437.56874933 895.951171875 437.56874933 895.951171875 426.7109375 c 0,17,18
 895.951171875 409.665986085 895.951171875 409.665986085 880.119140625 403.447265625 c 0,19,20
 819.188969637 379.510297887 819.188969637 379.510297887 746.747070312 342.745117188 c 1,21,22
 750.08984375 322.894925341 750.08984375 322.894925341 750.08984375 299.859375 c 0,23,24
 750.08984375 242.166013262 750.08984375 242.166013262 731.004714672 180.849907384 c 128,-1,25
 711.919585594 119.533801505 711.919585594 119.533801505 679.19140625 75.8955078125 c 0,26,27
 634.574230298 16.4070707297 634.574230298 16.4070707297 580.202148438 -10.275390625 c 0,28,29
 550.208462432 -24.9951171875 550.208462432 -24.9951171875 524 -24.9951171875 c 0,30,31
 485.877854953 -24.9951171875 485.877854953 -24.9951171875 463.154747789 5.66165217934 c 128,-1,32
 440.431640625 36.3184215462 440.431640625 36.3184215462 440.431640625 76.1279296875 c 0,33,34
 440.431640625 115.529204033 440.431640625 115.529204033 462.499678605 169.31617069 c 128,-1,35
 484.567716585 223.103137346 484.567716585 223.103137346 515.5234375 254.059570312 c 0,36,37
 565.347557438 303.88369025 565.347557438 303.88369025 685.55078125 368.3828125 c 1,38,39
 668.531372583 401.310143791 668.531372583 401.310143791 627.447872111 422.537396114 c 128,-1,40
 586.364371639 443.764648438 586.364371639 443.764648438 545.990234375 443.764648438 c 0,41,42
 524.620232062 443.764648438 524.620232062 443.764648438 503.357965746 432.612659045 c 128,-1,43
 482.09569943 421.460669652 482.09569943 421.460669652 461.250539503 398.854641371 c 128,-1,44
 440.405379576 376.248613089 440.405379576 376.248613089 429.63979558 362.523334093 c 128,-1,45
 418.874211584 348.798055097 418.874211584 348.798055097 401.184570312 323.872070312 c 0,46,47
 393.703209631 313.329101562 393.703209631 313.329101562 380.78125 313.329101562 c 0,48,49
 368.164642475 313.329101562 368.164642475 313.329101562 360.66015625 323.482421875 c 0,50,51
 320.932516944 377.231242497 320.932516944 377.231242497 247.245117188 428.163085938 c 0,52,53
 229.334400709 440.543013869 229.334400709 440.543013869 216.838867188 446.211914062 c 2,54,-1
 206.7734375 449.681640625 l 1,55,56
 185.462870234 449.681640625 185.462870234 449.681640625 161.809037478 438.284630761 c 128,-1,57
 138.155204721 426.887620897 138.155204721 426.887620897 121.978515625 408.400390625 c 0,58,59
 98.15234375 381.171059716 98.15234375 381.171059716 98.15234375 333.856445312 c 0,60,61
 98.15234375 295.478980654 98.15234375 295.478980654 118.479492188 262.568359375 c 0,62,63
 122.194335938 256.553710938 122.194335938 256.553710938 122.194335938 249.439453125 c 0,64,65
 122.194335938 239.253283843 122.194335938 239.253283843 114.601340709 231.586114577 c 128,-1,66
 107.00834548 223.918945312 107.00834548 223.918945312 96.34765625 223.918945312 c 0,67,68
 82.39716079 223.918945312 82.39716079 223.918945312 75.0673828125 235.78515625 c 0,69,70
 47.162109375 280.965057842 47.162109375 280.965057842 47.162109375 333.856445312 c 0,71,72
 47.162109375 405.570277978 47.162109375 405.570277978 94.0686514861 453.121076489 c 128,-1,73
 140.975193597 500.671875 140.975193597 500.671875 206.7734375 500.671875 c 0,74,75
 220.1272889 500.671875 220.1272889 500.671875 237.669921875 492.776367188 c 0,76,77
 254.335776444 485.276466489 254.335776444 485.276466489 275.995117188 470.364257812 c 0,78,79
 330.969818407 432.511372662 330.969818407 432.511372662 379.302734375 380.416992188 c 1,0,1
524 25.9951171875 m 0,80,81
 538.312196411 25.9951171875 538.312196411 25.9951171875 557.740234375 35.541015625 c 0,82,83
 618.491543604 65.3922322296 618.491543604 65.3922322296 658.795576489 140.749663688 c 128,-1,84
 699.099609375 216.107095146 699.099609375 216.107095146 699.099609375 299.859375 c 0,85,86
 699.099609375 308.805337788 699.099609375 308.805337788 698.467773438 317.250976562 c 1,87,88
 592.551117081 258.949554581 592.551117081 258.949554581 551.518554688 217.916992188 c 0,89,90
 526.322761384 192.721198884 526.322761384 192.721198884 508.872318192 147.512426488 c 128,-1,91
 491.421875 102.303654092 491.421875 102.303654092 491.421875 76.1279296875 c 0,92,93
 491.421875 46.0375221916 491.421875 46.0375221916 509.423828125 30.4921875 c 0,94,95
 514.628320944 25.9951171875 514.628320944 25.9951171875 524 25.9951171875 c 0,80,81
EndSplineSet
Validated: 1
EndChar

StartChar: DiakTTA
Encoding: 71958 71958 45
Width: 776
Flags: W
HStem: -24.9951 50.9902<283.595 476.261> 511.005 50.9902<191.454 301.185>
VStem: 320.59 50.9902<344.702 494.424> 658.755 50.9492<158.942 247.775>
LayerCount: 2
Fore
SplineSet
187.03125 155.504882812 m 1,0,1
 205.114460177 126.523868565 205.114460177 126.523868565 218.728866615 108.515534084 c 128,-1,2
 232.343273052 90.5071996024 232.343273052 90.5071996024 254.513305626 68.8909600568 c 128,-1,3
 276.683338201 47.2747205112 276.683338201 47.2747205112 304.554519691 36.6349188494 c 128,-1,4
 332.42570118 25.9951171875 332.42570118 25.9951171875 366 25.9951171875 c 0,5,6
 442.743319942 25.9951171875 442.743319942 25.9951171875 509.74507883 61.8338680779 c 128,-1,7
 576.746837718 97.6726189684 576.746837718 97.6726189684 627.424804688 148.350585938 c 0,8,9
 647.340437094 168.266931093 647.340437094 168.266931093 653.047659953 178.648713275 c 128,-1,10
 658.754882812 189.030495457 658.754882812 189.030495457 658.754882812 203.541015625 c 0,11,12
 658.754882812 211.471272303 658.754882812 211.471272303 656.1484375 218.166015625 c 0,13,14
 653.12060759 225.946010182 653.12060759 225.946010182 631.444335938 255.40625 c 0,15,16
 626.601562499 261.986328125 626.601562499 261.986328125 626.601562502 270.205078125 c 0,17,18
 626.6015625 280.369557467 626.6015625 280.369557467 634.23904261 288.079798264 c 128,-1,19
 641.876522719 295.790039062 641.876522719 295.790039062 652.403320312 295.790039062 c 0,20,21
 665.050060958 295.790039062 665.050060958 295.790039062 672.553710938 285.596679688 c 0,22,23
 673.79650641 283.90834172 673.79650641 283.90834172 680.943836116 274.45146539 c 128,-1,24
 688.091165822 264.99458906 688.091165822 264.99458906 690.094290512 261.997997501 c 128,-1,25
 692.097415203 259.001405941 692.097415203 259.001405941 697.242492438 250.324349505 c 128,-1,26
 702.387569673 241.647293068 702.387569673 241.647293068 704.178781253 235.844026146 c 128,-1,27
 705.969992832 230.040759224 705.969992832 230.040759224 707.837047197 221.023405494 c 128,-1,28
 709.704101562 212.006051764 709.704101562 212.006051764 709.704101562 202.654296875 c 0,29,30
 709.704101562 182.84562751 709.704101562 182.84562751 702.788949178 165.051498867 c 128,-1,31
 695.873796794 147.257370223 695.873796794 147.257370223 678.220206095 127.988540196 c 128,-1,32
 660.566615395 108.719710168 660.566615395 108.719710168 652.490975546 101.196274258 c 128,-1,33
 644.415335696 93.6728383473 644.415335696 93.6728383473 620.6328125 73.169921875 c 0,34,35
 574.798585386 33.6573966106 574.798585386 33.6573966106 505.889281281 4.33113971154 c 128,-1,36
 436.979977177 -24.9951171875 436.979977177 -24.9951171875 366 -24.9951171875 c 0,37,38
 329.911633378 -24.9951171875 329.911633378 -24.9951171875 297.626167246 -13.6539860689 c 128,-1,39
 265.340701115 -2.31285495022 265.340701115 -2.31285495022 243.324434317 12.7312829438 c 128,-1,40
 221.308167518 27.7754208379 221.308167518 27.7754208379 198.229589121 54.302232681 c 128,-1,41
 175.151010725 80.8290445242 175.151010725 80.8290445242 162.746762442 99.2017204436 c 128,-1,42
 150.342514158 117.574396363 150.342514158 117.574396363 132.010742188 147.571289062 c 0,43,44
 128.357421874 153.547851562 128.357421874 153.547851562 128.357421877 160.599609375 c 0,45,46
 128.357421875 171.995860145 128.357421875 171.995860145 136.963867188 179.48046875 c 0,47,48
 190.322350322 225.877913809 190.322350322 225.877913809 250.4453125 282.994140625 c 0,49,50
 320.58984375 349.635008995 320.58984375 349.635008995 320.58984375 422.892578125 c 0,51,52
 320.58984375 473.436523439 320.58984375 473.436523439 299.196289062 494.830078125 c 0,53,54
 283.019858114 511.004882812 283.019858114 511.004882812 252 511.004882812 c 0,55,56
 229.621611574 511.004882812 229.621611574 511.004882812 194.435546875 491.018554688 c 0,57,58
 163.764247992 473.597934995 163.764247992 473.597934995 103.015625 425.865234375 c 0,59,60
 96.2444956405 420.545898438 96.2444956405 420.545898438 87.5888671875 420.545898438 c 0,61,62
 78.0849692029 420.545898438 78.0849692029 420.545898438 70.8370905386 427.217171689 c 128,-1,63
 63.5892118743 433.88844494 63.5892118743 433.88844494 62.70703125 443.154296875 c 2,64,-1
 54.6201171875 528.06640625 l 2,65,66
 54.5068359375 529.261008523 54.5068359375 529.261008523 54.5068359375 530.453125 c 0,67,68
 54.5068359375 540.879250568 54.5068359375 540.879250568 62.0922321365 548.211109659 c 128,-1,69
 69.6776283354 555.54296875 69.6776283354 555.54296875 80.498046875 555.54296875 c 0,70,71
 90.0019448596 555.54296875 90.0019448596 555.54296875 97.249823524 548.871695498 c 128,-1,72
 104.497702188 542.200422247 104.497702188 542.200422247 105.379882812 532.934570312 c 2,73,-1
 108.995117188 494.96875 l 1,74,75
 143.703749733 521.013356856 143.703749733 521.013356856 170.00390625 535.861328125 c 0,76,77
 216.293627198 561.995117188 216.293627198 561.995117188 252 561.995117188 c 0,78,79
 304.1167015 561.995117188 304.1167015 561.995117188 335.213867188 530.896484375 c 0,80,81
 371.580078125 494.531605582 371.580078125 494.531605582 371.580078125 422.892578125 c 0,82,83
 371.580078125 327.726780119 371.580078125 327.726780119 285.5546875 246.005859375 c 0,84,85
 230.850417767 194.032927275 230.850417767 194.032927275 187.03125 155.504882812 c 1,0,1
EndSplineSet
Validated: 1
EndChar

StartChar: DiakDDA
Encoding: 71960 71960 46
Width: 920
Flags: W
HStem: -25.9951 50.9902<261.996 385.674> -18.7334 50.9902<624.589 748.022> 348.242 50.9844<113.409 257.861> 484.241 51.0635<305.664 391.185>
VStem: 49.6611 51.1943<412.254 518.712> 189.018 50.9902<47.0217 143.31> 259.697 50.9902<410.503 481.31> 437.803 50.9893<342.728 439.365> 825.889 50.9902<103.136 216.423>
LayerCount: 2
Fore
SplineSet
240.0078125 89.1826171875 m 0,0,1
 240.0078125 62.5165011237 240.0078125 62.5165011237 264.831557462 43.7895005618 c 128,-1,2
 289.655302424 25.0625 289.655302424 25.0625 320.079101562 25.0625 c 0,3,4
 320.733642578 25.0625 320.733642578 25.0625 322.043212891 25.0288085938 c 128,-1,5
 323.352783203 24.9951171875 323.352783203 24.9951171875 324 24.9951171875 c 0,6,7
 390.379559986 24.9951171875 390.379559986 24.9951171875 478.216796875 134.791015625 c 0,8,9
 485.734625009 144.1875 485.734625009 144.1875 497.755859375 144.1875 c 0,10,11
 506.708496094 144.1875 506.708496094 144.1875 513.594726559 138.536132814 c 0,12,13
 594.248904395 72.3592373541 594.248904395 72.3592373541 622.25390625 55.525390625 c 0,14,15
 660.962713243 32.2568359375 660.962713243 32.2568359375 685.920898438 32.2568359375 c 0,16,17
 719.945217381 32.2568359375 719.945217381 32.2568359375 760.491739474 62.0602020137 c 128,-1,18
 801.038261566 91.8635680898 801.038261566 91.8635680898 818.986328125 124.868164062 c 0,19,20
 825.888671875 137.562630596 825.888671875 137.562630596 825.888671875 143.940429688 c 0,21,22
 825.888671875 201.254882814 825.888671875 201.254882814 771.126953125 256.016601562 c 0,23,24
 763.809570312 263.333984377 763.809570312 263.333984377 763.809570312 273.694335938 c 128,-1,25
 763.809570312 283.897557181 763.809570312 283.897557181 771.548626303 291.647020778 c 128,-1,26
 779.287682294 299.396484375 779.287682294 299.396484375 789.51171875 299.396484375 c 128,-1,27
 799.872070314 299.396484375 799.872070314 299.396484375 807.189453125 292.079101562 c 0,28,29
 876.87890625 222.389648437 876.87890625 222.389648437 876.87890625 143.940429688 c 0,30,31
 876.87890625 124.602607254 876.87890625 124.602607254 863.888671875 100.612304688 c 0,32,33
 838.929754435 54.5140317024 838.929754435 54.5140317024 788.952147689 17.8903166325 c 128,-1,34
 738.974540944 -18.7333984375 738.974540944 -18.7333984375 685.920898438 -18.7333984375 c 0,35,36
 646.836020829 -18.7333984375 646.836020829 -18.7333984375 596.294921875 11.5712890625 c 0,37,38
 561.554955063 32.4025252876 561.554955063 32.4025252876 501.349609375 82.4521484375 c 1,39,40
 476.356650369 52.6680429615 476.356650369 52.6680429615 454.827170439 32.2094098289 c 128,-1,41
 433.297690509 11.7507766963 433.297690509 11.7507766963 397.030902477 -7.12217024559 c 128,-1,42
 360.764114445 -25.9951171875 360.764114445 -25.9951171875 324 -25.9951171875 c 0,43,44
 269.953532793 -25.9951171875 269.953532793 -25.9951171875 229.485555459 6.52222836205 c 128,-1,45
 189.017578125 39.0395739116 189.017578125 39.0395739116 189.017578125 89.1826171875 c 0,46,47
 189.017578125 121.300391749 189.017578125 121.300391749 200.455224379 143.738232753 c 128,-1,48
 211.892870633 166.176073758 211.892870633 166.176073758 234.201171875 188.484375 c 0,49,50
 264.800703878 219.083907003 264.800703878 219.083907003 319.248046875 258.650390625 c 0,51,52
 407.060659184 322.460904957 407.060659184 322.460904957 429.994140625 363.017578125 c 0,53,54
 437.802734375 376.828112786 437.802734375 376.828112786 437.802734375 387.357421875 c 0,55,56
 437.802734375 418.078026635 437.802734375 418.078026635 413.21804798 444.118838195 c 128,-1,57
 388.633361586 470.159649755 388.633361586 470.159649755 354.891601562 484.241210938 c 1,58,59
 304.612304688 482.718390133 304.612304688 482.718390133 304.612304688 462.543945312 c 0,60,61
 304.612304688 457.597045898 304.612304688 457.597045898 307.649902344 445.037231445 c 128,-1,62
 310.6875 432.477416992 310.6875 432.477416992 310.6875 426.869140625 c 0,63,64
 310.6875 374.663911 310.6875 374.663911 240.65234375 357.194335938 c 0,65,66
 204.769229265 348.2421875 204.769229265 348.2421875 161.66015625 348.2421875 c 0,67,68
 112.215858002 348.2421875 112.215858002 348.2421875 80.9384954071 381.30032834 c 128,-1,69
 49.6611328125 414.35846918 49.6611328125 414.35846918 49.6611328125 463.090820312 c 0,70,71
 49.6611328125 489.182901317 49.6611328125 489.182901317 57.0430181276 511.08412644 c 128,-1,72
 64.4249034427 532.985351562 64.4249034427 532.985351562 83.21875 532.985351562 c 0,73,74
 94.1756925647 532.985351562 94.1756925647 532.985351562 101.66108847 525.503308887 c 128,-1,75
 109.146484375 518.021266212 109.146484375 518.021266212 109.146484375 507.62890625 c 0,76,77
 109.146484375 502.937296373 109.146484375 502.937296373 107.459960938 498.581054688 c 0,78,79
 100.85546875 481.519449868 100.85546875 481.519449868 100.85546875 463.794921875 c 0,80,81
 100.85546875 434.482215804 100.85546875 434.482215804 116.568233184 416.854389152 c 128,-1,82
 132.280997617 399.2265625 132.280997617 399.2265625 161.340820312 399.2265625 c 0,83,84
 236.259101101 399.2265625 236.259101101 399.2265625 256.482421875 419.451171875 c 0,85,86
 259.697265625 422.666015625 259.697265625 422.666015625 259.697265625 426.869140625 c 0,87,88
 259.697265625 430.318644242 259.697265625 430.318644242 258.212890625 435.001953125 c 0,89,90
 253.622070312 449.481388359 253.622070312 449.481388359 253.622070312 462.543945312 c 0,91,92
 253.622070312 500.235196494 253.622070312 500.235196494 284.562807129 517.769941997 c 128,-1,93
 315.503543946 535.3046875 315.503543946 535.3046875 359.684570312 535.3046875 c 0,94,95
 364.413788496 535.3046875 364.413788496 535.3046875 368.80078125 533.591796875 c 0,96,97
 418.456078803 514.200322734 418.456078803 514.200322734 453.624035495 475.244906713 c 128,-1,98
 488.791992188 436.289490692 488.791992188 436.289490692 488.791992188 387.3359375 c 0,99,100
 488.791992188 363.966029869 488.791992188 363.966029869 474.91015625 338.78125 c 0,101,102
 447.279590717 288.651336451 447.279590717 288.651336451 349.418945312 217.524414062 c 0,103,104
 291.096213602 173.260510577 291.096213602 173.260510577 270.237304688 152.400390625 c 0,105,106
 251.241335154 133.404421091 251.241335154 133.404421091 244.859375 117.470703125 c 0,107,108
 240.0078125 105.357576647 240.0078125 105.357576647 240.0078125 89.1826171875 c 0,0,1
EndSplineSet
Validated: 1
EndChar

